<svg width="80" height="16" viewBox="0 0 80 16" fill="none" xmlns="http://www.w3.org/2000/svg">
<path fill-rule="evenodd" clip-rule="evenodd" d="M56.1243 15.1061L57.0629 13.7207H72.7053C73.6886 13.7207 73.912 13.2737 72.8394 12.514L61.9344 5.22905C60.683 4.37989 60.6383 2.05587 63.4092 2.05587H79.3198L78.2472 3.53073H65.5545C64.3031 3.53073 64.6606 3.97765 65.2863 4.37989L77.5321 11.9777C79.5433 13.2291 78.4707 15.1508 76.4148 15.1508H56.1243V15.1061ZM0.75 15.1061L13.264 0.625698H20.8617L25.7779 15.1061H20.7723L19.3422 8.98324H10.4036L5.26397 15.1061H0.75ZM19.074 7.91062L17.8226 2.54749H15.7668L11.2975 7.91062H19.074ZM49.0629 13.7207C44.8617 14.7933 41.5098 12.9609 41.5545 9.69833C41.5992 6.43575 45.0405 2.90503 49.2416 1.8324C53.4427 0.804469 56.7947 2.59218 56.75 5.85475C56.7053 9.16201 53.264 12.6927 49.0629 13.7207ZM47.007 16C40.8841 16 36.7724 12.4246 37.9791 8C38.5154 5.98883 39.9902 4.20112 42.0461 2.77095H33.7332L29.9791 15.1061H26.1355L29.8003 2.77095H22.426L21.6215 0.625698H46.6494C48.1243 0.223464 49.6885 0 51.2081 0C57.331 0 61.3981 3.57542 60.236 8C59.1187 12.3799 53.1299 16 47.007 16Z" fill="white"/>
</svg>
