<svg width="36" height="16" viewBox="0 0 36 16" fill="none" xmlns="http://www.w3.org/2000/svg">
<path d="M28.6062 2.41133C30.1437 2.39975 31.6096 2.59669 32.9683 3.25702C34.5296 4.01002 35.5307 5.19167 35.8763 6.87146C36.2339 8.63234 35.7929 10.231 34.8752 11.737C33.7549 13.5906 32.0625 14.7375 30.0007 15.4094C28.4751 15.9076 26.9019 16.0813 25.3168 15.9655C23.7675 15.8612 22.2538 15.5484 20.9548 14.6332C19.1551 13.3705 18.5234 11.598 18.8333 9.55912C19.3339 6.22271 21.4315 4.12587 24.6375 3.01374C25.9246 2.56193 27.2714 2.38816 28.6062 2.41133ZM26.2107 14.2741C26.7112 14.2278 27.0688 14.193 27.4263 14.1467C28.5705 13.9961 29.5835 13.5559 30.3344 12.6754C31.848 10.9145 32.3843 8.87562 32.0625 6.62818C31.8957 5.50446 31.2521 4.68194 30.0603 4.34598C29.2498 4.11429 28.4155 4.1027 27.5813 4.1838C26.3179 4.29964 25.1976 4.76303 24.3753 5.74774C22.9093 7.50862 22.373 9.53595 22.7067 11.7602C22.8617 12.826 23.4576 13.6601 24.5779 13.9729C25.15 14.1467 25.7578 14.193 26.2107 14.2741Z" fill="white"/>
<path d="M5.66339 4.126C6.27122 4.126 6.86713 4.11441 7.47495 4.126C7.99935 4.13758 8.0947 4.28819 7.93976 4.77474C7.36769 6.66306 6.80754 8.56295 6.22354 10.4629C5.98518 11.2622 5.72298 12.05 5.48462 12.8377C5.43694 12.9999 5.40119 13.1737 5.40119 13.3475C5.36544 14.0078 5.67531 14.3901 6.35464 14.4828C6.81945 14.5407 7.28426 14.5523 7.74907 14.587C7.84442 14.5986 7.92785 14.6334 8.02319 14.6681C7.97552 14.7608 7.95168 14.8882 7.88017 14.923C7.37961 15.1663 6.89096 15.479 6.36656 15.6181C4.90063 15.9888 3.42277 15.954 1.95683 15.6412C0.84844 15.4095 0.204858 14.5638 0.347876 13.5212C0.407467 13.0231 0.598158 12.5365 0.753095 12.05C1.26558 10.3238 1.8019 8.63246 2.33821 6.92951C2.57658 6.16491 2.81494 5.40032 3.06522 4.63573C3.16057 4.33452 3.39893 4.16075 3.7684 4.16075C4.40006 4.14917 5.03173 4.16075 5.67531 4.16075C5.66339 4.14917 5.66339 4.13758 5.66339 4.126Z" fill="white"/>
<path d="M11.2773 15.4906C11.5395 14.6565 11.7779 13.8572 12.0282 13.0578C12.4811 11.5866 12.9459 10.1037 13.3988 8.63246C13.7802 7.39289 14.1615 6.16491 14.5548 4.92534C14.6859 4.49671 14.6859 4.47354 14.2211 4.47354C13.804 4.47354 13.3988 4.47354 12.9221 4.47354C13.1962 3.87113 13.4345 3.33823 13.6848 2.81692C13.7206 2.759 13.8517 2.70107 13.9351 2.70107C15.6752 2.68949 17.4033 2.70107 19.1433 2.70107C19.191 2.70107 19.2387 2.72424 19.334 2.74741C19.2149 3.15288 19.0957 3.54676 18.9765 3.94064C18.3806 5.82895 17.7966 7.71726 17.2007 9.60558C16.6048 11.5055 16.0089 13.3938 15.413 15.2937C15.3653 15.4443 15.3057 15.5485 15.115 15.5485C13.9113 15.537 12.6956 15.537 11.4919 15.537C11.4204 15.5254 11.3727 15.5138 11.2773 15.4906Z" fill="white"/>
<path d="M5.86575 3.36133C5.1745 3.36133 4.48324 3.36133 3.78007 3.36133C3.45828 3.36133 3.39869 3.29182 3.50595 3.00221C3.72048 2.37663 3.92309 1.73947 4.16145 1.11389C4.43557 0.407224 5.03148 0.0596816 5.77041 0.0249274C6.89072 -0.0214116 8.01103 0.0133426 9.13134 0.00175788C9.38162 0.00175788 9.42929 0.117605 9.3697 0.314546C9.15517 0.986461 8.92873 1.65838 8.70228 2.31871C8.61886 2.56199 8.52351 2.7821 8.44008 3.02538C8.35665 3.26866 8.20172 3.34975 7.95144 3.34975C7.24826 3.34975 6.55701 3.36133 5.86575 3.36133Z" fill="white"/>
</svg>
