<svg width="24" height="25" viewBox="0 0 24 25" fill="none" xmlns="http://www.w3.org/2000/svg">
<path d="M16.5 7.68896V7.69897M4 8.18896C4 7.1281 4.42143 6.11068 5.17157 5.36054C5.92172 4.61039 6.93913 4.18896 8 4.18896H16C17.0609 4.18896 18.0783 4.61039 18.8284 5.36054C19.5786 6.11068 20 7.1281 20 8.18896V16.189C20 17.2498 19.5786 18.2672 18.8284 19.0174C18.0783 19.7675 17.0609 20.189 16 20.189H8C6.93913 20.189 5.92172 19.7675 5.17157 19.0174C4.42143 18.2672 4 17.2498 4 16.189V8.18896ZM9 12.189C9 12.9846 9.31607 13.7477 9.87868 14.3103C10.4413 14.8729 11.2044 15.189 12 15.189C12.7956 15.189 13.5587 14.8729 14.1213 14.3103C14.6839 13.7477 15 12.9846 15 12.189C15 11.3933 14.6839 10.6303 14.1213 10.0676C13.5587 9.50503 12.7956 9.18896 12 9.18896C11.2044 9.18896 10.4413 9.50503 9.87868 10.0676C9.31607 10.6303 9 11.3933 9 12.189Z" stroke="white" stroke-width="2" stroke-linecap="round" stroke-linejoin="round"/>
</svg>
