<svg width="24" height="25" viewBox="0 0 24 25" fill="none" xmlns="http://www.w3.org/2000/svg">
<path d="M8 11.189V16.189M8 8.18896V8.19897M12 16.189V11.189M16 16.189V13.189C16 12.6585 15.7893 12.1498 15.4142 11.7748C15.0391 11.3997 14.5304 11.189 14 11.189C13.4696 11.189 12.9609 11.3997 12.5858 11.7748C12.2107 12.1498 12 12.6585 12 13.189M4 6.18896C4 5.65853 4.21071 5.14982 4.58579 4.77475C4.96086 4.39968 5.46957 4.18896 6 4.18896H18C18.5304 4.18896 19.0391 4.39968 19.4142 4.77475C19.7893 5.14982 20 5.65853 20 6.18896V18.189C20 18.7194 19.7893 19.2281 19.4142 19.6032C19.0391 19.9783 18.5304 20.189 18 20.189H6C5.46957 20.189 4.96086 19.9783 4.58579 19.6032C4.21071 19.2281 4 18.7194 4 18.189V6.18896Z" stroke="white" stroke-width="2" stroke-linecap="round" stroke-linejoin="round"/>
</svg>
