<svg width="306" height="273" viewBox="0 0 306 273" fill="none" xmlns="http://www.w3.org/2000/svg">
<path d="M77.6854 86.1318C77.6854 102.88 73.9401 117.833 66.4494 130.992C59.2584 143.852 49.221 154.02 36.3371 161.497C23.4532 168.675 8.62172 172.264 -8.1573 172.264C-24.6367 172.264 -39.4682 168.675 -52.6517 161.497C-65.5356 154.02 -75.7228 143.852 -83.2135 130.992C-90.4045 117.833 -94 102.88 -94 86.1318C-94 69.3839 -90.4045 54.5801 -83.2135 41.7201C-75.7228 28.5611 -65.5356 18.3927 -52.6517 11.2151C-39.4682 3.73836 -24.6367 0 -8.1573 0C8.62172 0 23.4532 3.73836 36.3371 11.2151C49.221 18.3927 59.2584 28.5611 66.4494 41.7201C73.9401 54.5801 77.6854 69.3839 77.6854 86.1318ZM34.0899 86.1318C34.0899 73.2718 30.1948 62.8044 22.4045 54.7296C14.6142 46.3557 4.42696 42.1687 -8.1573 42.1687C-20.7416 42.1687 -30.9288 46.3557 -38.7191 54.7296C-46.2097 62.8044 -49.9551 73.2718 -49.9551 86.1318C-49.9551 98.9917 -46.2097 109.609 -38.7191 117.983C-30.9288 126.357 -20.7416 130.544 -8.1573 130.544C4.42696 130.544 14.6142 126.357 22.4045 117.983C30.1948 109.609 34.0899 98.9917 34.0899 86.1318ZM257.91 6.72907L8.47192 334.209H-46.3596L203.079 6.72907H257.91ZM306 253.909C306 270.657 302.255 285.611 294.764 298.77C287.573 311.63 277.536 321.798 264.652 329.275C252.067 336.452 237.386 340.041 220.607 340.041C203.828 340.041 188.996 336.452 176.112 329.275C163.228 321.798 153.041 311.63 145.551 298.77C138.36 285.611 134.764 270.657 134.764 253.909C134.764 237.161 138.36 222.358 145.551 209.498C153.041 196.339 163.228 186.17 176.112 178.993C188.996 171.516 203.828 167.778 220.607 167.778C237.386 167.778 252.067 171.516 264.652 178.993C277.536 186.17 287.573 196.339 294.764 209.498C302.255 222.358 306 237.161 306 253.909ZM262.405 253.909C262.405 240.75 258.509 230.133 250.719 222.059C243.228 213.984 233.191 209.946 220.607 209.946C208.022 209.946 197.835 213.984 190.045 222.059C182.255 230.133 178.36 240.75 178.36 253.909C178.36 266.769 182.255 277.386 190.045 285.76C197.835 293.835 208.022 297.872 220.607 297.872C232.891 297.872 242.929 293.835 250.719 285.76C258.509 277.386 262.405 266.769 262.405 253.909Z" fill="#CE2C0D"/>
</svg>
