<svg width="298" height="263" viewBox="0 0 298 263" fill="none" xmlns="http://www.w3.org/2000/svg">
<path d="M171.685 8.13179C171.685 24.8796 167.94 39.8331 160.449 52.9921C153.258 65.8521 143.221 76.0204 130.337 83.4971C117.453 90.6747 102.622 94.2636 85.8427 94.2636C69.3633 94.2636 54.5318 90.6747 41.3483 83.4971C28.4644 76.0204 18.2772 65.8521 10.7865 52.9921C3.59551 39.8331 0 24.8796 0 8.13179C0 -8.61605 3.59551 -23.4199 10.7865 -36.2799C18.2772 -49.4389 28.4644 -59.6073 41.3483 -66.7849C54.5318 -74.2616 69.3633 -78 85.8427 -78C102.622 -78 117.453 -74.2616 130.337 -66.7849C143.221 -59.6073 153.258 -49.4389 160.449 -36.2799C167.94 -23.4199 171.685 -8.61605 171.685 8.13179ZM128.09 8.13179C128.09 -4.72816 124.195 -15.1956 116.404 -23.2704C108.614 -31.6443 98.427 -35.8313 85.8427 -35.8313C73.2584 -35.8313 63.0712 -31.6443 55.2809 -23.2704C47.7903 -15.1956 44.0449 -4.72816 44.0449 8.13179C44.0449 20.9917 47.7903 31.6087 55.2809 39.9826C63.0712 48.3565 73.2584 52.5435 85.8427 52.5435C98.427 52.5435 108.614 48.3565 116.404 39.9826C124.195 31.6087 128.09 20.9917 128.09 8.13179ZM351.91 -71.2709L102.472 256.209H47.6404L297.079 -71.2709H351.91ZM400 175.909C400 192.657 396.255 207.611 388.764 220.77C381.573 233.63 371.536 243.798 358.652 251.275C346.067 258.452 331.386 262.041 314.607 262.041C297.828 262.041 282.996 258.452 270.112 251.275C257.228 243.798 247.041 233.63 239.551 220.77C232.36 207.611 228.764 192.657 228.764 175.909C228.764 159.161 232.36 144.358 239.551 131.498C247.041 118.339 257.228 108.17 270.112 100.993C282.996 93.5159 297.828 89.7775 314.607 89.7775C331.386 89.7775 346.067 93.5159 358.652 100.993C371.536 108.17 381.573 118.339 388.764 131.498C396.255 144.358 400 159.161 400 175.909ZM356.405 175.909C356.405 162.75 352.509 152.133 344.719 144.059C337.228 135.984 327.191 131.946 314.607 131.946C302.022 131.946 291.835 135.984 284.045 144.059C276.255 152.133 272.36 162.75 272.36 175.909C272.36 188.769 276.255 199.386 284.045 207.76C291.835 215.835 302.022 219.872 314.607 219.872C326.891 219.872 336.929 215.835 344.719 207.76C352.509 199.386 356.405 188.769 356.405 175.909Z" fill="#CE2C0D"/>
</svg>
