<svg width="455" height="28" viewBox="0 0 455 28" fill="none" xmlns="http://www.w3.org/2000/svg">
<path d="M0.108 21V19.569H0.432C0.756 19.569 1.044 19.524 1.296 19.434C1.548 19.326 1.773 19.128 1.971 18.84C2.187 18.552 2.394 18.138 2.592 17.598L8.451 1.722H12.177L17.928 17.922C18.09 18.318 18.261 18.642 18.441 18.894C18.639 19.128 18.864 19.299 19.116 19.407C19.386 19.515 19.683 19.569 20.007 19.569H20.331V21H11.421V19.569H12.312C12.708 19.569 13.023 19.497 13.257 19.353C13.509 19.191 13.635 18.921 13.635 18.543C13.635 18.399 13.617 18.255 13.581 18.111C13.563 17.967 13.536 17.832 13.5 17.706C13.464 17.562 13.428 17.445 13.392 17.355L12.447 14.655H5.886L5.103 16.977C5.067 17.121 5.022 17.292 4.968 17.49C4.914 17.67 4.869 17.85 4.833 18.03C4.797 18.21 4.779 18.372 4.779 18.516C4.779 18.858 4.878 19.119 5.076 19.299C5.292 19.479 5.634 19.569 6.102 19.569H7.128V21H0.108ZM6.453 13.008H11.907L10.314 8.04C10.17 7.626 10.035 7.221 9.909 6.825C9.783 6.429 9.666 6.033 9.558 5.637C9.45 5.223 9.351 4.809 9.261 4.395C9.171 4.791 9.072 5.187 8.964 5.583C8.856 5.961 8.739 6.348 8.613 6.744C8.505 7.122 8.37 7.509 8.208 7.905L6.453 13.008ZM26.2818 21.27C24.9678 21.27 23.8068 21.036 22.7988 20.568C21.7908 20.082 20.9988 19.299 20.4228 18.219C19.8648 17.121 19.5858 15.654 19.5858 13.818C19.5858 11.874 19.8738 10.353 20.4498 9.255C21.0438 8.139 21.8358 7.347 22.8258 6.879C23.8338 6.411 24.9588 6.177 26.2008 6.177C27.3708 6.177 28.3518 6.303 29.1438 6.555C29.9358 6.807 30.5298 7.149 30.9258 7.581C31.3398 7.995 31.5468 8.472 31.5468 9.012C31.5468 9.39 31.4478 9.759 31.2498 10.119C31.0698 10.479 30.7278 10.767 30.2238 10.983C29.7198 11.199 28.9998 11.307 28.0638 11.307C28.0638 10.677 28.0098 10.101 27.9018 9.579C27.7938 9.057 27.6138 8.634 27.3618 8.31C27.1098 7.986 26.7588 7.824 26.3088 7.824C25.7868 7.824 25.3368 8.004 24.9588 8.364C24.5808 8.706 24.2838 9.309 24.0678 10.173C23.8518 11.037 23.7438 12.243 23.7438 13.791C23.7438 14.997 23.8518 16.005 24.0678 16.815C24.3018 17.625 24.6528 18.237 25.1208 18.651C25.5888 19.047 26.2008 19.245 26.9568 19.245C27.5868 19.245 28.1538 19.155 28.6578 18.975C29.1798 18.777 29.6298 18.507 30.0078 18.165C30.3858 17.823 30.6738 17.454 30.8718 17.058C31.1058 17.184 31.2678 17.364 31.3578 17.598C31.4658 17.814 31.5198 18.048 31.5198 18.3C31.5198 18.75 31.3308 19.209 30.9528 19.677C30.5928 20.127 30.0258 20.505 29.2518 20.811C28.4958 21.117 27.5058 21.27 26.2818 21.27ZM39.332 21.27C37.028 21.27 35.282 20.622 34.094 19.326C32.924 18.012 32.339 16.185 32.339 13.845C32.339 11.307 32.924 9.399 34.094 8.121C35.264 6.825 36.911 6.177 39.035 6.177C40.997 6.177 42.536 6.726 43.652 7.824C44.786 8.922 45.353 10.542 45.353 12.684V14.061H36.497C36.533 15.861 36.866 17.175 37.496 18.003C38.144 18.831 39.071 19.245 40.277 19.245C41.195 19.245 41.951 19.029 42.545 18.597C43.139 18.165 43.589 17.634 43.895 17.004C44.147 17.076 44.363 17.22 44.543 17.436C44.723 17.634 44.813 17.886 44.813 18.192C44.813 18.66 44.624 19.137 44.246 19.623C43.868 20.091 43.274 20.487 42.464 20.811C41.672 21.117 40.628 21.27 39.332 21.27ZM41.222 12.333C41.222 10.965 41.06 9.894 40.736 9.12C40.412 8.328 39.863 7.932 39.089 7.932C38.333 7.932 37.73 8.31 37.28 9.066C36.83 9.822 36.587 10.911 36.551 12.333H41.222ZM45.4952 21V19.569H45.8192C46.1792 19.569 46.5032 19.515 46.7912 19.407C47.0792 19.299 47.3042 19.11 47.4662 18.84C47.6462 18.552 47.7362 18.156 47.7362 17.652V9.768C47.7362 9.282 47.6462 8.913 47.4662 8.661C47.2862 8.391 47.0522 8.211 46.7642 8.121C46.4942 8.013 46.1792 7.959 45.8192 7.959H45.4952V6.528H51.8402V17.652C51.8402 18.156 51.9212 18.552 52.0832 18.84C52.2632 19.11 52.4972 19.299 52.7852 19.407C53.0732 19.515 53.3972 19.569 53.7572 19.569H54.0812V21H45.4952ZM49.6532 4.098C49.0052 4.098 48.4562 3.936 48.0062 3.612C47.5742 3.288 47.3582 2.802 47.3582 2.154C47.3582 1.47 47.5742 0.974999 48.0062 0.668999C48.4562 0.362999 49.0052 0.209999 49.6532 0.209999C50.2832 0.209999 50.8232 0.362999 51.2732 0.668999C51.7412 0.974999 51.9752 1.47 51.9752 2.154C51.9752 2.802 51.7412 3.288 51.2732 3.612C50.8232 3.936 50.2832 4.098 49.6532 4.098ZM59.9014 21.27C58.5154 21.27 57.4534 20.955 56.7154 20.325C55.9954 19.677 55.6354 18.57 55.6354 17.004V8.364H53.6104V6.987C54.1864 6.987 54.6994 6.879 55.1494 6.663C55.6174 6.429 55.9864 6.159 56.2564 5.853C56.5264 5.565 56.7694 5.205 56.9854 4.773C57.2014 4.323 57.3724 3.792 57.4984 3.18H59.7394V6.528H63.1954V8.364H59.7394V16.734C59.7394 17.526 59.8744 18.12 60.1444 18.516C60.4324 18.894 60.8914 19.083 61.5214 19.083C61.8634 19.083 62.1964 19.056 62.5204 19.002C62.8444 18.948 63.1504 18.894 63.4384 18.84V20.595C63.1504 20.721 62.6914 20.865 62.0614 21.027C61.4494 21.189 60.7294 21.27 59.9014 21.27ZM70.7628 21.27C68.4588 21.27 66.7128 20.622 65.5248 19.326C64.3548 18.012 63.7698 16.185 63.7698 13.845C63.7698 11.307 64.3548 9.399 65.5248 8.121C66.6948 6.825 68.3418 6.177 70.4658 6.177C72.4278 6.177 73.9668 6.726 75.0828 7.824C76.2168 8.922 76.7838 10.542 76.7838 12.684V14.061H67.9278C67.9638 15.861 68.2968 17.175 68.9268 18.003C69.5748 18.831 70.5018 19.245 71.7078 19.245C72.6258 19.245 73.3818 19.029 73.9758 18.597C74.5698 18.165 75.0198 17.634 75.3258 17.004C75.5778 17.076 75.7938 17.22 75.9738 17.436C76.1538 17.634 76.2438 17.886 76.2438 18.192C76.2438 18.66 76.0548 19.137 75.6768 19.623C75.2988 20.091 74.7048 20.487 73.8948 20.811C73.1028 21.117 72.0588 21.27 70.7628 21.27ZM72.6528 12.333C72.6528 10.965 72.4908 9.894 72.1668 9.12C71.8428 8.328 71.2938 7.932 70.5198 7.932C69.7638 7.932 69.1608 8.31 68.7108 9.066C68.2608 9.822 68.0178 10.911 67.9818 12.333H72.6528ZM82.6499 21.27C81.3899 21.27 80.3729 21.144 79.5989 20.892C78.8249 20.622 78.2579 20.262 77.8979 19.812C77.5379 19.344 77.3579 18.804 77.3579 18.192C77.3579 17.688 77.4749 17.292 77.7089 17.004C77.9429 16.698 78.2399 16.491 78.5999 16.383C78.9599 16.257 79.3379 16.194 79.7339 16.194C79.7339 17.31 79.9859 18.165 80.4899 18.759C81.0119 19.335 81.7679 19.623 82.7579 19.623C83.6759 19.623 84.3419 19.443 84.7559 19.083C85.1699 18.705 85.3769 18.246 85.3769 17.706C85.3769 17.31 85.2689 16.986 85.0529 16.734C84.837 16.464 84.486 16.212 83.9999 15.978C83.5319 15.744 82.9019 15.492 82.1099 15.222C81.0839 14.862 80.2289 14.484 79.5449 14.088C78.8789 13.692 78.3749 13.215 78.0329 12.657C77.7089 12.081 77.5469 11.361 77.5469 10.497C77.5469 9.057 78.0779 7.986 79.1399 7.284C80.2019 6.564 81.6059 6.204 83.352 6.204C84.432 6.204 85.314 6.33 85.9979 6.582C86.682 6.816 87.177 7.131 87.483 7.527C87.807 7.923 87.969 8.337 87.969 8.769C87.969 9.345 87.762 9.795 87.348 10.119C86.934 10.425 86.3039 10.578 85.4579 10.578C85.4579 9.696 85.2239 9.012 84.7559 8.526C84.3059 8.04 83.7029 7.797 82.9469 7.797C82.2449 7.797 81.7049 7.95 81.3269 8.256C80.9489 8.544 80.7599 8.949 80.7599 9.471C80.7599 10.065 80.9939 10.524 81.4619 10.848C81.9299 11.172 82.7849 11.55 84.0269 11.982C84.9989 12.306 85.818 12.666 86.484 13.062C87.1679 13.44 87.6809 13.908 88.023 14.466C88.383 15.024 88.5629 15.735 88.5629 16.599C88.5629 18.057 88.05 19.2 87.024 20.028C85.998 20.856 84.5399 21.27 82.6499 21.27ZM89.196 23.754C89.736 23.556 90.177 23.358 90.519 23.16C90.879 22.962 91.14 22.737 91.302 22.485C91.482 22.251 91.572 21.972 91.572 21.648C91.572 21.378 91.473 21.171 91.275 21.027C91.077 20.901 90.843 20.766 90.573 20.622C90.321 20.478 90.096 20.271 89.898 20.001C89.7 19.713 89.601 19.299 89.601 18.759C89.601 18.129 89.799 17.661 90.195 17.355C90.609 17.049 91.095 16.896 91.653 16.896C92.409 16.896 92.994 17.166 93.408 17.706C93.822 18.228 94.029 18.948 94.029 19.866C94.029 21.018 93.66 22.071 92.922 23.025C92.202 23.979 90.96 24.69 89.196 25.158V23.754ZM100.717 21V19.569H101.824C102.094 19.569 102.328 19.533 102.526 19.461C102.742 19.371 102.913 19.2 103.039 18.948C103.165 18.696 103.228 18.318 103.228 17.814V4.881C103.228 4.395 103.165 4.035 103.039 3.801C102.913 3.549 102.742 3.378 102.526 3.288C102.31 3.198 102.076 3.153 101.824 3.153H100.717V1.722H108.601C111.175 1.722 113.101 2.118 114.379 2.91C115.675 3.702 116.323 4.944 116.323 6.636C116.323 7.428 116.179 8.094 115.891 8.634C115.603 9.156 115.207 9.588 114.703 9.93C114.199 10.254 113.605 10.524 112.921 10.74V10.875C113.749 11.073 114.478 11.388 115.108 11.82C115.738 12.252 116.233 12.792 116.593 13.44C116.953 14.07 117.133 14.826 117.133 15.708C117.133 17.472 116.485 18.795 115.189 19.677C113.893 20.559 111.967 21 109.411 21H100.717ZM109.276 19.353C110.482 19.353 111.337 19.074 111.841 18.516C112.345 17.958 112.597 16.995 112.597 15.627C112.597 14.745 112.498 14.016 112.3 13.44C112.102 12.864 111.76 12.441 111.274 12.171C110.806 11.883 110.158 11.739 109.33 11.739H107.494V19.353H109.276ZM108.52 10.092C109.366 10.092 110.023 9.975 110.491 9.741C110.959 9.507 111.292 9.138 111.49 8.634C111.688 8.112 111.787 7.446 111.787 6.636C111.787 5.412 111.535 4.566 111.031 4.098C110.545 3.612 109.69 3.369 108.466 3.369H107.494V10.092H108.52ZM122.071 21.27C121.279 21.27 120.559 21.108 119.911 20.784C119.281 20.46 118.777 19.974 118.399 19.326C118.021 18.678 117.832 17.859 117.832 16.869C117.832 15.393 118.327 14.313 119.317 13.629C120.325 12.927 121.846 12.54 123.88 12.468L126.094 12.387V10.902C126.094 10.236 126.04 9.678 125.932 9.228C125.824 8.778 125.635 8.436 125.365 8.202C125.095 7.95 124.717 7.824 124.231 7.824C123.763 7.824 123.394 7.941 123.124 8.175C122.854 8.409 122.656 8.742 122.53 9.174C122.422 9.606 122.368 10.128 122.368 10.74C121.234 10.74 120.379 10.605 119.803 10.335C119.245 10.047 118.966 9.579 118.966 8.931C118.966 8.265 119.218 7.734 119.722 7.338C120.226 6.924 120.901 6.627 121.747 6.447C122.593 6.267 123.52 6.177 124.528 6.177C126.418 6.177 127.831 6.519 128.767 7.203C129.721 7.887 130.198 9.075 130.198 10.767V17.652C130.198 18.156 130.252 18.543 130.36 18.813C130.468 19.083 130.639 19.281 130.873 19.407C131.107 19.515 131.422 19.569 131.818 19.569H131.926V21H126.904L126.337 19.137H126.094C125.698 19.623 125.32 20.028 124.96 20.352C124.618 20.658 124.222 20.883 123.772 21.027C123.322 21.189 122.755 21.27 122.071 21.27ZM123.556 19.299C124.078 19.299 124.528 19.155 124.906 18.867C125.284 18.579 125.572 18.183 125.77 17.679C125.986 17.157 126.094 16.545 126.094 15.843V13.818L124.879 13.899C124.159 13.935 123.592 14.079 123.178 14.331C122.764 14.565 122.467 14.907 122.287 15.357C122.107 15.789 122.017 16.329 122.017 16.977C122.017 17.481 122.071 17.913 122.179 18.273C122.305 18.615 122.476 18.876 122.692 19.056C122.926 19.218 123.214 19.299 123.556 19.299ZM138.179 21.27C136.793 21.27 135.731 20.955 134.993 20.325C134.273 19.677 133.913 18.57 133.913 17.004V8.364H131.888V6.987C132.464 6.987 132.977 6.879 133.427 6.663C133.895 6.429 134.264 6.159 134.534 5.853C134.804 5.565 135.047 5.205 135.263 4.773C135.479 4.323 135.65 3.792 135.776 3.18H138.017V6.528H141.473V8.364H138.017V16.734C138.017 17.526 138.152 18.12 138.422 18.516C138.71 18.894 139.169 19.083 139.799 19.083C140.141 19.083 140.474 19.056 140.798 19.002C141.122 18.948 141.428 18.894 141.716 18.84V20.595C141.428 20.721 140.969 20.865 140.339 21.027C139.727 21.189 139.007 21.27 138.179 21.27ZM149.041 21.27C146.737 21.27 144.991 20.622 143.803 19.326C142.633 18.012 142.048 16.185 142.048 13.845C142.048 11.307 142.633 9.399 143.803 8.121C144.973 6.825 146.62 6.177 148.744 6.177C150.706 6.177 152.245 6.726 153.361 7.824C154.495 8.922 155.062 10.542 155.062 12.684V14.061H146.206C146.242 15.861 146.575 17.175 147.205 18.003C147.853 18.831 148.78 19.245 149.986 19.245C150.904 19.245 151.66 19.029 152.254 18.597C152.848 18.165 153.298 17.634 153.604 17.004C153.856 17.076 154.072 17.22 154.252 17.436C154.432 17.634 154.522 17.886 154.522 18.192C154.522 18.66 154.333 19.137 153.955 19.623C153.577 20.091 152.983 20.487 152.173 20.811C151.381 21.117 150.337 21.27 149.041 21.27ZM150.931 12.333C150.931 10.965 150.769 9.894 150.445 9.12C150.121 8.328 149.572 7.932 148.798 7.932C148.042 7.932 147.439 8.31 146.989 9.066C146.539 9.822 146.296 10.911 146.26 12.333H150.931ZM155.285 21V19.569H155.393C155.807 19.569 156.158 19.524 156.446 19.434C156.752 19.344 156.986 19.164 157.148 18.894C157.328 18.606 157.418 18.183 157.418 17.625V9.795C157.418 9.255 157.337 8.859 157.175 8.607C157.031 8.337 156.815 8.166 156.527 8.094C156.239 8.004 155.897 7.959 155.501 7.959H155.42V6.528H160.82L161.36 9.12H161.495C161.765 8.472 162.071 7.932 162.413 7.5C162.755 7.068 163.169 6.744 163.655 6.528C164.159 6.312 164.78 6.204 165.518 6.204C166.544 6.204 167.291 6.429 167.759 6.879C168.227 7.311 168.461 7.878 168.461 8.58C168.461 9.408 168.164 10.02 167.57 10.416C166.994 10.812 166.166 11.01 165.086 11.01C165.086 10.506 165.05 10.092 164.978 9.768C164.906 9.444 164.78 9.201 164.6 9.039C164.42 8.859 164.159 8.769 163.817 8.769C163.403 8.769 163.052 8.922 162.764 9.228C162.494 9.534 162.269 9.93 162.089 10.416C161.909 10.902 161.774 11.433 161.684 12.009C161.594 12.567 161.549 13.107 161.549 13.629V17.76C161.549 18.282 161.63 18.678 161.792 18.948C161.954 19.2 162.179 19.371 162.467 19.461C162.755 19.533 163.079 19.569 163.439 19.569H164.303V21H155.285ZM167.852 21V19.569H168.176C168.536 19.569 168.86 19.515 169.148 19.407C169.436 19.299 169.661 19.11 169.823 18.84C170.003 18.552 170.093 18.156 170.093 17.652V9.768C170.093 9.282 170.003 8.913 169.823 8.661C169.643 8.391 169.409 8.211 169.121 8.121C168.851 8.013 168.536 7.959 168.176 7.959H167.852V6.528H174.197V17.652C174.197 18.156 174.278 18.552 174.44 18.84C174.62 19.11 174.854 19.299 175.142 19.407C175.43 19.515 175.754 19.569 176.114 19.569H176.438V21H167.852ZM170.039 4.287C170.309 3.945 170.606 3.54 170.93 3.072C171.272 2.604 171.596 2.127 171.902 1.641C172.226 1.155 172.478 0.713999 172.658 0.317999H176.897V0.587999C176.735 0.821999 176.465 1.119 176.087 1.479C175.709 1.839 175.268 2.217 174.764 2.613C174.278 3.009 173.783 3.387 173.279 3.747C172.775 4.089 172.307 4.386 171.875 4.638H170.039V4.287ZM180.854 21.27C180.062 21.27 179.342 21.108 178.694 20.784C178.064 20.46 177.56 19.974 177.182 19.326C176.804 18.678 176.615 17.859 176.615 16.869C176.615 15.393 177.11 14.313 178.1 13.629C179.108 12.927 180.629 12.54 182.663 12.468L184.877 12.387V10.902C184.877 10.236 184.823 9.678 184.715 9.228C184.607 8.778 184.418 8.436 184.148 8.202C183.878 7.95 183.5 7.824 183.014 7.824C182.546 7.824 182.177 7.941 181.907 8.175C181.637 8.409 181.439 8.742 181.313 9.174C181.205 9.606 181.151 10.128 181.151 10.74C180.017 10.74 179.162 10.605 178.586 10.335C178.028 10.047 177.749 9.579 177.749 8.931C177.749 8.265 178.001 7.734 178.505 7.338C179.009 6.924 179.684 6.627 180.53 6.447C181.376 6.267 182.303 6.177 183.311 6.177C185.201 6.177 186.614 6.519 187.55 7.203C188.504 7.887 188.981 9.075 188.981 10.767V17.652C188.981 18.156 189.035 18.543 189.143 18.813C189.251 19.083 189.422 19.281 189.656 19.407C189.89 19.515 190.205 19.569 190.601 19.569H190.709V21H185.687L185.12 19.137H184.877C184.481 19.623 184.103 20.028 183.743 20.352C183.401 20.658 183.005 20.883 182.555 21.027C182.105 21.189 181.538 21.27 180.854 21.27ZM182.339 19.299C182.861 19.299 183.311 19.155 183.689 18.867C184.067 18.579 184.355 18.183 184.553 17.679C184.769 17.157 184.877 16.545 184.877 15.843V13.818L183.662 13.899C182.942 13.935 182.375 14.079 181.961 14.331C181.547 14.565 181.25 14.907 181.07 15.357C180.89 15.789 180.8 16.329 180.8 16.977C180.8 17.481 180.854 17.913 180.962 18.273C181.088 18.615 181.259 18.876 181.475 19.056C181.709 19.218 181.997 19.299 182.339 19.299ZM196.287 21.27C195.027 21.27 194.01 21.144 193.236 20.892C192.462 20.622 191.895 20.262 191.535 19.812C191.175 19.344 190.995 18.804 190.995 18.192C190.995 17.688 191.112 17.292 191.346 17.004C191.58 16.698 191.877 16.491 192.237 16.383C192.597 16.257 192.975 16.194 193.371 16.194C193.371 17.31 193.623 18.165 194.127 18.759C194.649 19.335 195.405 19.623 196.395 19.623C197.313 19.623 197.979 19.443 198.393 19.083C198.807 18.705 199.014 18.246 199.014 17.706C199.014 17.31 198.906 16.986 198.69 16.734C198.474 16.464 198.123 16.212 197.637 15.978C197.169 15.744 196.539 15.492 195.747 15.222C194.721 14.862 193.866 14.484 193.182 14.088C192.516 13.692 192.012 13.215 191.67 12.657C191.346 12.081 191.184 11.361 191.184 10.497C191.184 9.057 191.715 7.986 192.777 7.284C193.839 6.564 195.243 6.204 196.989 6.204C198.069 6.204 198.951 6.33 199.635 6.582C200.319 6.816 200.814 7.131 201.12 7.527C201.444 7.923 201.606 8.337 201.606 8.769C201.606 9.345 201.399 9.795 200.985 10.119C200.571 10.425 199.941 10.578 199.095 10.578C199.095 9.696 198.861 9.012 198.393 8.526C197.943 8.04 197.34 7.797 196.584 7.797C195.882 7.797 195.342 7.95 194.964 8.256C194.586 8.544 194.397 8.949 194.397 9.471C194.397 10.065 194.631 10.524 195.099 10.848C195.567 11.172 196.422 11.55 197.664 11.982C198.636 12.306 199.455 12.666 200.121 13.062C200.805 13.44 201.318 13.908 201.66 14.466C202.02 15.024 202.2 15.735 202.2 16.599C202.2 18.057 201.687 19.2 200.661 20.028C199.635 20.856 198.177 21.27 196.287 21.27ZM202.833 23.754C203.373 23.556 203.814 23.358 204.156 23.16C204.516 22.962 204.777 22.737 204.939 22.485C205.119 22.251 205.209 21.972 205.209 21.648C205.209 21.378 205.11 21.171 204.912 21.027C204.714 20.901 204.48 20.766 204.21 20.622C203.958 20.478 203.733 20.271 203.535 20.001C203.337 19.713 203.238 19.299 203.238 18.759C203.238 18.129 203.436 17.661 203.832 17.355C204.246 17.049 204.732 16.896 205.29 16.896C206.046 16.896 206.631 17.166 207.045 17.706C207.459 18.228 207.666 18.948 207.666 19.866C207.666 21.018 207.297 22.071 206.559 23.025C205.839 23.979 204.597 24.69 202.833 25.158V23.754ZM214.354 21V19.569H215.029C215.389 19.569 215.704 19.533 215.974 19.461C216.262 19.371 216.478 19.2 216.622 18.948C216.784 18.696 216.865 18.318 216.865 17.814V4.8C216.865 4.314 216.784 3.954 216.622 3.72C216.478 3.486 216.271 3.333 216.001 3.261C215.749 3.189 215.47 3.153 215.164 3.153H214.354V1.722H220.375L229.879 15.168V4.8C229.879 4.35 229.798 4.008 229.636 3.774C229.492 3.54 229.294 3.378 229.042 3.288C228.79 3.198 228.511 3.153 228.205 3.153H227.395V1.722H234.442V3.153H233.605C233.281 3.153 232.984 3.207 232.714 3.315C232.462 3.405 232.264 3.576 232.12 3.828C231.976 4.08 231.904 4.44 231.904 4.908V21H229.42L218.89 6.123V17.814C218.89 18.318 218.953 18.696 219.079 18.948C219.223 19.2 219.421 19.371 219.673 19.461C219.925 19.533 220.231 19.569 220.591 19.569H221.401V21H214.354ZM241.654 21.27C239.35 21.27 237.604 20.622 236.416 19.326C235.246 18.012 234.661 16.185 234.661 13.845C234.661 11.307 235.246 9.399 236.416 8.121C237.586 6.825 239.233 6.177 241.357 6.177C243.319 6.177 244.858 6.726 245.974 7.824C247.108 8.922 247.675 10.542 247.675 12.684V14.061H238.819C238.855 15.861 239.188 17.175 239.818 18.003C240.466 18.831 241.393 19.245 242.599 19.245C243.517 19.245 244.273 19.029 244.867 18.597C245.461 18.165 245.911 17.634 246.217 17.004C246.469 17.076 246.685 17.22 246.865 17.436C247.045 17.634 247.135 17.886 247.135 18.192C247.135 18.66 246.946 19.137 246.568 19.623C246.19 20.091 245.596 20.487 244.786 20.811C243.994 21.117 242.95 21.27 241.654 21.27ZM243.544 12.333C243.544 10.965 243.382 9.894 243.058 9.12C242.734 8.328 242.185 7.932 241.411 7.932C240.655 7.932 240.052 8.31 239.602 9.066C239.152 9.822 238.909 10.911 238.873 12.333H243.544ZM254.486 21.27C252.92 21.27 251.768 20.838 251.03 19.974C250.31 19.11 249.95 17.76 249.95 15.924V9.876C249.95 9.354 249.887 8.958 249.761 8.688C249.653 8.4 249.464 8.211 249.194 8.121C248.942 8.013 248.591 7.959 248.141 7.959H248.06V6.528H254.054V15.168C254.054 15.924 254.117 16.59 254.243 17.166C254.369 17.742 254.576 18.192 254.864 18.516C255.17 18.822 255.584 18.975 256.106 18.975C256.682 18.975 257.15 18.813 257.51 18.489C257.888 18.147 258.158 17.67 258.32 17.058C258.482 16.428 258.563 15.699 258.563 14.871V9.687C258.563 9.165 258.482 8.787 258.32 8.553C258.176 8.301 257.969 8.139 257.699 8.067C257.447 7.995 257.141 7.959 256.781 7.959H256.7V6.528H262.667V17.868C262.667 18.372 262.739 18.75 262.883 19.002C263.045 19.254 263.261 19.416 263.531 19.488C263.819 19.542 264.134 19.569 264.476 19.569H264.692V21H259.319L258.725 19.083H258.59C258.122 19.857 257.546 20.415 256.862 20.757C256.196 21.099 255.404 21.27 254.486 21.27ZM264.422 21V19.569H264.638C265.052 19.569 265.394 19.533 265.664 19.461C265.952 19.371 266.177 19.191 266.339 18.921C266.501 18.651 266.582 18.246 266.582 17.706V9.633C266.582 9.129 266.501 8.751 266.339 8.499C266.177 8.247 265.952 8.085 265.664 8.013C265.376 7.923 265.034 7.878 264.638 7.878H264.557V6.528H270.227L270.578 8.445H270.713C271.145 7.689 271.685 7.122 272.333 6.744C272.999 6.366 273.89 6.177 275.006 6.177C275.654 6.177 276.23 6.258 276.734 6.42C277.238 6.582 277.679 6.825 278.057 7.149C278.435 7.473 278.723 7.905 278.921 8.445H279.083C279.497 7.689 280.055 7.122 280.757 6.744C281.477 6.366 282.35 6.177 283.376 6.177C284.816 6.177 285.932 6.591 286.724 7.419C287.516 8.229 287.912 9.552 287.912 11.388V17.652C287.912 18.21 287.975 18.624 288.101 18.894C288.245 19.164 288.452 19.344 288.722 19.434C288.992 19.524 289.325 19.569 289.721 19.569H289.829V21H283.808V12.117C283.808 10.965 283.646 10.074 283.322 9.444C282.998 8.796 282.44 8.472 281.648 8.472C281.09 8.472 280.64 8.652 280.298 9.012C279.956 9.354 279.704 9.822 279.542 10.416C279.38 10.992 279.299 11.631 279.299 12.333V17.652C279.299 18.21 279.362 18.624 279.488 18.894C279.632 19.164 279.839 19.344 280.109 19.434C280.379 19.524 280.712 19.569 281.108 19.569H281.189V21H275.195V12.117C275.195 10.965 275.042 10.074 274.736 9.444C274.43 8.796 273.881 8.472 273.089 8.472C272.495 8.472 272.018 8.67 271.658 9.066C271.316 9.444 271.064 9.957 270.902 10.605C270.758 11.235 270.686 11.919 270.686 12.657V17.814C270.686 18.318 270.767 18.696 270.929 18.948C271.091 19.182 271.316 19.344 271.604 19.434C271.892 19.524 272.234 19.569 272.63 19.569H272.711V21H264.422ZM294.482 21.27C293.69 21.27 292.97 21.108 292.322 20.784C291.692 20.46 291.188 19.974 290.81 19.326C290.432 18.678 290.243 17.859 290.243 16.869C290.243 15.393 290.738 14.313 291.728 13.629C292.736 12.927 294.257 12.54 296.291 12.468L298.505 12.387V10.902C298.505 10.236 298.451 9.678 298.343 9.228C298.235 8.778 298.046 8.436 297.776 8.202C297.506 7.95 297.128 7.824 296.642 7.824C296.174 7.824 295.805 7.941 295.535 8.175C295.265 8.409 295.067 8.742 294.941 9.174C294.833 9.606 294.779 10.128 294.779 10.74C293.645 10.74 292.79 10.605 292.214 10.335C291.656 10.047 291.377 9.579 291.377 8.931C291.377 8.265 291.629 7.734 292.133 7.338C292.637 6.924 293.312 6.627 294.158 6.447C295.004 6.267 295.931 6.177 296.939 6.177C298.829 6.177 300.242 6.519 301.178 7.203C302.132 7.887 302.609 9.075 302.609 10.767V17.652C302.609 18.156 302.663 18.543 302.771 18.813C302.879 19.083 303.05 19.281 303.284 19.407C303.518 19.515 303.833 19.569 304.229 19.569H304.337V21H299.315L298.748 19.137H298.505C298.109 19.623 297.731 20.028 297.371 20.352C297.029 20.658 296.633 20.883 296.183 21.027C295.733 21.189 295.166 21.27 294.482 21.27ZM295.967 19.299C296.489 19.299 296.939 19.155 297.317 18.867C297.695 18.579 297.983 18.183 298.181 17.679C298.397 17.157 298.505 16.545 298.505 15.843V13.818L297.29 13.899C296.57 13.935 296.003 14.079 295.589 14.331C295.175 14.565 294.878 14.907 294.698 15.357C294.518 15.789 294.428 16.329 294.428 16.977C294.428 17.481 294.482 17.913 294.59 18.273C294.716 18.615 294.887 18.876 295.103 19.056C295.337 19.218 295.625 19.299 295.967 19.299ZM295.184 4.287C295.454 3.945 295.751 3.54 296.075 3.072C296.417 2.604 296.741 2.127 297.047 1.641C297.371 1.155 297.623 0.713999 297.803 0.317999H302.042V0.587999C301.88 0.821999 301.61 1.119 301.232 1.479C300.854 1.839 300.413 2.217 299.909 2.613C299.423 3.009 298.928 3.387 298.424 3.747C297.92 4.089 297.452 4.386 297.02 4.638H295.184V4.287ZM310.59 21.27C309.204 21.27 308.142 20.955 307.404 20.325C306.684 19.677 306.324 18.57 306.324 17.004V8.364H304.299V6.987C304.875 6.987 305.388 6.879 305.838 6.663C306.306 6.429 306.675 6.159 306.945 5.853C307.215 5.565 307.458 5.205 307.674 4.773C307.89 4.323 308.061 3.792 308.187 3.18H310.428V6.528H313.884V8.364H310.428V16.734C310.428 17.526 310.563 18.12 310.833 18.516C311.121 18.894 311.58 19.083 312.21 19.083C312.552 19.083 312.885 19.056 313.209 19.002C313.533 18.948 313.839 18.894 314.127 18.84V20.595C313.839 20.721 313.38 20.865 312.75 21.027C312.138 21.189 311.418 21.27 310.59 21.27ZM313.648 21V19.569H313.972C314.332 19.569 314.656 19.515 314.944 19.407C315.232 19.299 315.457 19.11 315.619 18.84C315.799 18.552 315.889 18.156 315.889 17.652V9.768C315.889 9.282 315.799 8.913 315.619 8.661C315.439 8.391 315.205 8.211 314.917 8.121C314.647 8.013 314.332 7.959 313.972 7.959H313.648V6.528H319.993V17.652C319.993 18.156 320.074 18.552 320.236 18.84C320.416 19.11 320.65 19.299 320.938 19.407C321.226 19.515 321.55 19.569 321.91 19.569H322.234V21H313.648ZM317.806 4.098C317.158 4.098 316.609 3.936 316.159 3.612C315.727 3.288 315.511 2.802 315.511 2.154C315.511 1.47 315.727 0.974999 316.159 0.668999C316.609 0.362999 317.158 0.209999 317.806 0.209999C318.436 0.209999 318.976 0.362999 319.426 0.668999C319.894 0.974999 320.128 1.47 320.128 2.154C320.128 2.802 319.894 3.288 319.426 3.612C318.976 3.936 318.436 4.098 317.806 4.098ZM329.162 21.27C327.848 21.27 326.687 21.036 325.679 20.568C324.671 20.082 323.879 19.299 323.303 18.219C322.745 17.121 322.466 15.654 322.466 13.818C322.466 11.874 322.754 10.353 323.33 9.255C323.924 8.139 324.716 7.347 325.706 6.879C326.714 6.411 327.839 6.177 329.081 6.177C330.251 6.177 331.232 6.303 332.024 6.555C332.816 6.807 333.41 7.149 333.806 7.581C334.22 7.995 334.427 8.472 334.427 9.012C334.427 9.39 334.328 9.759 334.13 10.119C333.95 10.479 333.608 10.767 333.104 10.983C332.6 11.199 331.88 11.307 330.944 11.307C330.944 10.677 330.89 10.101 330.782 9.579C330.674 9.057 330.494 8.634 330.242 8.31C329.99 7.986 329.639 7.824 329.189 7.824C328.667 7.824 328.217 8.004 327.839 8.364C327.461 8.706 327.164 9.309 326.948 10.173C326.732 11.037 326.624 12.243 326.624 13.791C326.624 14.997 326.732 16.005 326.948 16.815C327.182 17.625 327.533 18.237 328.001 18.651C328.469 19.047 329.081 19.245 329.837 19.245C330.467 19.245 331.034 19.155 331.538 18.975C332.06 18.777 332.51 18.507 332.888 18.165C333.266 17.823 333.554 17.454 333.752 17.058C333.986 17.184 334.148 17.364 334.238 17.598C334.346 17.814 334.4 18.048 334.4 18.3C334.4 18.75 334.211 19.209 333.833 19.677C333.473 20.127 332.906 20.505 332.132 20.811C331.376 21.117 330.386 21.27 329.162 21.27ZM342.185 21.27C340.025 21.27 338.324 20.649 337.082 19.407C335.84 18.147 335.219 16.248 335.219 13.71C335.219 11.172 335.813 9.282 337.001 8.04C338.189 6.798 339.944 6.177 342.266 6.177C344.426 6.177 346.127 6.798 347.369 8.04C348.611 9.282 349.232 11.172 349.232 13.71C349.232 16.248 348.638 18.147 347.45 19.407C346.262 20.649 344.507 21.27 342.185 21.27ZM342.239 19.569C342.923 19.569 343.472 19.353 343.886 18.921C344.3 18.471 344.597 17.805 344.777 16.923C344.957 16.041 345.047 14.97 345.047 13.71C345.047 11.766 344.831 10.317 344.399 9.363C343.967 8.391 343.238 7.905 342.212 7.905C341.168 7.905 340.439 8.391 340.025 9.363C339.611 10.317 339.404 11.766 339.404 13.71C339.404 15.636 339.611 17.094 340.025 18.084C340.457 19.074 341.195 19.569 342.239 19.569ZM355.233 21.27C353.973 21.27 352.956 21.144 352.182 20.892C351.408 20.622 350.841 20.262 350.481 19.812C350.121 19.344 349.941 18.804 349.941 18.192C349.941 17.688 350.058 17.292 350.292 17.004C350.526 16.698 350.823 16.491 351.183 16.383C351.543 16.257 351.921 16.194 352.317 16.194C352.317 17.31 352.569 18.165 353.073 18.759C353.595 19.335 354.351 19.623 355.341 19.623C356.259 19.623 356.925 19.443 357.339 19.083C357.753 18.705 357.96 18.246 357.96 17.706C357.96 17.31 357.852 16.986 357.636 16.734C357.42 16.464 357.069 16.212 356.583 15.978C356.115 15.744 355.485 15.492 354.693 15.222C353.667 14.862 352.812 14.484 352.128 14.088C351.462 13.692 350.958 13.215 350.616 12.657C350.292 12.081 350.13 11.361 350.13 10.497C350.13 9.057 350.661 7.986 351.723 7.284C352.785 6.564 354.189 6.204 355.935 6.204C357.015 6.204 357.897 6.33 358.581 6.582C359.265 6.816 359.76 7.131 360.066 7.527C360.39 7.923 360.552 8.337 360.552 8.769C360.552 9.345 360.345 9.795 359.931 10.119C359.517 10.425 358.887 10.578 358.041 10.578C358.041 9.696 357.807 9.012 357.339 8.526C356.889 8.04 356.286 7.797 355.53 7.797C354.828 7.797 354.288 7.95 353.91 8.256C353.532 8.544 353.343 8.949 353.343 9.471C353.343 10.065 353.577 10.524 354.045 10.848C354.513 11.172 355.368 11.55 356.61 11.982C357.582 12.306 358.401 12.666 359.067 13.062C359.751 13.44 360.264 13.908 360.606 14.466C360.966 15.024 361.146 15.735 361.146 16.599C361.146 18.057 360.633 19.2 359.607 20.028C358.581 20.856 357.123 21.27 355.233 21.27ZM366.822 25.617C367.758 25.617 368.559 25.5 369.225 25.266C369.891 25.05 370.449 24.735 370.899 24.321C371.349 23.925 371.718 23.457 372.006 22.917C372.312 22.377 372.573 21.783 372.789 21.135L367.929 9.255C367.785 8.877 367.632 8.598 367.47 8.418C367.326 8.238 367.155 8.121 366.957 8.067C366.759 7.995 366.507 7.959 366.201 7.959H366.093V6.528H373.869V7.959H373.761C373.203 7.959 372.798 8.049 372.546 8.229C372.294 8.391 372.168 8.652 372.168 9.012C372.168 9.174 372.186 9.354 372.222 9.552C372.276 9.732 372.339 9.921 372.411 10.119L374.085 14.601C374.229 14.961 374.355 15.348 374.463 15.762C374.589 16.158 374.697 16.536 374.787 16.896C374.877 17.238 374.94 17.544 374.976 17.814C375.066 17.364 375.174 16.941 375.3 16.545C375.426 16.131 375.543 15.753 375.651 15.411L377.352 10.362C377.424 10.182 377.487 9.957 377.541 9.687C377.595 9.417 377.622 9.201 377.622 9.039C377.622 8.643 377.487 8.373 377.217 8.229C376.965 8.067 376.569 7.977 376.029 7.959H375.894V6.528H381.726V7.959H381.618C381.294 7.977 381.006 8.049 380.754 8.175C380.52 8.283 380.313 8.481 380.133 8.769C379.953 9.057 379.764 9.444 379.566 9.93L375.489 21C375.039 22.242 374.598 23.259 374.166 24.051C373.752 24.861 373.266 25.491 372.708 25.941C372.15 26.391 371.439 26.706 370.575 26.886C369.711 27.084 368.613 27.183 367.281 27.183H366.822V25.617ZM396.41 21.27C394.358 21.27 392.657 20.856 391.307 20.028C389.957 19.2 388.94 18.039 388.256 16.545C387.59 15.051 387.257 13.305 387.257 11.307C387.257 9.309 387.59 7.572 388.256 6.096C388.94 4.62 389.957 3.477 391.307 2.667C392.675 1.839 394.385 1.425 396.437 1.425C398.399 1.425 400.055 1.839 401.405 2.667C402.755 3.477 403.781 4.629 404.483 6.123C405.185 7.599 405.536 9.336 405.536 11.334C405.536 13.332 405.185 15.078 404.483 16.572C403.781 18.048 402.746 19.2 401.378 20.028C400.028 20.856 398.372 21.27 396.41 21.27ZM396.41 19.515C397.544 19.515 398.444 19.191 399.11 18.543C399.776 17.895 400.253 16.968 400.541 15.762C400.847 14.538 401 13.062 401 11.334C401 9.606 400.847 8.139 400.541 6.933C400.253 5.709 399.776 4.782 399.11 4.152C398.444 3.504 397.553 3.18 396.437 3.18C394.745 3.18 393.548 3.891 392.846 5.313C392.144 6.735 391.793 8.742 391.793 11.334C391.793 13.062 391.946 14.538 392.252 15.762C392.558 16.968 393.044 17.895 393.71 18.543C394.394 19.191 395.294 19.515 396.41 19.515ZM412.397 21.27C411.011 21.27 409.949 20.955 409.211 20.325C408.491 19.677 408.131 18.57 408.131 17.004V8.364H406.106V6.987C406.682 6.987 407.195 6.879 407.645 6.663C408.113 6.429 408.482 6.159 408.752 5.853C409.022 5.565 409.265 5.205 409.481 4.773C409.697 4.323 409.868 3.792 409.994 3.18H412.235V6.528H415.691V8.364H412.235V16.734C412.235 17.526 412.37 18.12 412.64 18.516C412.928 18.894 413.387 19.083 414.017 19.083C414.359 19.083 414.692 19.056 415.016 19.002C415.34 18.948 415.646 18.894 415.934 18.84V20.595C415.646 20.721 415.187 20.865 414.557 21.027C413.945 21.189 413.225 21.27 412.397 21.27ZM415.536 21V19.569H415.644C416.058 19.569 416.409 19.524 416.697 19.434C417.003 19.344 417.237 19.164 417.399 18.894C417.579 18.606 417.669 18.183 417.669 17.625V9.795C417.669 9.255 417.588 8.859 417.426 8.607C417.282 8.337 417.066 8.166 416.778 8.094C416.49 8.004 416.148 7.959 415.752 7.959H415.671V6.528H421.071L421.611 9.12H421.746C422.016 8.472 422.322 7.932 422.664 7.5C423.006 7.068 423.42 6.744 423.906 6.528C424.41 6.312 425.031 6.204 425.769 6.204C426.795 6.204 427.542 6.429 428.01 6.879C428.478 7.311 428.712 7.878 428.712 8.58C428.712 9.408 428.415 10.02 427.821 10.416C427.245 10.812 426.417 11.01 425.337 11.01C425.337 10.506 425.301 10.092 425.229 9.768C425.157 9.444 425.031 9.201 424.851 9.039C424.671 8.859 424.41 8.769 424.068 8.769C423.654 8.769 423.303 8.922 423.015 9.228C422.745 9.534 422.52 9.93 422.34 10.416C422.16 10.902 422.025 11.433 421.935 12.009C421.845 12.567 421.8 13.107 421.8 13.629V17.76C421.8 18.282 421.881 18.678 422.043 18.948C422.205 19.2 422.43 19.371 422.718 19.461C423.006 19.533 423.33 19.569 423.69 19.569H424.554V21H415.536ZM435.879 21.27C433.719 21.27 432.018 20.649 430.776 19.407C429.534 18.147 428.913 16.248 428.913 13.71C428.913 11.172 429.507 9.282 430.695 8.04C431.883 6.798 433.638 6.177 435.96 6.177C438.12 6.177 439.821 6.798 441.063 8.04C442.305 9.282 442.926 11.172 442.926 13.71C442.926 16.248 442.332 18.147 441.144 19.407C439.956 20.649 438.201 21.27 435.879 21.27ZM435.933 19.569C436.617 19.569 437.166 19.353 437.58 18.921C437.994 18.471 438.291 17.805 438.471 16.923C438.651 16.041 438.741 14.97 438.741 13.71C438.741 11.766 438.525 10.317 438.093 9.363C437.661 8.391 436.932 7.905 435.906 7.905C434.862 7.905 434.133 8.391 433.719 9.363C433.305 10.317 433.098 11.766 433.098 13.71C433.098 15.636 433.305 17.094 433.719 18.084C434.151 19.074 434.889 19.569 435.933 19.569ZM448.927 21.27C447.667 21.27 446.65 21.144 445.876 20.892C445.102 20.622 444.535 20.262 444.175 19.812C443.815 19.344 443.635 18.804 443.635 18.192C443.635 17.688 443.752 17.292 443.986 17.004C444.22 16.698 444.517 16.491 444.877 16.383C445.237 16.257 445.615 16.194 446.011 16.194C446.011 17.31 446.263 18.165 446.767 18.759C447.289 19.335 448.045 19.623 449.035 19.623C449.953 19.623 450.619 19.443 451.033 19.083C451.447 18.705 451.654 18.246 451.654 17.706C451.654 17.31 451.546 16.986 451.33 16.734C451.114 16.464 450.763 16.212 450.277 15.978C449.809 15.744 449.179 15.492 448.387 15.222C447.361 14.862 446.506 14.484 445.822 14.088C445.156 13.692 444.652 13.215 444.31 12.657C443.986 12.081 443.824 11.361 443.824 10.497C443.824 9.057 444.355 7.986 445.417 7.284C446.479 6.564 447.883 6.204 449.629 6.204C450.709 6.204 451.591 6.33 452.275 6.582C452.959 6.816 453.454 7.131 453.76 7.527C454.084 7.923 454.246 8.337 454.246 8.769C454.246 9.345 454.039 9.795 453.625 10.119C453.211 10.425 452.581 10.578 451.735 10.578C451.735 9.696 451.501 9.012 451.033 8.526C450.583 8.04 449.98 7.797 449.224 7.797C448.522 7.797 447.982 7.95 447.604 8.256C447.226 8.544 447.037 8.949 447.037 9.471C447.037 10.065 447.271 10.524 447.739 10.848C448.207 11.172 449.062 11.55 450.304 11.982C451.276 12.306 452.095 12.666 452.761 13.062C453.445 13.44 453.958 13.908 454.3 14.466C454.66 15.024 454.84 15.735 454.84 16.599C454.84 18.057 454.327 19.2 453.301 20.028C452.275 20.856 450.817 21.27 448.927 21.27Z" fill="white"/>
</svg>
