<svg width="540" height="62" viewBox="0 0 540 62" fill="none" xmlns="http://www.w3.org/2000/svg">
<path d="M11.3516 41.5625C10.5234 42.0312 9.72656 42.4219 8.96094 42.7344C8.21094 43.0469 7.50781 43.2969 6.85156 43.4844C6.19531 43.6719 5.60156 43.8047 5.07031 43.8828C4.55469 43.9609 4.10938 44 3.73438 44H0.21875L2.77344 42.5703C3.03906 42.2266 3.29688 41.8828 3.54688 41.5391C3.79688 41.1953 4.00781 40.875 4.17969 40.5781C4.38281 40.25 4.57031 39.9219 4.74219 39.5938C5.22656 38.6094 5.94531 37.0156 6.89844 34.8125C7.28906 33.875 7.75 32.7578 8.28125 31.4609C8.82812 30.1641 9.45312 28.6562 10.1562 26.9375C10.8594 25.2188 11.6406 23.2656 12.5 21.0781C13.3594 18.8906 14.3203 16.4375 15.3828 13.7188L19.4609 9.96875L28.6484 41.1172C29.3047 41.2891 29.9297 41.3984 30.5234 41.4453C31.1328 41.4922 31.7031 41.5156 32.2344 41.5156C32.5156 41.5156 32.7734 41.5156 33.0078 41.5156C33.2422 41.5 33.4453 41.4844 33.6172 41.4688C33.8047 41.4531 33.9844 41.4297 34.1562 41.3984C33.25 41.8359 32.4609 42.2188 31.7891 42.5469C31.1172 42.8594 30.5156 43.125 29.9844 43.3438C29.4688 43.5625 28.9844 43.7266 28.5312 43.8359C28.0938 43.9453 27.6484 44 27.1953 44H23.4453L24.6641 43.2266L20.9141 30.8047C20.4609 30.9297 19.9375 31.0547 19.3438 31.1797C18.75 31.2891 18.0391 31.3906 17.2109 31.4844C16.3984 31.5781 15.4453 31.6641 14.3516 31.7422C13.2734 31.8203 12.0234 31.8906 10.6016 31.9531C9.94531 33.3438 9.34375 34.5781 8.79688 35.6562C8.25 36.7344 7.75781 37.6719 7.32031 38.4688C6.88281 39.2656 6.49219 39.9375 6.14844 40.4844C5.82031 41.0312 5.53906 41.4688 5.30469 41.7969C5.57031 41.8438 5.86719 41.8828 6.19531 41.9141C6.52344 41.9297 6.85156 41.9375 7.17969 41.9375C7.67969 41.9375 8.17188 41.9219 8.65625 41.8906C9.15625 41.8438 9.60938 41.7969 10.0156 41.75C10.4844 41.6875 10.9297 41.625 11.3516 41.5625ZM14.6328 29.1641C16.7422 29.1641 18.6562 29.1172 20.375 29.0234L16.7891 17.1172C15.8203 19.6016 14.9297 21.8203 14.1172 23.7734C13.3203 25.7266 12.5625 27.5234 11.8438 29.1641H14.6328ZM50.0234 21.3828C49.8672 21.5547 49.6406 21.7812 49.3438 22.0625C49.0781 22.2969 48.7109 22.6016 48.2422 22.9766C47.7891 23.3359 47.1875 23.7656 46.4375 24.2656C46.625 24.0938 46.7266 23.9375 46.7422 23.7969C46.7578 23.6562 46.7422 23.5312 46.6953 23.4219C46.6328 23.2969 46.5312 23.1797 46.3906 23.0703C46.1406 22.9297 45.7344 22.8203 45.1719 22.7422C44.625 22.6484 44.0391 22.6016 43.4141 22.6016C42.8828 22.6016 42.3828 22.6406 41.9141 22.7188C41.4453 22.7812 41.0625 22.8984 40.7656 23.0703C40.4844 23.2422 40.1797 23.6562 39.8516 24.3125C39.5391 24.9688 39.25 25.7656 38.9844 26.7031C38.7188 27.6406 38.5 28.6719 38.3281 29.7969C38.1562 30.9062 38.0703 32.0078 38.0703 33.1016C38.0703 33.6172 38.0938 34.1797 38.1406 34.7891C38.2031 35.3984 38.2969 36.0078 38.4219 36.6172C38.5469 37.2109 38.7188 37.7891 38.9375 38.3516C39.1562 38.8984 39.4297 39.3828 39.7578 39.8047C40.0859 40.2266 40.4688 40.5547 40.9062 40.7891C41.3438 41.0234 41.8594 41.1172 42.4531 41.0703C42.8281 41.0078 43.25 40.8438 43.7188 40.5781C44.1094 40.3594 44.5625 40.0234 45.0781 39.5703C45.6094 39.1016 46.1719 38.4531 46.7656 37.625L48.7344 37.0391C47.9062 37.9766 47.1641 38.7812 46.5078 39.4531C45.8516 40.1094 45.2969 40.6484 44.8438 41.0703C44.3125 41.5703 43.8359 41.9688 43.4141 42.2656C42.8984 42.625 42.4141 42.9531 41.9609 43.25C41.5078 43.5312 41.0625 43.7734 40.625 43.9766C40.2031 44.1641 39.7812 44.2969 39.3594 44.375C38.9375 44.4531 38.5078 44.4688 38.0703 44.4219C37.6953 44.3906 37.2891 44.1797 36.8516 43.7891C36.4297 43.3984 36.0312 42.8594 35.6562 42.1719C35.2812 41.4688 34.9688 40.625 34.7188 39.6406C34.4688 38.6562 34.3438 37.5469 34.3438 36.3125C34.3438 34.9688 34.4688 33.6094 34.7188 32.2344C34.9844 30.8594 35.375 29.5391 35.8906 28.2734C36.4062 26.9922 37.0625 25.8125 37.8594 24.7344C38.6562 23.6406 39.5938 22.7188 40.6719 21.9688C41.2344 21.5781 41.8438 21.2344 42.5 20.9375C43.1719 20.6406 43.8359 20.3984 44.4922 20.2109C45.1641 20.0234 45.8047 19.8906 46.4141 19.8125C47.0391 19.7344 47.5859 19.7031 48.0547 19.7188C48.9922 19.7656 49.625 19.9453 49.9531 20.2578C50.2969 20.5547 50.3203 20.9297 50.0234 21.3828ZM65.0234 37.1797C64.1953 38.1172 63.4297 38.9453 62.7266 39.6641C62.0391 40.3672 61.4297 40.9609 60.8984 41.4453C60.2734 42.0078 59.7109 42.4922 59.2109 42.8984C57.8359 43.9922 56.6406 44.5391 55.625 44.5391C55.0469 44.5391 54.5469 44.3828 54.125 44.0703C53.7188 43.7734 53.3672 43.3828 53.0703 42.8984C52.7734 42.4141 52.5312 41.8672 52.3438 41.2578C52.1562 40.6484 52.0078 40.0391 51.8984 39.4297C51.8047 38.8047 51.7344 38.2109 51.6875 37.6484C51.6562 37.0859 51.6406 36.6094 51.6406 36.2188C51.6406 35.1719 51.7578 34.0391 51.9922 32.8203C52.2422 31.6016 52.5938 30.3906 53.0469 29.1875C53.5156 27.9688 54.0859 26.8047 54.7578 25.6953C55.4297 24.5703 56.1953 23.5781 57.0547 22.7188C57.9297 21.8438 58.8828 21.1484 59.9141 20.6328C60.9609 20.1172 62.0859 19.8594 63.2891 19.8594C63.6172 19.8594 63.8906 19.9219 64.1094 20.0469C64.3281 20.1562 64.5078 20.3125 64.6484 20.5156C64.7891 20.7188 64.8828 20.9453 64.9297 21.1953C64.9922 21.4453 65.0234 21.7031 65.0234 21.9688C65.0234 22.6562 64.8672 23.3438 64.5547 24.0312C64.2422 24.7188 63.8203 25.3984 63.2891 26.0703C62.7734 26.7266 62.1797 27.375 61.5078 28.0156C60.8359 28.6406 60.1328 29.2422 59.3984 29.8203C58.6797 30.3828 57.9609 30.9141 57.2422 31.4141C56.5234 31.9141 55.8672 32.3672 55.2734 32.7734V33.2891C55.2734 33.6797 55.2891 34.1562 55.3203 34.7188C55.3672 35.2656 55.4375 35.8438 55.5312 36.4531C55.6406 37.0469 55.7812 37.6406 55.9531 38.2344C56.125 38.8281 56.3438 39.3594 56.6094 39.8281C56.875 40.2969 57.1875 40.6797 57.5469 40.9766C57.9219 41.2578 58.3516 41.3984 58.8359 41.3984C59.0547 41.3984 59.2812 41.3672 59.5156 41.3047C59.75 41.2266 59.9844 41.1016 60.2188 40.9297C60.625 40.6016 61.0859 40.1484 61.6016 39.5703C62.0391 39.0703 62.5469 38.4219 63.125 37.625C63.7031 36.8281 64.3359 35.8203 65.0234 34.6016V37.1797ZM60.6641 23.3516C60.4766 23.1328 60.2344 22.9922 59.9375 22.9297C59.6406 22.8672 59.3203 22.8828 58.9766 22.9766C58.6484 23.0703 58.3203 23.25 57.9922 23.5156C57.6797 23.7812 57.4141 24.1328 57.1953 24.5703C56.8828 25.1953 56.5391 26.0938 56.1641 27.2656C55.7891 28.4219 55.5234 29.7578 55.3672 31.2734C55.8672 30.9766 56.3828 30.6328 56.9141 30.2422C57.4453 29.8516 57.9531 29.4375 58.4375 29C58.9375 28.5625 59.3828 28.1094 59.7734 27.6406C60.1797 27.1562 60.4922 26.6719 60.7109 26.1875C60.9453 25.6875 61.0703 25.2031 61.0859 24.7344C61.1016 24.25 60.9609 23.7891 60.6641 23.3516ZM79.6484 36.7109L79.1328 38.6328C78.8672 38.8984 78.5391 39.2344 78.1484 39.6406C77.7734 40.0312 77.3516 40.4531 76.8828 40.9062C76.4297 41.3438 75.9531 41.7812 75.4531 42.2188C74.9531 42.6562 74.4609 43.0469 73.9766 43.3906C73.4922 43.7344 73.0234 44 72.5703 44.1875C72.1328 44.3906 71.7422 44.4688 71.3984 44.4219C70.8672 44.3438 70.4844 43.9609 70.25 43.2734C70.0312 42.5703 69.9219 41.4375 69.9219 39.875C69.9219 39.5938 69.9297 39.1406 69.9453 38.5156C69.9766 37.875 70.0078 37.1328 70.0391 36.2891C70.0859 35.4453 70.1328 34.5234 70.1797 33.5234C70.2422 32.5078 70.3047 31.4922 70.3672 30.4766C70.4297 29.4453 70.4922 28.4375 70.5547 27.4531C70.6328 26.4531 70.7109 25.5391 70.7891 24.7109C70.8359 24.1641 70.7266 23.7734 70.4609 23.5391C70.1953 23.2891 69.8672 23.1641 69.4766 23.1641C69.1484 23.1641 68.8047 23.2422 68.4453 23.3984C68.0859 23.5547 67.7578 23.7656 67.4609 24.0312C68.0859 23.4219 68.6406 22.9141 69.125 22.5078C69.6094 22.0859 70.0234 21.7422 70.3672 21.4766C70.7734 21.1797 71.1172 20.9297 71.3984 20.7266C71.7891 20.4922 72.1641 20.375 72.5234 20.375C72.8984 20.3594 73.2266 20.4453 73.5078 20.6328C73.8047 20.8203 74.0312 21.0938 74.1875 21.4531C74.3594 21.8125 74.4375 22.2422 74.4219 22.7422C74.4062 23.0859 74.3672 23.6406 74.3047 24.4062C74.2578 25.1562 74.1953 26.0156 74.1172 26.9844C74.0547 27.9531 73.9766 28.9766 73.8828 30.0547C73.8047 31.1328 73.7266 32.1719 73.6484 33.1719C73.5859 34.1719 73.5234 35.0781 73.4609 35.8906C73.4141 36.7031 73.3828 37.3281 73.3672 37.7656C73.3359 38.6562 73.4297 39.375 73.6484 39.9219C73.8828 40.4688 74.25 40.7422 74.75 40.7422C75.125 40.7422 75.5547 40.5781 76.0391 40.25C76.5391 39.9219 77.0312 39.5391 77.5156 39.1016C78 38.6641 78.4297 38.2188 78.8047 37.7656C79.1953 37.3125 79.4766 36.9609 79.6484 36.7109ZM75.6641 2.14062C75.6953 2.90625 75.6719 3.59375 75.5938 4.20312C75.5312 4.79687 75.4531 5.30469 75.3594 5.72656C75.25 6.22656 75.1172 6.66406 74.9609 7.03906C74.7734 7.41406 74.4844 7.82031 74.0938 8.25781C73.7656 8.63281 73.3125 9.07031 72.7344 9.57031C72.1719 10.0547 71.4375 10.5703 70.5312 11.1172C70.8281 10.5234 71.0625 9.89844 71.2344 9.24219C71.4062 8.57031 71.5391 7.95312 71.6328 7.39062C71.7422 6.73438 71.8125 6.08594 71.8438 5.44531L75.6641 2.14062ZM94.3906 36.2188L93.8984 38.6328C93.5391 38.9297 93.1172 39.3047 92.6328 39.7578C92.1641 40.1953 91.6484 40.6562 91.0859 41.1406C90.5391 41.625 89.9688 42.1016 89.375 42.5703C88.7812 43.0234 88.1875 43.4141 87.5938 43.7422C87 44.0547 86.4141 44.2734 85.8359 44.3984C85.2734 44.5391 84.75 44.5156 84.2656 44.3281C83.9531 44.2188 83.6797 44.0547 83.4453 43.8359C83.2266 43.6172 83.0391 43.3047 82.8828 42.8984C82.7422 42.4922 82.6328 41.9766 82.5547 41.3516C82.4766 40.7109 82.4375 39.9297 82.4375 39.0078C82.4375 36.2266 82.4922 33.5312 82.6016 30.9219C82.7266 28.2969 82.875 25.6953 83.0469 23.1172C82.3906 23.1641 81.7422 23.25 81.1016 23.375C80.4766 23.4844 79.9922 23.6719 79.6484 23.9375C80.6328 23.0625 81.4062 22.2578 81.9688 21.5234C82.5312 20.7734 82.9609 20.1094 83.2578 19.5312L83.5391 15.2422L87.5703 11.8906L87.0781 20.2812C87.4219 20.3125 87.7422 20.3281 88.0391 20.3281C88.3359 20.3281 88.625 20.3281 88.9062 20.3281C90.2656 20.3281 91.5234 20.2109 92.6797 19.9766C93.8516 19.7266 94.9766 19.3984 96.0547 18.9922C95.0547 19.7891 94.0938 20.4375 93.1719 20.9375C92.2656 21.4375 91.4219 21.8438 90.6406 22.1562C89.8594 22.4531 89.1484 22.6719 88.5078 22.8125C87.8672 22.9375 87.3281 23.0234 86.8906 23.0703C86.7344 25.8828 86.6094 28.1641 86.5156 29.9141C86.4375 31.6484 86.375 32.9922 86.3281 33.9453C86.2656 35.0703 86.2344 35.8906 86.2344 36.4062C86.1875 37.1719 86.2344 37.8516 86.375 38.4453C86.5156 39.0391 86.7266 39.5312 87.0078 39.9219C87.3047 40.3125 87.6562 40.5859 88.0625 40.7422C88.4844 40.8984 88.9453 40.9141 89.4453 40.7891C89.8359 40.6641 90.2891 40.4141 90.8047 40.0391C91.2422 39.7266 91.7578 39.2734 92.3516 38.6797C92.9609 38.0703 93.6406 37.25 94.3906 36.2188ZM79.6484 23.9375L79.5078 24.0312L79.6484 23.9375ZM109.508 37.1797C108.68 38.1172 107.914 38.9453 107.211 39.6641C106.523 40.3672 105.914 40.9609 105.383 41.4453C104.758 42.0078 104.195 42.4922 103.695 42.8984C102.32 43.9922 101.125 44.5391 100.109 44.5391C99.5312 44.5391 99.0312 44.3828 98.6094 44.0703C98.2031 43.7734 97.8516 43.3828 97.5547 42.8984C97.2578 42.4141 97.0156 41.8672 96.8281 41.2578C96.6406 40.6484 96.4922 40.0391 96.3828 39.4297C96.2891 38.8047 96.2188 38.2109 96.1719 37.6484C96.1406 37.0859 96.125 36.6094 96.125 36.2188C96.125 35.1719 96.2422 34.0391 96.4766 32.8203C96.7266 31.6016 97.0781 30.3906 97.5312 29.1875C98 27.9688 98.5703 26.8047 99.2422 25.6953C99.9141 24.5703 100.68 23.5781 101.539 22.7188C102.414 21.8438 103.367 21.1484 104.398 20.6328C105.445 20.1172 106.57 19.8594 107.773 19.8594C108.102 19.8594 108.375 19.9219 108.594 20.0469C108.812 20.1562 108.992 20.3125 109.133 20.5156C109.273 20.7188 109.367 20.9453 109.414 21.1953C109.477 21.4453 109.508 21.7031 109.508 21.9688C109.508 22.6562 109.352 23.3438 109.039 24.0312C108.727 24.7188 108.305 25.3984 107.773 26.0703C107.258 26.7266 106.664 27.375 105.992 28.0156C105.32 28.6406 104.617 29.2422 103.883 29.8203C103.164 30.3828 102.445 30.9141 101.727 31.4141C101.008 31.9141 100.352 32.3672 99.7578 32.7734V33.2891C99.7578 33.6797 99.7734 34.1562 99.8047 34.7188C99.8516 35.2656 99.9219 35.8438 100.016 36.4531C100.125 37.0469 100.266 37.6406 100.438 38.2344C100.609 38.8281 100.828 39.3594 101.094 39.8281C101.359 40.2969 101.672 40.6797 102.031 40.9766C102.406 41.2578 102.836 41.3984 103.32 41.3984C103.539 41.3984 103.766 41.3672 104 41.3047C104.234 41.2266 104.469 41.1016 104.703 40.9297C105.109 40.6016 105.57 40.1484 106.086 39.5703C106.523 39.0703 107.031 38.4219 107.609 37.625C108.188 36.8281 108.82 35.8203 109.508 34.6016V37.1797ZM105.148 23.3516C104.961 23.1328 104.719 22.9922 104.422 22.9297C104.125 22.8672 103.805 22.8828 103.461 22.9766C103.133 23.0703 102.805 23.25 102.477 23.5156C102.164 23.7812 101.898 24.1328 101.68 24.5703C101.367 25.1953 101.023 26.0938 100.648 27.2656C100.273 28.4219 100.008 29.7578 99.8516 31.2734C100.352 30.9766 100.867 30.6328 101.398 30.2422C101.93 29.8516 102.438 29.4375 102.922 29C103.422 28.5625 103.867 28.1094 104.258 27.6406C104.664 27.1562 104.977 26.6719 105.195 26.1875C105.43 25.6875 105.555 25.2031 105.57 24.7344C105.586 24.25 105.445 23.7891 105.148 23.3516ZM124.672 20.6328C124.594 20.8203 124.414 21.0547 124.133 21.3359C123.898 21.5859 123.547 21.9141 123.078 22.3203C122.625 22.7109 121.984 23.2031 121.156 23.7969C121.172 23.5312 121.133 23.3125 121.039 23.1406C120.961 22.9531 120.859 22.8125 120.734 22.7188C120.594 22.6094 120.438 22.5312 120.266 22.4844C119.266 22.2969 118.477 22.2969 117.898 22.4844C117.758 22.5469 117.648 22.7031 117.57 22.9531C117.508 23.1875 117.477 23.4844 117.477 23.8438C117.477 24.7031 117.633 25.4766 117.945 26.1641C118.273 26.8359 118.68 27.4688 119.164 28.0625C119.648 28.6406 120.172 29.1953 120.734 29.7266C121.297 30.2578 121.82 30.8047 122.305 31.3672C122.789 31.9141 123.188 32.4922 123.5 33.1016C123.828 33.7109 123.992 34.3828 123.992 35.1172C123.992 35.7422 123.859 36.3906 123.594 37.0625C123.344 37.7188 122.953 38.3203 122.422 38.8672C121.969 39.3359 121.477 39.8203 120.945 40.3203C120.43 40.8203 119.891 41.2969 119.328 41.75C118.781 42.2031 118.219 42.6172 117.641 42.9922C117.062 43.3672 116.492 43.6719 115.93 43.9062C114.977 44.25 114.062 44.4219 113.188 44.4219C112.594 44.4219 112.078 44.3359 111.641 44.1641C111.203 43.9922 110.938 43.7266 110.844 43.3672C110.766 43.0859 110.852 42.7422 111.102 42.3359C111.352 41.9141 111.664 41.5 112.039 41.0938C112.414 40.6719 112.805 40.2812 113.211 39.9219C113.633 39.5469 113.961 39.2578 114.195 39.0547C114.164 39.8047 114.336 40.3438 114.711 40.6719C115.102 40.9844 115.719 41.1641 116.562 41.2109C116.984 41.2422 117.43 41.2188 117.898 41.1406C118.367 41.0469 118.797 40.9141 119.188 40.7422C119.594 40.5547 119.922 40.3203 120.172 40.0391C120.438 39.7578 120.562 39.4297 120.547 39.0547C120.516 38.1797 120.328 37.3828 119.984 36.6641C119.656 35.9297 119.242 35.2422 118.742 34.6016C118.258 33.9453 117.734 33.3125 117.172 32.7031C116.625 32.0781 116.109 31.4453 115.625 30.8047C115.156 30.1641 114.758 29.4844 114.43 28.7656C114.117 28.0469 113.961 27.2656 113.961 26.4219C113.961 26.0625 114 25.7188 114.078 25.3906C114.156 25.0625 114.297 24.75 114.5 24.4531C114.859 23.9219 115.352 23.3672 115.977 22.7891C116.602 22.2109 117.266 21.6797 117.969 21.1953C118.672 20.7109 119.367 20.3047 120.055 19.9766C120.742 19.6328 121.336 19.4297 121.836 19.3672C122.32 19.3047 122.75 19.3047 123.125 19.3672C123.516 19.4141 123.836 19.5 124.086 19.625C124.336 19.75 124.508 19.9062 124.602 20.0938C124.711 20.2656 124.734 20.4453 124.672 20.6328ZM157.367 7.13281C156.289 11.9922 154.898 16.8125 153.195 21.5938C152.461 23.6406 151.625 25.7812 150.688 28.0156C149.766 30.2344 148.719 32.4609 147.547 34.6953C146.391 36.9297 145.117 39.125 143.727 41.2812C142.336 43.4219 140.82 45.4297 139.18 47.3047C141.133 44.2422 142.789 41.2812 144.148 38.4219C145.523 35.5469 146.664 32.8438 147.57 30.3125C148.492 27.7656 149.219 25.4219 149.75 23.2812C150.297 21.125 150.711 19.2344 150.992 17.6094C151.273 15.9844 151.461 14.6562 151.555 13.625C151.648 12.5938 151.719 11.9219 151.766 11.6094C151.828 11.1406 152.055 10.7734 152.445 10.5078C152.852 10.2422 153.328 9.97656 153.875 9.71094C154.422 9.44531 155.008 9.125 155.633 8.75C156.258 8.375 156.836 7.83594 157.367 7.13281ZM185.188 9.28906C184.453 9.77344 183.789 10.1875 183.195 10.5312C182.617 10.8594 182.062 11.1328 181.531 11.3516C181.453 14.1797 181.383 16.7109 181.32 18.9453C181.273 21.1797 181.227 23.1641 181.18 24.8984C181.148 26.6172 181.117 28.1094 181.086 29.375C181.07 30.625 181.055 31.6953 181.039 32.5859C180.992 34.6641 180.977 36.0859 180.992 36.8516C180.977 37.4297 180.914 37.9844 180.805 38.5156C180.711 38.9688 180.562 39.4531 180.359 39.9688C180.156 40.4688 179.875 40.8984 179.516 41.2578C180.453 41.2891 181.328 41.3047 182.141 41.3047C182.969 41.3047 183.758 41.3047 184.508 41.3047C186.648 41.3047 188.414 41.2734 189.805 41.2109C191.195 41.1484 192.305 41.0781 193.133 41C193.961 40.9062 194.547 40.8281 194.891 40.7656C195.234 40.6875 195.438 40.6328 195.5 40.6016C194.672 41.1641 193.984 41.6484 193.438 42.0547C192.891 42.4609 192.398 42.7969 191.961 43.0625C191.539 43.3125 191.117 43.5 190.695 43.625C190.289 43.75 189.812 43.8125 189.266 43.8125H185.656C184.641 43.8125 183.539 43.8203 182.352 43.8359C181.164 43.8359 180.031 43.8516 178.953 43.8828C177.875 43.8984 176.906 43.9375 176.047 44C175.203 44.0469 174.602 44.1094 174.242 44.1875C174.68 43.8125 175.078 43.4062 175.438 42.9688C175.797 42.5312 176.102 41.9922 176.352 41.3516C176.617 40.7109 176.82 39.9453 176.961 39.0547C177.102 38.1484 177.172 37.0625 177.172 35.7969V12.125C176.688 12.1719 176.102 12.2344 175.414 12.3125C174.727 12.3906 173.945 12.4922 173.07 12.6172C173.914 11.9297 174.672 11.4062 175.344 11.0469C176.031 10.6875 176.617 10.4219 177.102 10.25C177.664 10.0625 178.164 9.95312 178.602 9.92188C179.148 9.9375 179.75 9.92969 180.406 9.89844C181.078 9.86719 181.719 9.82812 182.328 9.78125C182.953 9.71875 183.523 9.64844 184.039 9.57031C184.555 9.47656 184.938 9.38281 185.188 9.28906ZM195.5 40.6016V40.5781C195.516 40.5625 195.531 40.5547 195.547 40.5547L195.5 40.6016ZM222.078 37.9531C221.328 38.6094 220.711 39.1641 220.227 39.6172C219.742 40.0547 219.344 40.4062 219.031 40.6719C218.672 40.9844 218.391 41.2422 218.188 41.4453C217.953 41.6797 217.633 41.9766 217.227 42.3359C216.836 42.6797 216.406 43.0156 215.938 43.3438C215.484 43.6719 215.016 43.9453 214.531 44.1641C214.062 44.3984 213.633 44.5 213.242 44.4688C212.602 44.4375 212.133 43.875 211.836 42.7812C211.555 41.6719 211.414 40.1719 211.414 38.2812V36.0312C210.867 36.7656 210.344 37.4297 209.844 38.0234C209.359 38.6016 208.93 39.0938 208.555 39.5C208.117 39.9844 207.711 40.4141 207.336 40.7891C206.555 41.5547 205.828 42.1953 205.156 42.7109C204.484 43.2109 203.867 43.6016 203.305 43.8828C202.742 44.1641 202.242 44.3438 201.805 44.4219C201.367 44.5156 200.984 44.5312 200.656 44.4688C200.344 44.4062 200.055 44.2578 199.789 44.0234C199.523 43.7891 199.297 43.4219 199.109 42.9219C198.922 42.4219 198.773 41.7734 198.664 40.9766C198.57 40.1641 198.531 39.1562 198.547 37.9531C198.562 36.75 198.594 35.5547 198.641 34.3672C198.703 33.1641 198.758 32.0234 198.805 30.9453C198.867 29.8672 198.93 28.8828 198.992 27.9922C199.07 27.0859 199.133 26.3281 199.18 25.7188C199.227 24.9375 199.141 24.3125 198.922 23.8438C198.719 23.3594 198.352 23.1172 197.82 23.1172C197.508 23.1172 197.156 23.2109 196.766 23.3984C196.375 23.5703 195.93 23.8594 195.43 24.2656C195.805 23.9062 196.242 23.4766 196.742 22.9766C197.242 22.4609 197.766 21.9688 198.312 21.5C198.875 21.0312 199.438 20.6328 200 20.3047C200.562 19.9766 201.086 19.8125 201.57 19.8125C201.945 19.8125 202.227 19.9141 202.414 20.1172C202.617 20.3047 202.758 20.5391 202.836 20.8203C202.93 21.1016 202.977 21.4062 202.977 21.7344C202.992 22.0469 203 22.3203 203 22.5547C203 23.6797 202.961 24.7969 202.883 25.9062C202.805 27 202.719 28.0938 202.625 29.1875C202.531 30.2656 202.445 31.3438 202.367 32.4219C202.289 33.5 202.25 34.5781 202.25 35.6562C202.25 36.4062 202.281 37.1328 202.344 37.8359C202.422 38.5234 202.555 39.125 202.742 39.6406C202.93 40.1562 203.18 40.5625 203.492 40.8594C203.82 41.1406 204.234 41.2578 204.734 41.2109C205.391 41.1484 206.039 40.875 206.68 40.3906C207.336 39.9062 207.953 39.2812 208.531 38.5156C209.109 37.7344 209.633 36.8516 210.102 35.8672C210.57 34.8828 210.945 33.8672 211.227 32.8203C211.258 32.6953 211.297 32.5469 211.344 32.375C211.375 32.2344 211.414 32.0781 211.461 31.9062C211.523 31.7344 211.586 31.5391 211.648 31.3203C211.742 29.8047 211.867 28.3125 212.023 26.8438C212.195 25.375 212.391 23.9062 212.609 22.4375L217.18 19.1797C216.602 22.0391 216.141 24.7812 215.797 27.4062C215.469 30.0312 215.305 32.6484 215.305 35.2578C215.305 36.4922 215.359 37.4922 215.469 38.2578C215.594 39.0234 215.758 39.6094 215.961 40.0156C216.18 40.4219 216.438 40.6719 216.734 40.7656C217.031 40.8594 217.352 40.8516 217.695 40.7422C218.008 40.6016 218.375 40.3359 218.797 39.9453C219.156 39.6172 219.609 39.1406 220.156 38.5156C220.703 37.8906 221.344 37.0469 222.078 35.9844V37.9531ZM195.43 24.2656L195.289 24.3594L195.43 24.2656ZM225.664 44.7734C225.273 44.7734 224.875 44.75 224.469 44.7031C224.062 44.6719 223.633 44.6172 223.18 44.5391C223.383 41.3984 223.602 38.3438 223.836 35.375C224.07 32.4062 224.281 29.4922 224.469 26.6328C224.672 23.7734 224.836 20.9609 224.961 18.1953C225.086 15.4297 225.148 12.6719 225.148 9.92188C225.148 8.125 225.039 6.76562 224.82 5.84375C224.602 4.90625 224.242 4.39062 223.742 4.29688C223.477 4.25 223.203 4.24219 222.922 4.27344C222.672 4.30469 222.398 4.38281 222.102 4.50781C221.805 4.61719 221.508 4.80469 221.211 5.07031C221.914 4.36719 222.508 3.78125 222.992 3.3125C223.492 2.84375 223.898 2.46875 224.211 2.1875C224.586 1.85938 224.898 1.60156 225.148 1.41406C225.367 1.24219 225.594 1.125 225.828 1.0625C226.078 0.984375 226.312 0.945312 226.531 0.945312C226.922 0.945312 227.273 1.07813 227.586 1.34375C227.914 1.59375 228.156 2.02344 228.312 2.63281C228.375 2.86719 228.422 3.1875 228.453 3.59375C228.5 3.98438 228.531 4.44531 228.547 4.97656C228.578 5.50781 228.602 6.10156 228.617 6.75781C228.633 7.39844 228.641 8.07031 228.641 8.77344C228.641 12.0078 228.547 15.1797 228.359 18.2891C228.188 21.3828 227.977 24.4688 227.727 27.5469C228.164 26.8281 228.594 26.1719 229.016 25.5781C229.453 24.9844 229.844 24.4844 230.188 24.0781C230.594 23.5938 230.977 23.1641 231.336 22.7891C232.445 21.7109 233.492 20.9219 234.477 20.4219C235.461 19.9219 236.328 19.6719 237.078 19.6719C237.609 19.6719 238.062 19.8203 238.438 20.1172C238.828 20.3984 239.156 20.7656 239.422 21.2188C239.688 21.6719 239.906 22.1875 240.078 22.7656C240.25 23.3281 240.375 23.8984 240.453 24.4766C240.547 25.0547 240.609 25.6094 240.641 26.1406C240.672 26.6562 240.688 27.0859 240.688 27.4297C240.688 28.8047 240.523 30.1875 240.195 31.5781C239.867 32.9688 239.391 34.3047 238.766 35.5859C238.141 36.8672 237.383 38.0703 236.492 39.1953C235.617 40.3047 234.617 41.2734 233.492 42.1016C232.383 42.9297 231.172 43.5781 229.859 44.0469C228.547 44.5312 227.148 44.7734 225.664 44.7734ZM226.531 41.1172C227.141 41.3516 227.703 41.5156 228.219 41.6094C228.734 41.6875 229.18 41.7422 229.555 41.7734C229.992 41.8047 230.391 41.7969 230.75 41.75C232.109 41.4219 233.195 40.875 234.008 40.1094C234.82 39.3438 235.438 38.4531 235.859 37.4375C236.281 36.4219 236.555 35.3359 236.68 34.1797C236.82 33.0078 236.891 31.8516 236.891 30.7109C236.891 30.3359 236.875 29.8828 236.844 29.3516C236.828 28.8047 236.781 28.2344 236.703 27.6406C236.625 27.0312 236.516 26.4297 236.375 25.8359C236.234 25.2422 236.047 24.7109 235.812 24.2422C235.578 23.7734 235.289 23.3906 234.945 23.0938C234.602 22.7969 234.195 22.6484 233.727 22.6484C233.414 22.6484 233.109 22.7188 232.812 22.8594C232.516 23 232.258 23.1797 232.039 23.3984C231.539 23.8828 231.055 24.5234 230.586 25.3203C230.133 26.1172 229.695 27.0234 229.273 28.0391C228.867 29.0547 228.477 30.1484 228.102 31.3203C227.742 32.4766 227.406 33.6641 227.094 34.8828L226.531 41.1172ZM250.883 30.9922C250.805 31.8828 250.734 32.8828 250.672 33.9922C250.609 34.9453 250.539 36.0781 250.461 37.3906C250.383 38.6875 250.297 40.125 250.203 41.7031L246.266 45.0547C246.609 41.8672 246.906 38.8281 247.156 35.9375C247.422 33.0469 247.555 30.1953 247.555 27.3828C247.555 25.9609 247.359 24.9141 246.969 24.2422C246.578 23.5547 246.055 23.2109 245.398 23.2109C244.711 23.2109 243.914 23.5625 243.008 24.2656C243.211 24.0781 243.453 23.8438 243.734 23.5625C244.031 23.2656 244.344 22.9531 244.672 22.625C245.016 22.2969 245.367 21.9688 245.727 21.6406C246.102 21.3125 246.461 21.0156 246.805 20.75C247.164 20.4844 247.508 20.2734 247.836 20.1172C248.164 19.9453 248.453 19.8594 248.703 19.8594C249.312 19.8594 249.781 20.0312 250.109 20.375C250.438 20.7188 250.68 21.1406 250.836 21.6406C250.992 22.1406 251.086 22.6641 251.117 23.2109C251.148 23.7578 251.164 24.2266 251.164 24.6172V25.7188C251.992 24.3438 252.969 23.1328 254.094 22.0859C255.234 21.0391 256.562 20.2969 258.078 19.8594C258.406 19.7656 258.727 19.7422 259.039 19.7891C259.352 19.8203 259.664 19.8828 259.977 19.9766C260.289 20.0547 260.617 20.1406 260.961 20.2344C261.32 20.3281 261.703 20.375 262.109 20.375C262.422 20.375 262.75 20.3359 263.094 20.2578C263.438 20.1797 263.828 20.0469 264.266 19.8594C263.812 20.3125 263.367 20.7578 262.93 21.1953C262.492 21.6328 262.055 22.0312 261.617 22.3906C261.195 22.7344 260.773 23.0312 260.352 23.2812C259.945 23.5156 259.555 23.6562 259.18 23.7031C258.773 23.75 258.383 23.7266 258.008 23.6328C257.648 23.5234 257.273 23.4141 256.883 23.3047C256.508 23.1797 256.109 23.0938 255.688 23.0469C255.266 22.9844 254.812 23.0234 254.328 23.1641C254 23.2734 253.672 23.5781 253.344 24.0781C253.031 24.5625 252.719 25.1719 252.406 25.9062C252.109 26.625 251.828 27.4297 251.562 28.3203C251.312 29.1953 251.086 30.0703 250.883 30.9453V30.9922ZM274.367 36.7109L273.852 38.6328C273.586 38.8984 273.258 39.2344 272.867 39.6406C272.492 40.0312 272.07 40.4531 271.602 40.9062C271.148 41.3438 270.672 41.7812 270.172 42.2188C269.672 42.6562 269.18 43.0469 268.695 43.3906C268.211 43.7344 267.742 44 267.289 44.1875C266.852 44.3906 266.461 44.4688 266.117 44.4219C265.586 44.3438 265.203 43.9609 264.969 43.2734C264.75 42.5703 264.641 41.4375 264.641 39.875C264.641 39.5938 264.648 39.1406 264.664 38.5156C264.695 37.875 264.727 37.1328 264.758 36.2891C264.805 35.4453 264.852 34.5234 264.898 33.5234C264.961 32.5078 265.023 31.4922 265.086 30.4766C265.148 29.4453 265.211 28.4375 265.273 27.4531C265.352 26.4531 265.43 25.5391 265.508 24.7109C265.555 24.1641 265.445 23.7734 265.18 23.5391C264.914 23.2891 264.586 23.1641 264.195 23.1641C263.867 23.1641 263.523 23.2422 263.164 23.3984C262.805 23.5547 262.477 23.7656 262.18 24.0312C262.805 23.4219 263.359 22.9141 263.844 22.5078C264.328 22.0859 264.742 21.7422 265.086 21.4766C265.492 21.1797 265.836 20.9297 266.117 20.7266C266.508 20.4922 266.883 20.375 267.242 20.375C267.617 20.3594 267.945 20.4453 268.227 20.6328C268.523 20.8203 268.75 21.0938 268.906 21.4531C269.078 21.8125 269.156 22.2422 269.141 22.7422C269.125 23.0859 269.086 23.6406 269.023 24.4062C268.977 25.1562 268.914 26.0156 268.836 26.9844C268.773 27.9531 268.695 28.9766 268.602 30.0547C268.523 31.1328 268.445 32.1719 268.367 33.1719C268.305 34.1719 268.242 35.0781 268.18 35.8906C268.133 36.7031 268.102 37.3281 268.086 37.7656C268.055 38.6562 268.148 39.375 268.367 39.9219C268.602 40.4688 268.969 40.7422 269.469 40.7422C269.844 40.7422 270.273 40.5781 270.758 40.25C271.258 39.9219 271.75 39.5391 272.234 39.1016C272.719 38.6641 273.148 38.2188 273.523 37.7656C273.914 37.3125 274.195 36.9609 274.367 36.7109ZM270.383 2.14062C270.414 2.90625 270.391 3.59375 270.312 4.20312C270.25 4.79687 270.172 5.30469 270.078 5.72656C269.969 6.22656 269.836 6.66406 269.68 7.03906C269.492 7.41406 269.203 7.82031 268.812 8.25781C268.484 8.63281 268.031 9.07031 267.453 9.57031C266.891 10.0547 266.156 10.5703 265.25 11.1172C265.547 10.5234 265.781 9.89844 265.953 9.24219C266.125 8.57031 266.258 7.95312 266.352 7.39062C266.461 6.73438 266.531 6.08594 266.562 5.44531L270.383 2.14062ZM290.633 21.3828C290.477 21.5547 290.25 21.7812 289.953 22.0625C289.688 22.2969 289.32 22.6016 288.852 22.9766C288.398 23.3359 287.797 23.7656 287.047 24.2656C287.234 24.0938 287.336 23.9375 287.352 23.7969C287.367 23.6562 287.352 23.5312 287.305 23.4219C287.242 23.2969 287.141 23.1797 287 23.0703C286.75 22.9297 286.344 22.8203 285.781 22.7422C285.234 22.6484 284.648 22.6016 284.023 22.6016C283.492 22.6016 282.992 22.6406 282.523 22.7188C282.055 22.7812 281.672 22.8984 281.375 23.0703C281.094 23.2422 280.789 23.6562 280.461 24.3125C280.148 24.9688 279.859 25.7656 279.594 26.7031C279.328 27.6406 279.109 28.6719 278.938 29.7969C278.766 30.9062 278.68 32.0078 278.68 33.1016C278.68 33.6172 278.703 34.1797 278.75 34.7891C278.812 35.3984 278.906 36.0078 279.031 36.6172C279.156 37.2109 279.328 37.7891 279.547 38.3516C279.766 38.8984 280.039 39.3828 280.367 39.8047C280.695 40.2266 281.078 40.5547 281.516 40.7891C281.953 41.0234 282.469 41.1172 283.062 41.0703C283.438 41.0078 283.859 40.8438 284.328 40.5781C284.719 40.3594 285.172 40.0234 285.688 39.5703C286.219 39.1016 286.781 38.4531 287.375 37.625L289.344 37.0391C288.516 37.9766 287.773 38.7812 287.117 39.4531C286.461 40.1094 285.906 40.6484 285.453 41.0703C284.922 41.5703 284.445 41.9688 284.023 42.2656C283.508 42.625 283.023 42.9531 282.57 43.25C282.117 43.5312 281.672 43.7734 281.234 43.9766C280.812 44.1641 280.391 44.2969 279.969 44.375C279.547 44.4531 279.117 44.4688 278.68 44.4219C278.305 44.3906 277.898 44.1797 277.461 43.7891C277.039 43.3984 276.641 42.8594 276.266 42.1719C275.891 41.4688 275.578 40.625 275.328 39.6406C275.078 38.6562 274.953 37.5469 274.953 36.3125C274.953 34.9688 275.078 33.6094 275.328 32.2344C275.594 30.8594 275.984 29.5391 276.5 28.2734C277.016 26.9922 277.672 25.8125 278.469 24.7344C279.266 23.6406 280.203 22.7188 281.281 21.9688C281.844 21.5781 282.453 21.2344 283.109 20.9375C283.781 20.6406 284.445 20.3984 285.102 20.2109C285.773 20.0234 286.414 19.8906 287.023 19.8125C287.648 19.7344 288.195 19.7031 288.664 19.7188C289.602 19.7656 290.234 19.9453 290.562 20.2578C290.906 20.5547 290.93 20.9297 290.633 21.3828ZM314.797 37.9062C314.656 38.125 314.461 38.3906 314.211 38.7031C313.961 39 313.711 39.2969 313.461 39.5938C313.18 39.9375 312.875 40.2891 312.547 40.6484C312.141 41.1484 311.703 41.6328 311.234 42.1016C310.766 42.5703 310.297 42.9922 309.828 43.3672C309.375 43.7266 308.93 44.0156 308.492 44.2344C308.055 44.4531 307.664 44.5547 307.32 44.5391C306.664 44.5078 306.211 44.1094 305.961 43.3438C305.711 42.5625 305.586 41.4375 305.586 39.9688C305.586 39.1875 305.609 38.3438 305.656 37.4375C305.703 36.5312 305.773 35.5156 305.867 34.3906C305.523 34.9375 305.195 35.4375 304.883 35.8906C304.57 36.3438 304.289 36.7422 304.039 37.0859C303.758 37.4922 303.477 37.8594 303.195 38.1875C302.367 39.2031 301.562 40.1016 300.781 40.8828C300.016 41.6641 299.305 42.3203 298.648 42.8516C298.008 43.3828 297.438 43.7891 296.938 44.0703C296.453 44.3516 296.07 44.5078 295.789 44.5391C295.508 44.5703 295.164 44.4766 294.758 44.2578C294.367 44.0391 293.992 43.6172 293.633 42.9922C293.273 42.3672 292.961 41.4922 292.695 40.3672C292.445 39.2422 292.328 37.7812 292.344 35.9844C292.359 34.1875 292.547 32.6094 292.906 31.25C293.281 29.875 293.758 28.6797 294.336 27.6641C294.93 26.6328 295.586 25.75 296.305 25.0156C297.023 24.2656 297.734 23.6172 298.438 23.0703C299.891 21.9609 301.281 21.0781 302.609 20.4219C303.953 19.75 305.266 19.3984 306.547 19.3672C306.969 19.3516 307.383 19.3594 307.789 19.3906C308.148 19.4219 308.531 19.4766 308.938 19.5547C309.359 19.6172 309.758 19.7188 310.133 19.8594L310.812 19.3203C310.719 19.7578 310.617 20.3516 310.508 21.1016C310.414 21.8516 310.32 22.6953 310.227 23.6328C310.133 24.5703 310.039 25.5703 309.945 26.6328C309.852 27.6953 309.766 28.7656 309.688 29.8438C309.625 30.9062 309.562 31.9453 309.5 32.9609C309.438 33.9609 309.383 34.875 309.336 35.7031C309.305 36.5312 309.281 37.2344 309.266 37.8125C309.266 38.3906 309.273 38.7891 309.289 39.0078C309.367 39.8984 309.57 40.5078 309.898 40.8359C310.242 41.1641 310.711 41.1328 311.305 40.7422C311.539 40.5547 311.828 40.2578 312.172 39.8516C312.469 39.5078 312.828 39.0391 313.25 38.4453C313.688 37.8359 314.203 37.0469 314.797 36.0781V37.9062ZM306.781 22.9766C305.297 22.7891 304.078 22.6953 303.125 22.6953C302.109 22.6953 301.227 22.8594 300.477 23.1875C299.727 23.5156 299.086 23.9609 298.555 24.5234C298.023 25.0703 297.586 25.7109 297.242 26.4453C296.898 27.1641 296.625 27.9297 296.422 28.7422C296.234 29.5547 296.102 30.3828 296.023 31.2266C295.961 32.0703 295.93 32.875 295.93 33.6406C295.93 33.9062 295.945 34.2656 295.977 34.7188C296.008 35.1719 296.062 35.6562 296.141 36.1719C296.234 36.6875 296.344 37.2109 296.469 37.7422C296.609 38.2734 296.781 38.7578 296.984 39.1953C297.203 39.6172 297.453 39.9688 297.734 40.25C298.016 40.5156 298.344 40.6484 298.719 40.6484C299.125 40.6484 299.617 40.4297 300.195 39.9922C300.789 39.5391 301.5 38.7812 302.328 37.7188C302.812 37.0625 303.297 36.2734 303.781 35.3516C304.188 34.5703 304.617 33.6094 305.07 32.4688C305.539 31.3281 305.953 30 306.312 28.4844L306.781 22.9766ZM322.719 20.9141C322.828 21.1953 322.898 21.6094 322.93 22.1562C322.961 22.7031 322.977 23.3281 322.977 24.0312C322.977 24.5312 322.969 25.0625 322.953 25.625C322.938 26.1875 322.914 26.7578 322.883 27.3359C323.336 26.6797 323.828 26.0078 324.359 25.3203C324.891 24.6172 325.445 23.9531 326.023 23.3281C326.617 22.6875 327.234 22.1016 327.875 21.5703C328.516 21.0391 329.172 20.6094 329.844 20.2812C330.531 19.9375 331.227 19.7188 331.93 19.625C332.648 19.5156 333.375 19.5781 334.109 19.8125C334.516 19.9375 334.844 20.125 335.094 20.375C335.359 20.625 335.57 20.9375 335.727 21.3125C335.883 21.6719 335.984 22.0859 336.031 22.5547C336.094 23.0234 336.125 23.5312 336.125 24.0781C336.125 25.2969 336.078 26.5 335.984 27.6875C335.891 28.875 335.781 30.0547 335.656 31.2266C335.547 32.3828 335.445 33.5391 335.352 34.6953C335.258 35.8516 335.211 37 335.211 38.1406C335.211 38.9219 335.273 39.5391 335.398 39.9922C335.539 40.4453 335.781 40.7109 336.125 40.7891C336.469 40.7734 336.852 40.625 337.273 40.3438C337.633 40.125 338.062 39.7656 338.562 39.2656C339.062 38.7656 339.609 38.0547 340.203 37.1328L340.016 38.9141C339.594 39.3828 339.102 39.9453 338.539 40.6016C337.992 41.2578 337.414 41.8828 336.805 42.4766C336.211 43.0547 335.602 43.5391 334.977 43.9297C334.367 44.3203 333.789 44.4844 333.242 44.4219C332.648 44.3438 332.164 44.0078 331.789 43.4141C331.414 42.8047 331.227 41.8516 331.227 40.5547C331.227 39.9141 331.25 39.1641 331.297 38.3047C331.344 37.4297 331.406 36.5156 331.484 35.5625C331.562 34.6094 331.641 33.6406 331.719 32.6562C331.812 31.6719 331.898 30.7344 331.977 29.8438C332.07 28.9531 332.148 28.1406 332.211 27.4062C332.289 26.6562 332.344 26.0469 332.375 25.5781C332.406 25.1094 332.359 24.6875 332.234 24.3125C332.125 23.9219 331.945 23.5859 331.695 23.3047C331.461 23.0234 331.18 22.8125 330.852 22.6719C330.523 22.5156 330.164 22.4375 329.773 22.4375C329.352 22.4375 328.906 22.5469 328.438 22.7656C327.969 22.9688 327.492 23.2969 327.008 23.75C326.773 23.9844 326.484 24.3125 326.141 24.7344C325.812 25.1406 325.453 25.6797 325.062 26.3516C324.672 27.0078 324.258 27.7969 323.82 28.7188C323.398 29.6406 322.984 30.7188 322.578 31.9531C322.547 32.3125 322.523 32.6641 322.508 33.0078C322.492 33.3516 322.484 33.6719 322.484 33.9688C322.453 34.7188 322.406 35.5156 322.344 36.3594C322.297 37.0781 322.242 37.8906 322.18 38.7969C322.117 39.7031 322.047 40.625 321.969 41.5625L318.266 44.8203C318.438 41.0234 318.586 37.8906 318.711 35.4219C318.852 32.9375 318.961 30.9766 319.039 29.5391C319.133 27.8516 319.211 26.5625 319.273 25.6719C319.32 24.625 319.18 23.8828 318.852 23.4453C318.523 23.0078 318.117 22.7891 317.633 22.7891C317.258 22.7891 316.852 22.9062 316.414 23.1406C315.992 23.375 315.586 23.6719 315.195 24.0312C315.586 23.5938 316.016 23.125 316.484 22.625C316.969 22.125 317.477 21.6641 318.008 21.2422C318.539 20.8203 319.078 20.4688 319.625 20.1875C320.188 19.9062 320.742 19.7656 321.289 19.7656C321.633 19.7656 321.922 19.8594 322.156 20.0469C322.406 20.2188 322.594 20.5078 322.719 20.9141ZM355.812 36.2188L355.32 38.6328C354.961 38.9297 354.539 39.3047 354.055 39.7578C353.586 40.1953 353.07 40.6562 352.508 41.1406C351.961 41.625 351.391 42.1016 350.797 42.5703C350.203 43.0234 349.609 43.4141 349.016 43.7422C348.422 44.0547 347.836 44.2734 347.258 44.3984C346.695 44.5391 346.172 44.5156 345.688 44.3281C345.375 44.2188 345.102 44.0547 344.867 43.8359C344.648 43.6172 344.461 43.3047 344.305 42.8984C344.164 42.4922 344.055 41.9766 343.977 41.3516C343.898 40.7109 343.859 39.9297 343.859 39.0078C343.859 36.2266 343.914 33.5312 344.023 30.9219C344.148 28.2969 344.297 25.6953 344.469 23.1172C343.812 23.1641 343.164 23.25 342.523 23.375C341.898 23.4844 341.414 23.6719 341.07 23.9375C342.055 23.0625 342.828 22.2578 343.391 21.5234C343.953 20.7734 344.383 20.1094 344.68 19.5312L344.961 15.2422L348.992 11.8906L348.5 20.2812C348.844 20.3125 349.164 20.3281 349.461 20.3281C349.758 20.3281 350.047 20.3281 350.328 20.3281C351.688 20.3281 352.945 20.2109 354.102 19.9766C355.273 19.7266 356.398 19.3984 357.477 18.9922C356.477 19.7891 355.516 20.4375 354.594 20.9375C353.688 21.4375 352.844 21.8438 352.062 22.1562C351.281 22.4531 350.57 22.6719 349.93 22.8125C349.289 22.9375 348.75 23.0234 348.312 23.0703C348.156 25.8828 348.031 28.1641 347.938 29.9141C347.859 31.6484 347.797 32.9922 347.75 33.9453C347.688 35.0703 347.656 35.8906 347.656 36.4062C347.609 37.1719 347.656 37.8516 347.797 38.4453C347.938 39.0391 348.148 39.5312 348.43 39.9219C348.727 40.3125 349.078 40.5859 349.484 40.7422C349.906 40.8984 350.367 40.9141 350.867 40.7891C351.258 40.6641 351.711 40.4141 352.227 40.0391C352.664 39.7266 353.18 39.2734 353.773 38.6797C354.383 38.0703 355.062 37.25 355.812 36.2188ZM341.07 23.9375L340.93 24.0312L341.07 23.9375ZM370.93 37.1797C370.102 38.1172 369.336 38.9453 368.633 39.6641C367.945 40.3672 367.336 40.9609 366.805 41.4453C366.18 42.0078 365.617 42.4922 365.117 42.8984C363.742 43.9922 362.547 44.5391 361.531 44.5391C360.953 44.5391 360.453 44.3828 360.031 44.0703C359.625 43.7734 359.273 43.3828 358.977 42.8984C358.68 42.4141 358.438 41.8672 358.25 41.2578C358.062 40.6484 357.914 40.0391 357.805 39.4297C357.711 38.8047 357.641 38.2109 357.594 37.6484C357.562 37.0859 357.547 36.6094 357.547 36.2188C357.547 35.1719 357.664 34.0391 357.898 32.8203C358.148 31.6016 358.5 30.3906 358.953 29.1875C359.422 27.9688 359.992 26.8047 360.664 25.6953C361.336 24.5703 362.102 23.5781 362.961 22.7188C363.836 21.8438 364.789 21.1484 365.82 20.6328C366.867 20.1172 367.992 19.8594 369.195 19.8594C369.523 19.8594 369.797 19.9219 370.016 20.0469C370.234 20.1562 370.414 20.3125 370.555 20.5156C370.695 20.7188 370.789 20.9453 370.836 21.1953C370.898 21.4453 370.93 21.7031 370.93 21.9688C370.93 22.6562 370.773 23.3438 370.461 24.0312C370.148 24.7188 369.727 25.3984 369.195 26.0703C368.68 26.7266 368.086 27.375 367.414 28.0156C366.742 28.6406 366.039 29.2422 365.305 29.8203C364.586 30.3828 363.867 30.9141 363.148 31.4141C362.43 31.9141 361.773 32.3672 361.18 32.7734V33.2891C361.18 33.6797 361.195 34.1562 361.227 34.7188C361.273 35.2656 361.344 35.8438 361.438 36.4531C361.547 37.0469 361.688 37.6406 361.859 38.2344C362.031 38.8281 362.25 39.3594 362.516 39.8281C362.781 40.2969 363.094 40.6797 363.453 40.9766C363.828 41.2578 364.258 41.3984 364.742 41.3984C364.961 41.3984 365.188 41.3672 365.422 41.3047C365.656 41.2266 365.891 41.1016 366.125 40.9297C366.531 40.6016 366.992 40.1484 367.508 39.5703C367.945 39.0703 368.453 38.4219 369.031 37.625C369.609 36.8281 370.242 35.8203 370.93 34.6016V37.1797ZM366.57 23.3516C366.383 23.1328 366.141 22.9922 365.844 22.9297C365.547 22.8672 365.227 22.8828 364.883 22.9766C364.555 23.0703 364.227 23.25 363.898 23.5156C363.586 23.7812 363.32 24.1328 363.102 24.5703C362.789 25.1953 362.445 26.0938 362.07 27.2656C361.695 28.4219 361.43 29.7578 361.273 31.2734C361.773 30.9766 362.289 30.6328 362.82 30.2422C363.352 29.8516 363.859 29.4375 364.344 29C364.844 28.5625 365.289 28.1094 365.68 27.6406C366.086 27.1562 366.398 26.6719 366.617 26.1875C366.852 25.6875 366.977 25.2031 366.992 24.7344C367.008 24.25 366.867 23.7891 366.57 23.3516ZM386.094 20.6328C386.016 20.8203 385.836 21.0547 385.555 21.3359C385.32 21.5859 384.969 21.9141 384.5 22.3203C384.047 22.7109 383.406 23.2031 382.578 23.7969C382.594 23.5312 382.555 23.3125 382.461 23.1406C382.383 22.9531 382.281 22.8125 382.156 22.7188C382.016 22.6094 381.859 22.5312 381.688 22.4844C380.688 22.2969 379.898 22.2969 379.32 22.4844C379.18 22.5469 379.07 22.7031 378.992 22.9531C378.93 23.1875 378.898 23.4844 378.898 23.8438C378.898 24.7031 379.055 25.4766 379.367 26.1641C379.695 26.8359 380.102 27.4688 380.586 28.0625C381.07 28.6406 381.594 29.1953 382.156 29.7266C382.719 30.2578 383.242 30.8047 383.727 31.3672C384.211 31.9141 384.609 32.4922 384.922 33.1016C385.25 33.7109 385.414 34.3828 385.414 35.1172C385.414 35.7422 385.281 36.3906 385.016 37.0625C384.766 37.7188 384.375 38.3203 383.844 38.8672C383.391 39.3359 382.898 39.8203 382.367 40.3203C381.852 40.8203 381.312 41.2969 380.75 41.75C380.203 42.2031 379.641 42.6172 379.062 42.9922C378.484 43.3672 377.914 43.6719 377.352 43.9062C376.398 44.25 375.484 44.4219 374.609 44.4219C374.016 44.4219 373.5 44.3359 373.062 44.1641C372.625 43.9922 372.359 43.7266 372.266 43.3672C372.188 43.0859 372.273 42.7422 372.523 42.3359C372.773 41.9141 373.086 41.5 373.461 41.0938C373.836 40.6719 374.227 40.2812 374.633 39.9219C375.055 39.5469 375.383 39.2578 375.617 39.0547C375.586 39.8047 375.758 40.3438 376.133 40.6719C376.523 40.9844 377.141 41.1641 377.984 41.2109C378.406 41.2422 378.852 41.2188 379.32 41.1406C379.789 41.0469 380.219 40.9141 380.609 40.7422C381.016 40.5547 381.344 40.3203 381.594 40.0391C381.859 39.7578 381.984 39.4297 381.969 39.0547C381.938 38.1797 381.75 37.3828 381.406 36.6641C381.078 35.9297 380.664 35.2422 380.164 34.6016C379.68 33.9453 379.156 33.3125 378.594 32.7031C378.047 32.0781 377.531 31.4453 377.047 30.8047C376.578 30.1641 376.18 29.4844 375.852 28.7656C375.539 28.0469 375.383 27.2656 375.383 26.4219C375.383 26.0625 375.422 25.7188 375.5 25.3906C375.578 25.0625 375.719 24.75 375.922 24.4531C376.281 23.9219 376.773 23.3672 377.398 22.7891C378.023 22.2109 378.688 21.6797 379.391 21.1953C380.094 20.7109 380.789 20.3047 381.477 19.9766C382.164 19.6328 382.758 19.4297 383.258 19.3672C383.742 19.3047 384.172 19.3047 384.547 19.3672C384.938 19.4141 385.258 19.5 385.508 19.625C385.758 19.75 385.93 19.9062 386.023 20.0938C386.133 20.2656 386.156 20.4453 386.094 20.6328ZM421.578 20.0938C421.344 22.3906 421.125 24.6406 420.922 26.8438C420.719 29.0312 420.539 31.2031 420.383 33.3594C420.242 35.5 420.125 37.6328 420.031 39.7578C419.953 41.8828 419.914 44.0156 419.914 46.1562C419.914 47.3438 419.891 48.3984 419.844 49.3203C419.797 50.2422 419.688 50.9453 419.516 51.4297C419.234 52.3047 418.773 53.1641 418.133 54.0078C417.492 54.8672 416.734 55.6797 415.859 56.4453C415 57.2109 414.055 57.9141 413.023 58.5547C412.008 59.2109 410.969 59.7656 409.906 60.2188C408.844 60.6875 407.797 61.0469 406.766 61.2969C405.734 61.5469 404.789 61.6562 403.93 61.625C403.195 61.6094 402.516 61.4922 401.891 61.2734C401.266 61.0703 400.758 60.8047 400.367 60.4766C399.992 60.1484 399.758 59.7812 399.664 59.375C399.57 58.9844 399.695 58.6094 400.039 58.25C400.305 57.9844 400.641 57.6875 401.047 57.3594C401.391 57.0938 401.812 56.7734 402.312 56.3984C402.812 56.0234 403.414 55.6328 404.117 55.2266C403.82 55.5391 403.656 55.8281 403.625 56.0938C403.594 56.3594 403.617 56.5859 403.695 56.7734C403.773 56.9922 403.914 57.1953 404.117 57.3828C404.508 57.6797 405.102 57.9531 405.898 58.2031C406.711 58.4688 407.602 58.6016 408.57 58.6016C409.773 58.6016 410.82 58.4062 411.711 58.0156C412.617 57.6406 413.383 57.1172 414.008 56.4453C414.633 55.7734 415.109 54.9766 415.438 54.0547C415.781 53.1328 415.992 52.1328 416.07 51.0547C416.164 49.8828 416.219 48.6172 416.234 47.2578C416.25 45.8984 416.258 44.4922 416.258 43.0391C416.258 41.9766 416.258 40.9375 416.258 39.9219C416.258 38.9062 416.273 37.9141 416.305 36.9453C416.039 37.2891 415.789 37.6016 415.555 37.8828C415.32 38.1484 415.109 38.3828 414.922 38.5859C414.703 38.8203 414.492 39.0391 414.289 39.2422C412.336 41.0859 410.648 42.4531 409.227 43.3438C407.805 44.2344 406.562 44.5938 405.5 44.4219C404.625 44.25 403.992 43.6875 403.602 42.7344C403.211 41.7812 403.016 40.5547 403.016 39.0547C403.016 38.3672 403.031 37.6016 403.062 36.7578C403.109 35.8984 403.164 35.0156 403.227 34.1094C403.289 33.2031 403.352 32.2969 403.414 31.3906C403.492 30.4844 403.562 29.625 403.625 28.8125C403.703 28 403.766 27.2656 403.812 26.6094C403.875 25.9531 403.914 25.4141 403.93 24.9922C403.961 24.3359 403.852 23.8359 403.602 23.4922C403.367 23.1484 403.023 22.9766 402.57 22.9766C401.992 22.9766 401.195 23.2969 400.18 23.9375C400.555 23.5938 400.977 23.2109 401.445 22.7891C401.914 22.3672 402.398 21.9688 402.898 21.5938C403.414 21.2188 403.938 20.9062 404.469 20.6562C405 20.4062 405.523 20.2812 406.039 20.2812C406.539 20.2812 406.938 20.4922 407.234 20.9141C407.547 21.3203 407.703 21.9922 407.703 22.9297C407.703 23.4141 407.688 24.0391 407.656 24.8047C407.625 25.5703 407.578 26.4062 407.516 27.3125C407.469 28.2031 407.406 29.1328 407.328 30.1016C407.266 31.0547 407.203 31.9844 407.141 32.8906C407.094 33.7969 407.047 34.6406 407 35.4219C406.953 36.1875 406.922 36.8203 406.906 37.3203C406.891 37.8984 406.938 38.4375 407.047 38.9375C407.172 39.4219 407.344 39.8438 407.562 40.2031C407.797 40.5625 408.07 40.8438 408.383 41.0469C408.711 41.25 409.062 41.3516 409.438 41.3516C409.922 41.3516 410.422 41.1953 410.938 40.8828C411.406 40.5703 411.883 40.1875 412.367 39.7344C412.852 39.2656 413.328 38.7109 413.797 38.0703C414.281 37.4141 414.75 36.6641 415.203 35.8203C415.656 34.9609 416.086 33.9922 416.492 32.9141C416.586 31.1172 416.719 29.3984 416.891 27.7578C417.062 26.1172 417.266 24.4766 417.5 22.8359L421.578 20.0938ZM471.242 25.8125C471.242 27.7969 470.914 29.6328 470.258 31.3203C469.602 33.0078 468.734 34.5469 467.656 35.9375C466.578 37.3281 465.344 38.5625 463.953 39.6406C462.578 40.7031 461.164 41.6016 459.711 42.3359C458.273 43.0547 456.859 43.6016 455.469 43.9766C454.078 44.3516 452.828 44.5391 451.719 44.5391C450.781 44.5391 449.789 44.3906 448.742 44.0938C447.695 43.8125 446.656 43.3906 445.625 42.8281C444.609 42.25 443.633 41.5391 442.695 40.6953C441.758 39.8359 440.93 38.8516 440.211 37.7422C439.508 36.6172 438.945 35.3672 438.523 33.9922C438.102 32.6016 437.891 31.0859 437.891 29.4453C437.891 27.2578 438.195 25.2578 438.805 23.4453C439.414 21.6328 440.219 20.0078 441.219 18.5703C442.234 17.1172 443.383 15.8516 444.664 14.7734C445.961 13.6953 447.281 12.8047 448.625 12.1016C449.984 11.3828 451.32 10.8516 452.633 10.5078C453.945 10.1484 455.125 9.96875 456.172 9.96875C457.281 9.96875 458.422 10.0859 459.594 10.3203C460.766 10.5547 461.906 10.9297 463.016 11.4453C464.141 11.9609 465.195 12.6328 466.18 13.4609C467.18 14.2734 468.055 15.2656 468.805 16.4375C469.555 17.6094 470.148 18.9766 470.586 20.5391C471.023 22.0859 471.242 23.8438 471.242 25.8125ZM466.977 27.2422C466.977 25.5234 466.766 23.9688 466.344 22.5781C465.922 21.1719 465.352 19.9297 464.633 18.8516C463.93 17.7578 463.109 16.8203 462.172 16.0391C461.25 15.2422 460.281 14.5859 459.266 14.0703C458.266 13.5547 457.25 13.1797 456.219 12.9453C455.188 12.6953 454.211 12.5703 453.289 12.5703C451.82 12.5703 450.398 12.8516 449.023 13.4141C447.648 13.9609 446.422 14.8281 445.344 16.0156C444.281 17.1875 443.43 18.7031 442.789 20.5625C442.148 22.4219 441.828 24.6484 441.828 27.2422C441.828 28.9766 442.078 30.5391 442.578 31.9297C443.078 33.3047 443.734 34.5156 444.547 35.5625C445.359 36.6094 446.273 37.5078 447.289 38.2578C448.32 39.0078 449.359 39.6172 450.406 40.0859C451.469 40.5547 452.492 40.8984 453.477 41.1172C454.477 41.3359 455.344 41.4453 456.078 41.4453C456.812 41.4453 457.586 41.3359 458.398 41.1172C459.227 40.8984 460.047 40.5547 460.859 40.0859C461.672 39.6016 462.445 38.9844 463.18 38.2344C463.914 37.4844 464.562 36.5859 465.125 35.5391C465.688 34.4922 466.133 33.2812 466.461 31.9062C466.805 30.5312 466.977 28.9766 466.977 27.2422ZM488.844 36.2188L488.352 38.6328C487.992 38.9297 487.57 39.3047 487.086 39.7578C486.617 40.1953 486.102 40.6562 485.539 41.1406C484.992 41.625 484.422 42.1016 483.828 42.5703C483.234 43.0234 482.641 43.4141 482.047 43.7422C481.453 44.0547 480.867 44.2734 480.289 44.3984C479.727 44.5391 479.203 44.5156 478.719 44.3281C478.406 44.2188 478.133 44.0547 477.898 43.8359C477.68 43.6172 477.492 43.3047 477.336 42.8984C477.195 42.4922 477.086 41.9766 477.008 41.3516C476.93 40.7109 476.891 39.9297 476.891 39.0078C476.891 36.2266 476.945 33.5312 477.055 30.9219C477.18 28.2969 477.328 25.6953 477.5 23.1172C476.844 23.1641 476.195 23.25 475.555 23.375C474.93 23.4844 474.445 23.6719 474.102 23.9375C475.086 23.0625 475.859 22.2578 476.422 21.5234C476.984 20.7734 477.414 20.1094 477.711 19.5312L477.992 15.2422L482.023 11.8906L481.531 20.2812C481.875 20.3125 482.195 20.3281 482.492 20.3281C482.789 20.3281 483.078 20.3281 483.359 20.3281C484.719 20.3281 485.977 20.2109 487.133 19.9766C488.305 19.7266 489.43 19.3984 490.508 18.9922C489.508 19.7891 488.547 20.4375 487.625 20.9375C486.719 21.4375 485.875 21.8438 485.094 22.1562C484.312 22.4531 483.602 22.6719 482.961 22.8125C482.32 22.9375 481.781 23.0234 481.344 23.0703C481.188 25.8828 481.062 28.1641 480.969 29.9141C480.891 31.6484 480.828 32.9922 480.781 33.9453C480.719 35.0703 480.688 35.8906 480.688 36.4062C480.641 37.1719 480.688 37.8516 480.828 38.4453C480.969 39.0391 481.18 39.5312 481.461 39.9219C481.758 40.3125 482.109 40.5859 482.516 40.7422C482.938 40.8984 483.398 40.9141 483.898 40.7891C484.289 40.6641 484.742 40.4141 485.258 40.0391C485.695 39.7266 486.211 39.2734 486.805 38.6797C487.414 38.0703 488.094 37.25 488.844 36.2188ZM474.102 23.9375L473.961 24.0312L474.102 23.9375ZM497.633 30.9922C497.555 31.8828 497.484 32.8828 497.422 33.9922C497.359 34.9453 497.289 36.0781 497.211 37.3906C497.133 38.6875 497.047 40.125 496.953 41.7031L493.016 45.0547C493.359 41.8672 493.656 38.8281 493.906 35.9375C494.172 33.0469 494.305 30.1953 494.305 27.3828C494.305 25.9609 494.109 24.9141 493.719 24.2422C493.328 23.5547 492.805 23.2109 492.148 23.2109C491.461 23.2109 490.664 23.5625 489.758 24.2656C489.961 24.0781 490.203 23.8438 490.484 23.5625C490.781 23.2656 491.094 22.9531 491.422 22.625C491.766 22.2969 492.117 21.9688 492.477 21.6406C492.852 21.3125 493.211 21.0156 493.555 20.75C493.914 20.4844 494.258 20.2734 494.586 20.1172C494.914 19.9453 495.203 19.8594 495.453 19.8594C496.062 19.8594 496.531 20.0312 496.859 20.375C497.188 20.7188 497.43 21.1406 497.586 21.6406C497.742 22.1406 497.836 22.6641 497.867 23.2109C497.898 23.7578 497.914 24.2266 497.914 24.6172V25.7188C498.742 24.3438 499.719 23.1328 500.844 22.0859C501.984 21.0391 503.312 20.2969 504.828 19.8594C505.156 19.7656 505.477 19.7422 505.789 19.7891C506.102 19.8203 506.414 19.8828 506.727 19.9766C507.039 20.0547 507.367 20.1406 507.711 20.2344C508.07 20.3281 508.453 20.375 508.859 20.375C509.172 20.375 509.5 20.3359 509.844 20.2578C510.188 20.1797 510.578 20.0469 511.016 19.8594C510.562 20.3125 510.117 20.7578 509.68 21.1953C509.242 21.6328 508.805 22.0312 508.367 22.3906C507.945 22.7344 507.523 23.0312 507.102 23.2812C506.695 23.5156 506.305 23.6562 505.93 23.7031C505.523 23.75 505.133 23.7266 504.758 23.6328C504.398 23.5234 504.023 23.4141 503.633 23.3047C503.258 23.1797 502.859 23.0938 502.438 23.0469C502.016 22.9844 501.562 23.0234 501.078 23.1641C500.75 23.2734 500.422 23.5781 500.094 24.0781C499.781 24.5625 499.469 25.1719 499.156 25.9062C498.859 26.625 498.578 27.4297 498.312 28.3203C498.062 29.1953 497.836 30.0703 497.633 30.9453V30.9922ZM524.281 25.9531C524.328 27.1719 524.289 28.3672 524.164 29.5391C524.039 30.7109 523.852 31.8125 523.602 32.8438C523.367 33.8594 523.07 34.7891 522.711 35.6328C522.367 36.4609 521.992 37.1406 521.586 37.6719C521.32 38.0312 520.945 38.4531 520.461 38.9375C519.992 39.4062 519.461 39.8984 518.867 40.4141C518.273 40.9141 517.641 41.4141 516.969 41.9141C516.297 42.4141 515.633 42.8594 514.977 43.25C514.32 43.625 513.688 43.9297 513.078 44.1641C512.484 44.4141 511.961 44.5391 511.508 44.5391C510.977 44.5391 510.516 44.3984 510.125 44.1172C509.734 43.8516 509.398 43.5 509.117 43.0625C508.836 42.6094 508.602 42.1094 508.414 41.5625C508.227 41 508.078 40.4453 507.969 39.8984C507.859 39.3359 507.781 38.8047 507.734 38.3047C507.703 37.7891 507.688 37.3516 507.688 36.9922C507.688 35.6172 507.812 34.2578 508.062 32.9141C508.312 31.5547 508.695 30.2656 509.211 29.0469C509.742 27.8281 510.406 26.7031 511.203 25.6719C512 24.625 512.953 23.7266 514.062 22.9766C514.781 22.4922 515.43 22.0547 516.008 21.6641C516.586 21.2578 517.117 20.9219 517.602 20.6562C518.086 20.3906 518.523 20.1875 518.914 20.0469C519.32 19.8906 519.703 19.8125 520.062 19.8125C520.406 19.8125 520.805 19.9062 521.258 20.0938C521.727 20.2812 522.172 20.6094 522.594 21.0781C523.031 21.5312 523.406 22.1562 523.719 22.9531C524.031 23.7344 524.219 24.7344 524.281 25.9531ZM520.578 29.8438C520.578 29.1875 520.531 28.4375 520.438 27.5938C520.344 26.75 520.156 25.9609 519.875 25.2266C519.594 24.4922 519.195 23.875 518.68 23.375C518.18 22.8594 517.508 22.6016 516.664 22.6016C516.32 22.6016 515.961 22.6797 515.586 22.8359C515.227 22.9766 514.891 23.2031 514.578 23.5156C513.953 24.1406 513.445 24.8594 513.055 25.6719C512.68 26.4688 512.383 27.3125 512.164 28.2031C511.945 29.0938 511.797 29.9922 511.719 30.8984C511.641 31.8047 511.602 32.6641 511.602 33.4766C511.602 33.8984 511.609 34.3906 511.625 34.9531C511.641 35.5 511.688 36.0703 511.766 36.6641C511.844 37.2422 511.953 37.8203 512.094 38.3984C512.25 38.9766 512.453 39.4922 512.703 39.9453C512.969 40.3828 513.297 40.7422 513.688 41.0234C514.078 41.3047 514.555 41.4453 515.117 41.4453C515.867 41.4453 516.523 41.2344 517.086 40.8125C517.648 40.375 518.133 39.8125 518.539 39.125C518.945 38.4375 519.273 37.6641 519.523 36.8047C519.789 35.9453 520 35.0859 520.156 34.2266C520.312 33.3672 520.422 32.5547 520.484 31.7891C520.547 31.0078 520.578 30.3594 520.578 29.8438ZM539.656 20.6328C539.578 20.8203 539.398 21.0547 539.117 21.3359C538.883 21.5859 538.531 21.9141 538.062 22.3203C537.609 22.7109 536.969 23.2031 536.141 23.7969C536.156 23.5312 536.117 23.3125 536.023 23.1406C535.945 22.9531 535.844 22.8125 535.719 22.7188C535.578 22.6094 535.422 22.5312 535.25 22.4844C534.25 22.2969 533.461 22.2969 532.883 22.4844C532.742 22.5469 532.633 22.7031 532.555 22.9531C532.492 23.1875 532.461 23.4844 532.461 23.8438C532.461 24.7031 532.617 25.4766 532.93 26.1641C533.258 26.8359 533.664 27.4688 534.148 28.0625C534.633 28.6406 535.156 29.1953 535.719 29.7266C536.281 30.2578 536.805 30.8047 537.289 31.3672C537.773 31.9141 538.172 32.4922 538.484 33.1016C538.812 33.7109 538.977 34.3828 538.977 35.1172C538.977 35.7422 538.844 36.3906 538.578 37.0625C538.328 37.7188 537.938 38.3203 537.406 38.8672C536.953 39.3359 536.461 39.8203 535.93 40.3203C535.414 40.8203 534.875 41.2969 534.312 41.75C533.766 42.2031 533.203 42.6172 532.625 42.9922C532.047 43.3672 531.477 43.6719 530.914 43.9062C529.961 44.25 529.047 44.4219 528.172 44.4219C527.578 44.4219 527.062 44.3359 526.625 44.1641C526.188 43.9922 525.922 43.7266 525.828 43.3672C525.75 43.0859 525.836 42.7422 526.086 42.3359C526.336 41.9141 526.648 41.5 527.023 41.0938C527.398 40.6719 527.789 40.2812 528.195 39.9219C528.617 39.5469 528.945 39.2578 529.18 39.0547C529.148 39.8047 529.32 40.3438 529.695 40.6719C530.086 40.9844 530.703 41.1641 531.547 41.2109C531.969 41.2422 532.414 41.2188 532.883 41.1406C533.352 41.0469 533.781 40.9141 534.172 40.7422C534.578 40.5547 534.906 40.3203 535.156 40.0391C535.422 39.7578 535.547 39.4297 535.531 39.0547C535.5 38.1797 535.312 37.3828 534.969 36.6641C534.641 35.9297 534.227 35.2422 533.727 34.6016C533.242 33.9453 532.719 33.3125 532.156 32.7031C531.609 32.0781 531.094 31.4453 530.609 30.8047C530.141 30.1641 529.742 29.4844 529.414 28.7656C529.102 28.0469 528.945 27.2656 528.945 26.4219C528.945 26.0625 528.984 25.7188 529.062 25.3906C529.141 25.0625 529.281 24.75 529.484 24.4531C529.844 23.9219 530.336 23.3672 530.961 22.7891C531.586 22.2109 532.25 21.6797 532.953 21.1953C533.656 20.7109 534.352 20.3047 535.039 19.9766C535.727 19.6328 536.32 19.4297 536.82 19.3672C537.305 19.3047 537.734 19.3047 538.109 19.3672C538.5 19.4141 538.82 19.5 539.07 19.625C539.32 19.75 539.492 19.9062 539.586 20.0938C539.695 20.2656 539.719 20.4453 539.656 20.6328Z" fill="white"/>
</svg>
