<svg width="61" height="16" viewBox="0 0 61 16" fill="none" xmlns="http://www.w3.org/2000/svg">
<path d="M0.533203 16.0001V8.78672C0.533203 8.08747 0.570006 7.53543 0.680414 7.1306C0.754019 6.72577 0.90123 6.39455 1.12205 6.06332C1.56368 5.36407 2.15252 4.81203 2.99898 4.4072C3.80864 4.00237 4.72871 3.81836 5.72239 3.81836C7.2313 3.81836 8.44579 4.22319 9.40266 5.03285C10.3595 5.84251 10.838 6.87298 10.838 8.12428C10.838 8.67632 10.7276 9.22836 10.4699 9.74359C10.2491 10.2588 9.88109 10.7373 9.43946 11.1421C8.99783 11.5469 8.44579 11.8782 7.78334 12.1358C7.15769 12.3566 6.45844 12.467 5.75919 12.467C5.24395 12.467 4.76551 12.4302 4.28708 12.3198C3.80864 12.2094 3.36701 12.099 2.96218 11.8782V10.2588C3.36701 10.5165 3.80864 10.7005 4.25028 10.8477C4.69191 10.9581 5.13354 11.0317 5.57517 11.0317C6.56885 11.0317 7.37851 10.7373 8.00415 10.222C8.6298 9.66999 8.96102 8.97074 8.96102 8.08747C8.96102 7.24101 8.6666 6.54176 8.04096 6.02652C7.41531 5.47448 6.64245 5.21686 5.64878 5.21686C4.69191 5.21686 3.88225 5.47448 3.29341 6.02652C2.70456 6.54176 2.37334 7.24101 2.37334 8.12428V16.0001H0.533203Z" fill="white"/>
<path d="M12.3477 12.3197V3.8551H14.0774V12.3197H12.3477Z" fill="white"/>
<path d="M22.0992 5.25361H21.3264C20.0751 5.25361 19.0446 5.51122 18.3085 6.02646C17.5725 6.5417 17.1676 7.20415 17.1676 8.05061C17.1676 8.89707 17.5357 9.55952 18.3085 10.0748C19.0446 10.59 20.0751 10.8476 21.3264 10.8476H22.0992V12.2829H21.1791C19.3758 12.2829 17.9405 11.9149 16.8732 11.142C15.8059 10.3692 15.2539 9.33871 15.2539 8.05061C15.2539 7.35136 15.4379 6.72571 15.8427 6.13687C16.2108 5.54803 16.7628 5.03279 17.4621 4.62796C17.9405 4.33354 18.4925 4.14952 19.0446 4.03912C19.5966 3.92871 20.2959 3.8551 21.1791 3.8551H22.0992V5.25361Z" fill="white"/>
<path d="M30.8227 12.3565V8.16102C30.8227 7.27775 30.5283 6.5785 29.9763 6.02646C29.4242 5.47442 28.6882 5.2168 27.7681 5.2168C26.8848 5.2168 26.1488 5.47442 25.56 6.02646C24.9711 6.5785 24.7135 7.27775 24.7135 8.12421C24.7135 9.00748 25.0079 9.70673 25.5968 10.2588C26.1856 10.8108 26.9585 11.1052 27.8417 11.1052C28.2465 11.1052 28.6514 11.0316 29.0562 10.9212C29.461 10.8108 29.8291 10.59 30.2339 10.3324V11.9517C29.8291 12.1357 29.4242 12.2829 28.9826 12.3933C28.541 12.5037 28.0993 12.5405 27.6209 12.5405C27.1793 12.5405 26.7008 12.4669 26.2592 12.3565C25.8176 12.2461 25.4127 12.0621 25.0447 11.8413C24.3455 11.4365 23.8302 10.8844 23.4622 10.2588C23.0942 9.63312 22.9102 8.93387 22.9102 8.16102C22.9102 6.90972 23.3518 5.84245 24.2719 5.03279C25.1919 4.22313 26.3328 3.78149 27.7313 3.78149C28.6514 3.78149 29.4978 4.00231 30.2339 4.40714C31.0068 4.81197 31.5956 5.36401 32.0004 6.10006C32.1844 6.43129 32.3316 6.76251 32.4053 7.16734C32.4789 7.53537 32.5157 8.12421 32.5157 8.86027V12.3933H30.8227V12.3565Z" fill="white"/>
<path d="M34.0977 12.3565V7.8666C34.0977 6.65211 34.5025 5.69524 35.3489 4.99599C36.1954 4.29674 37.3363 3.92871 38.7348 3.92871C40.1333 3.92871 41.2742 4.29674 42.1206 4.99599C42.9671 5.69524 43.3719 6.65211 43.3719 7.8666V12.3933H41.4214V7.60898C41.4214 6.94653 41.1638 6.43129 40.6853 6.02646C40.1701 5.62164 39.5445 5.40082 38.7348 5.40082C37.9619 5.40082 37.2995 5.62164 36.7843 6.02646C36.269 6.43129 36.0114 6.98334 36.0114 7.60898V12.3933H34.0977V12.3565Z" fill="white"/>
<path d="M44.9531 1.75732H46.8301V3.96549H49.9951V5.32719H46.8301V8.86025C46.8301 9.52269 47.0509 10.0011 47.4557 10.3324C47.8605 10.6268 48.523 10.8108 49.4063 10.8108H49.9951V12.2461H49.3694C47.8973 12.2461 46.7933 11.9885 46.0572 11.4732C45.3212 10.958 44.9531 10.1851 44.9531 9.15467V1.75732Z" fill="white"/>
<path d="M52.7562 8.12427C52.7562 8.93393 53.0506 9.63318 53.6762 10.222C54.2651 10.8109 55.0011 11.0685 55.8476 11.0685C56.694 11.0685 57.4301 10.7741 58.0189 10.222C58.6078 9.63318 58.939 8.97073 58.939 8.12427C58.939 7.31461 58.6446 6.61536 58.0557 6.02652C57.4669 5.47448 56.7308 5.18006 55.8476 5.18006C55.0011 5.18006 54.2651 5.47448 53.6762 6.02652C53.0506 6.61536 52.7562 7.31461 52.7562 8.12427ZM50.916 8.12427C50.916 7.53543 51.0264 6.98339 51.284 6.46815C51.5417 5.95291 51.9097 5.47448 52.3881 5.03285C52.8666 4.62802 53.3818 4.29679 53.9706 4.07598C54.5595 3.85516 55.1851 3.74475 55.8476 3.74475C56.51 3.74475 57.1357 3.85516 57.7245 4.07598C58.3134 4.29679 58.8286 4.59121 59.307 5.03285C59.7855 5.43768 60.1167 5.91611 60.3743 6.46815C60.6319 7.02019 60.7423 7.57223 60.7423 8.16108C60.7423 8.74992 60.6319 9.33876 60.3743 9.854C60.1167 10.406 59.7855 10.8845 59.307 11.2893C58.8654 11.6941 58.3134 12.0254 57.7245 12.2462C57.1357 12.467 56.51 12.5774 55.8476 12.5774C55.1851 12.5774 54.5595 12.467 53.9706 12.2462C53.3818 12.0254 52.8666 11.7309 52.3881 11.2893C51.9097 10.8845 51.5417 10.406 51.284 9.854C51.0632 9.30196 50.916 8.71312 50.916 8.12427Z" fill="white"/>
<path d="M9.91797 0.736054C10.9852 0.220816 12.0525 0 13.1198 0C14.1503 0 15.2176 0.257619 16.3584 0.736054L15.7696 2.13456C14.8127 1.72973 13.9295 1.50891 13.083 1.50891C12.2365 1.50891 11.4269 1.69292 10.5436 2.09775L9.91797 0.736054Z" fill="white"/>
</svg>
