<svg width="216" height="35" viewBox="0 0 216 35" fill="none" xmlns="http://www.w3.org/2000/svg">
<path d="M13.112 34.48C9.752 34.48 7 33.744 4.856 32.272C2.712 30.8 1.208 28.768 0.344 26.176L5.288 24.592C5.896 26.416 6.872 27.776 8.216 28.672C9.56 29.568 11.32 30.016 13.496 30.016C15.64 30.016 17.336 29.616 18.584 28.816C19.832 28.016 20.456 26.96 20.456 25.648C20.456 24.4 20.104 23.392 19.4 22.624C18.728 21.856 17.816 21.232 16.664 20.752C15.544 20.24 14.296 19.808 12.92 19.456C11.576 19.072 10.232 18.656 8.888 18.208C7.544 17.76 6.296 17.2 5.144 16.528C4.024 15.824 3.112 14.928 2.408 13.84C1.736 12.72 1.4 11.296 1.4 9.568C1.4 7.872 1.848 6.336 2.744 4.96C3.64 3.552 4.952 2.448 6.68 1.648C8.44 0.815998 10.568 0.399998 13.064 0.399998C16.168 0.399998 18.76 1.12 20.84 2.56C22.92 3.968 24.376 5.936 25.208 8.464L20.408 10.048C19.8 8.288 18.84 6.992 17.528 6.16C16.248 5.296 14.616 4.864 12.632 4.864C10.488 4.864 8.92 5.28 7.928 6.112C6.936 6.912 6.44 7.888 6.44 9.04C6.44 10.128 6.776 11.008 7.448 11.68C8.152 12.32 9.064 12.864 10.184 13.312C11.336 13.728 12.584 14.112 13.928 14.464C15.304 14.816 16.664 15.232 18.008 15.712C19.384 16.192 20.632 16.816 21.752 17.584C22.904 18.352 23.816 19.344 24.488 20.56C25.192 21.776 25.544 23.312 25.544 25.168C25.544 26.928 25.048 28.512 24.056 29.92C23.064 31.328 21.64 32.448 19.784 33.28C17.96 34.08 15.736 34.48 13.112 34.48ZM53.0863 34L41.9983 0.879997H46.8943L58.3663 34H53.0863ZM28.1263 34L39.5983 0.879997H44.1103L33.2623 34H28.1263ZM34.4143 24.832V20.224H52.0782V24.832H34.4143ZM82.5178 34L64.1818 0.879997H69.5098L87.8458 34H82.5178ZM62.6938 34V0.879997H67.4938V34H62.6938ZM84.5338 34V0.879997H89.3338V34H84.5338ZM98.9375 34V29.392H107.29C110.906 29.392 113.61 28.4 115.402 26.416C117.226 24.432 118.138 21.44 118.138 17.44C118.138 13.408 117.226 10.416 115.402 8.464C113.61 6.48 110.906 5.488 107.29 5.488H98.9375V0.879997H107.77C111.002 0.879997 113.786 1.552 116.122 2.896C118.458 4.208 120.25 6.096 121.498 8.56C122.746 11.024 123.37 13.984 123.37 17.44C123.37 20.864 122.746 23.824 121.498 26.32C120.25 28.784 118.458 30.688 116.122 32.032C113.786 33.344 111.002 34 107.77 34H98.9375ZM96.5375 34V0.879997H101.578V34H96.5375ZM129.069 34V0.879997H134.109V34H129.069ZM131.469 34V29.392H152.589V34H131.469ZM131.469 19.312V14.704H149.469V19.312H131.469ZM131.469 5.488V0.879997H152.349V5.488H131.469ZM160.812 21.52V16.912H170.125C172.493 16.912 174.253 16.448 175.405 15.52C176.557 14.56 177.133 13.12 177.133 11.2C177.133 9.28 176.557 7.856 175.405 6.928C174.253 5.968 172.493 5.488 170.125 5.488H160.812V0.879997H170.605C174.157 0.879997 177.005 1.792 179.149 3.616C181.293 5.44 182.365 7.968 182.365 11.2C182.365 14.4 181.293 16.928 179.149 18.784C177.005 20.608 174.157 21.52 170.605 21.52H160.812ZM158.413 34V0.879997H163.453V34H158.413ZM177.181 34L168.205 19.648H173.725L183.085 34H177.181ZM201.235 34.48C198.355 34.48 195.811 33.792 193.603 32.416C191.427 31.04 189.715 29.088 188.467 26.56C187.251 24 186.643 20.96 186.643 17.44C186.643 13.888 187.251 10.848 188.467 8.32C189.715 5.76 191.427 3.808 193.603 2.464C195.811 1.088 198.355 0.399998 201.235 0.399998C204.147 0.399998 206.691 1.088 208.867 2.464C211.075 3.808 212.787 5.76 214.003 8.32C215.251 10.848 215.875 13.888 215.875 17.44C215.875 20.96 215.251 24 214.003 26.56C212.787 29.088 211.075 31.04 208.867 32.416C206.691 33.792 204.147 34.48 201.235 34.48ZM201.235 29.824C204.147 29.824 206.435 28.752 208.099 26.608C209.795 24.464 210.643 21.408 210.643 17.44C210.643 13.44 209.795 10.384 208.099 8.272C206.435 6.128 204.147 5.056 201.235 5.056C198.355 5.056 196.067 6.128 194.371 8.272C192.707 10.384 191.875 13.44 191.875 17.44C191.875 21.408 192.707 24.464 194.371 26.608C196.067 28.752 198.355 29.824 201.235 29.824Z" fill="white"/>
</svg>
