<svg width="264" height="32" viewBox="0 0 264 32" fill="none" xmlns="http://www.w3.org/2000/svg">
<g clip-path="url(#clip0_7_98)">
<path d="M1.08618 24.2022C1.65193 24.1283 2.18231 24.2022 2.7127 24.3869C6.92043 25.3106 11.1635 25.717 15.442 26.0864C18.6243 26.382 21.8066 26.1973 24.9182 25.5322C26.2265 25.2736 27.4994 24.7933 28.6663 24.0913C30.3635 23.0568 30.116 20.84 28.7017 19.9533C27.2873 19.0666 25.8022 18.6971 24.2818 18.3646C21.7359 17.8104 19.1547 17.6626 16.5735 17.404C13.1436 17.0345 9.7138 16.6281 6.46077 15.1872C4.69281 14.4113 3.10165 13.3768 2.07624 11.6033C0.732591 9.46044 0.874027 6.68944 2.42983 4.73127C3.10165 3.84455 4.05635 3.3273 5.01104 2.84699C6.81436 1.99722 8.72375 1.44302 10.6685 1.18439C16.2552 0.445455 21.8773 0.297668 27.4641 0.814922C29.4088 0.999655 31.3889 1.18439 33.3337 1.44301C34.253 1.55385 34.2884 1.5908 34.2884 2.58836C34.2884 3.73371 34.2884 4.87905 34.2884 6.0244C34.2884 6.80028 34.2177 6.91112 33.4751 6.83723C32.6265 6.80028 31.7425 6.68944 30.8939 6.5786C26.2972 5.95051 21.6652 5.95051 16.9978 6.06135C16.1845 6.09829 15.3359 6.24608 14.5934 6.54165C13.9215 6.80028 13.4265 7.24364 13.3558 8.01952C13.2497 8.7954 13.5679 9.60822 14.2044 10.0516C15.5481 10.9753 17.1039 11.2708 18.695 11.4556C21.6652 11.7881 24.6354 12.0098 27.6055 12.3423C30.7171 12.7117 33.7226 13.4507 36.4099 15.1872C37.8597 16.1478 39.0972 17.404 39.6983 19.1035C41.0773 22.8721 40.2641 26.2712 37.011 28.3032C35.2784 29.4116 33.3337 29.9658 31.3889 30.4092C28.4541 31.0742 25.484 31.259 22.4784 31.3329C18.695 31.5176 14.947 31.4807 11.1635 31.1851C7.98121 30.8895 4.86961 30.2245 1.72265 29.6703C1.36905 29.5964 0.980103 29.5594 0.980103 29.0422L1.08618 24.2022Z" fill="white"/>
<path d="M92.5602 11.8989V29.3008C92.5602 29.5964 92.5602 29.892 92.5602 30.1506C92.5602 30.4092 92.4542 30.7048 92.1006 30.7048H87.5039C87.2917 30.7417 87.0796 30.557 87.0442 30.3353C87.0442 30.2984 87.0442 30.2984 87.0442 30.2614C87.0089 29.9289 87.0089 29.5964 87.0089 29.2639C87.0089 20.84 87.0089 12.4531 87.0089 4.02928C87.0089 2.40362 86.9381 2.55141 88.3879 2.55141C91.252 2.55141 94.116 2.55141 96.9801 2.55141C97.652 2.51446 98.2884 2.81004 98.7127 3.36424C103.486 9.01708 108.26 14.7069 113.033 20.3597C113.351 20.7292 113.67 21.0986 114.023 21.542C114.306 21.0247 114.2 20.5814 114.2 20.138C114.2 14.8547 114.2 9.53433 114.2 4.25096C114.2 3.95539 114.235 3.65981 114.2 3.40119C114.165 2.84699 114.377 2.58836 114.943 2.58836C116.428 2.62531 117.913 2.62531 119.433 2.58836C119.999 2.58836 120.211 2.81004 120.176 3.40119C120.14 3.65981 120.176 3.88149 120.176 4.14012V29.2639C120.176 29.4486 120.176 29.6703 120.176 29.892C120.14 30.7417 120.14 30.7787 119.292 30.7787C117.064 30.7787 114.801 30.7787 112.573 30.7787C111.796 30.7787 111.018 30.7417 110.204 30.7787C109.639 30.8156 109.108 30.5939 108.79 30.1136C104.547 25.2367 100.304 20.3228 96.0254 15.4827C95.0707 14.3743 94.116 13.3029 93.1613 12.1945C93.0553 11.9359 92.8078 11.825 92.5602 11.8989Z" fill="white"/>
<path d="M227.774 30.52C227.455 30.7417 227.102 30.7787 226.748 30.7048C224.025 30.7048 221.338 30.7048 218.616 30.7417C217.944 30.7787 217.307 30.4831 216.918 29.9289C214.302 26.6037 211.65 23.3154 209.033 19.9902C208.644 19.3991 208.008 19.1035 207.336 19.1405C206.452 19.2144 205.533 19.1405 204.613 19.1774C203.694 19.2144 203.694 19.2144 203.694 20.138C203.694 22.9829 203.694 25.7909 203.694 28.6358C203.694 29.1161 203.694 29.6333 203.694 30.1136C203.694 30.5939 203.517 30.7787 203.058 30.7787C200.476 30.7787 197.86 30.7787 195.278 30.7787C194.783 30.7787 194.536 30.5939 194.571 30.0767C194.571 29.8181 194.571 29.5964 194.571 29.3377C194.571 20.9139 194.571 12.527 194.571 4.10317C194.571 2.47752 194.465 2.62531 195.95 2.62531C201.502 2.62531 207.018 2.58836 212.569 2.62531C215.645 2.66225 218.439 3.58593 220.808 5.76578C222.859 7.65006 222.929 10.3841 222.045 12.527C221.197 14.5221 219.747 15.8892 217.979 16.9606C217.59 17.2192 217.095 17.3301 216.671 17.7734L227.774 30.52ZM207.513 15.2241C208.397 15.1872 209.599 15.298 210.766 15.1133C213.029 14.7808 214.16 13.3768 214.09 11.0122C214.019 9.05403 213.029 7.79784 211.049 7.35448C208.856 6.83723 206.593 6.91112 204.366 6.91112C203.729 6.91112 203.694 7.28059 203.694 7.79785C203.694 9.9777 203.694 12.1575 203.694 14.3374C203.694 15.2611 203.729 15.2611 204.649 15.2611C205.497 15.2241 206.381 15.2241 207.513 15.2241Z" fill="white"/>
<path d="M245.064 30.7417C242.235 30.8156 239.407 30.3723 236.719 29.4486C233.891 28.4141 231.309 26.9362 229.577 24.2761C227.172 20.7661 226.465 16.3325 227.597 12.1945C227.986 10.5319 228.728 8.94319 229.683 7.53921C231.451 5.10073 233.891 3.58592 236.578 2.62531C240.043 1.40607 243.72 0.962705 247.362 1.33217C249.06 1.47996 250.722 1.77553 252.348 2.18195C254.823 2.81004 257.157 4.10318 259.031 5.91356C262.037 8.83235 263.274 12.564 263.062 16.7759C262.779 22.0223 260.375 25.9017 255.884 28.3771C252.49 30.2245 248.812 30.6678 245.064 30.7417ZM245.807 6.31998C242.341 6.31998 239.972 7.28058 237.957 9.12792C234.315 12.4531 233.926 18.2168 237.108 22.0593C237.32 22.3179 237.533 22.5396 237.78 22.7612C242.235 26.9732 249.166 26.7515 252.985 22.0962C255.601 18.8818 255.884 14.4852 253.975 11.3447C252.242 8.35204 249.166 6.46776 245.807 6.31998Z" fill="white"/>
<path d="M126.576 16.6651V4.47265C126.576 4.21402 126.576 3.99234 126.576 3.73371C126.576 2.58837 126.576 2.55142 127.672 2.55142C129.298 2.55142 130.89 2.55142 132.516 2.55142C136.335 2.55142 140.118 2.55142 143.937 2.62531C146.766 2.69921 149.559 3.2534 152.105 4.69432C155.712 6.72639 157.904 9.75603 158.399 14.0418C158.823 17.5887 158.257 20.9139 156.383 23.9435C154.509 26.9732 151.928 28.7097 148.746 29.7442C146.483 30.4462 144.149 30.7787 141.78 30.7417C137.36 30.7417 132.905 30.7417 128.485 30.7417C126.399 30.7417 126.646 31.0742 126.646 28.8944C126.576 24.7933 126.576 20.7292 126.576 16.6651ZM135.309 16.4064V25.2736C135.309 25.7909 135.274 26.2712 136.017 26.2342C138.704 26.1603 141.462 26.4559 144.114 25.7539C146.766 25.0519 149.029 23.6849 150.019 20.6922C150.832 18.3277 150.973 15.7414 150.372 13.3029C149.983 11.6034 149.064 10.0885 147.72 9.05404C146.306 7.94564 144.609 7.24365 142.876 7.02197C140.684 6.76335 138.492 6.68944 136.299 6.72639C135.345 6.72639 135.309 6.7264 135.309 7.76091C135.309 10.6797 135.309 13.5615 135.309 16.4064Z" fill="white"/>
<path d="M42.6686 30.6678C42.6332 30.2984 42.7393 29.892 42.9868 29.6333C47.9017 20.9878 52.7813 12.3423 57.6608 3.69677C58.0144 2.92089 58.7923 2.47753 59.6056 2.55142C61.7271 2.62531 63.8487 2.58837 65.9702 2.55142C66.5713 2.47753 67.1371 2.81005 67.3846 3.40119C72.4056 12.2314 77.4266 21.0248 82.4829 29.8181C82.6244 30.0397 82.7304 30.2984 82.8365 30.557C82.4829 30.8526 82.1647 30.7417 81.8818 30.7417C78.6995 30.7417 75.5172 30.7048 72.3349 30.7787C71.663 30.8526 71.0266 30.4462 70.7791 29.8181C69.9304 28.2294 69.0111 26.7145 68.1625 25.1258C67.915 24.6086 67.3846 24.2761 66.8542 24.35C62.2929 24.3869 57.7315 24.3869 53.1702 24.35C52.5691 24.313 52.0387 24.6455 51.7912 25.1997C50.9072 26.7884 49.9525 28.3402 49.0686 29.9289C48.821 30.4462 48.2907 30.7417 47.7603 30.7048C46.063 30.6309 44.3658 30.6678 42.6686 30.6678ZM54.5139 20.5075C57.5901 20.7292 64.273 20.6553 65.263 20.3597C63.4951 17.367 61.7271 14.3744 59.8531 11.1969L54.5139 20.5075Z" fill="white"/>
<path d="M176.503 30.7417H164.127C163.844 30.7417 163.561 30.7417 163.314 30.7417C162.925 30.7417 162.748 30.52 162.748 30.1506C162.748 29.855 162.748 29.5964 162.748 29.3008V4.17706C162.748 3.95538 162.748 3.77065 162.748 3.54897C162.783 2.62531 162.783 2.62531 163.703 2.62531H188.207C189.126 2.62531 189.126 2.66225 189.161 3.58592C189.161 4.25096 189.161 4.916 189.161 5.5441C189.161 6.17219 189.02 6.50471 188.348 6.43081C188.065 6.43081 187.782 6.43081 187.535 6.43081H172.932C172.649 6.43081 172.366 6.43081 172.118 6.43081C171.588 6.39387 171.34 6.5786 171.34 7.2067C171.376 9.3496 171.376 11.4925 171.34 13.5985C171.34 14.2635 171.659 14.3374 172.154 14.3374C173.497 14.3374 174.806 14.3374 176.149 14.3374H184.989C186.12 14.3374 186.12 14.3374 186.12 15.4827C186.12 16 186.12 16.5542 186.12 17.0715C186.12 18.1799 186.12 18.1799 184.989 18.1799C183.857 18.1799 182.797 18.1799 181.701 18.1799C178.589 18.1799 175.477 18.1799 172.401 18.1799C171.376 18.1799 171.376 18.1799 171.376 19.2883C171.376 21.4681 171.376 23.648 171.376 25.8278C171.376 26.8254 171.376 26.8254 172.366 26.8254C177.917 26.8254 183.433 26.8254 188.985 26.8254C190.682 26.8254 190.47 26.6037 190.505 28.4141C190.505 29.153 190.788 30.0767 190.364 30.557C189.869 31.1481 188.949 30.7787 188.242 30.7787C184.282 30.7417 180.392 30.7417 176.503 30.7417Z" fill="white"/>
</g>
<defs>
<clipPath id="clip0_7_98">
<rect width="264" height="32" fill="white"/>
</clipPath>
</defs>
</svg>
