<svg width="69" height="16" viewBox="0 0 69 16" fill="none" xmlns="http://www.w3.org/2000/svg">
<path fill-rule="evenodd" clip-rule="evenodd" d="M26.1369 0C27.5899 0 28.7757 1.1858 28.7757 2.63883C28.7757 4.09186 27.5899 5.27766 26.1369 5.27766C24.6839 5.27766 23.498 4.09186 23.498 2.63883C23.498 1.1858 24.6839 0 26.1369 0Z" fill="white"/>
<path fill-rule="evenodd" clip-rule="evenodd" d="M23.9833 15.6993C24.1837 10.2547 25.0188 6.1795 26.0209 6.1795C27.023 6.1795 27.858 10.2547 28.0585 15.6993H23.9833ZM47.0981 5.42794V8.96865C45.5449 8.30059 42.7891 7.84965 39.666 7.84965C34.8058 7.84965 30.8643 8.91854 30.8643 10.2547C30.8643 11.5908 34.8058 12.6597 39.666 12.6597C42.7891 12.6597 45.5449 12.2087 47.0981 11.5407V14.9979C46.3466 15.1983 45.5115 15.3653 44.6096 15.4989C43.7077 15.6325 42.739 15.7327 41.7537 15.7828C40.7683 15.8329 39.7662 15.8496 38.7641 15.7995C25.2693 15.215 26.4384 5.0605 38.7808 4.55946C39.7829 4.52606 40.785 4.52606 41.7704 4.59286C42.7557 4.64297 43.7077 4.74318 44.6096 4.89349C45.5115 5.0438 46.3466 5.22752 47.0981 5.42794ZM58.5386 4.47595C64.0501 4.47595 68.5261 7.06468 68.5261 10.238C68.5261 13.4279 64.0501 16 58.5386 16C53.0271 16 48.5512 13.4112 48.5512 10.238C48.5512 7.06468 53.0271 4.47595 58.5386 4.47595ZM58.5386 7.66593C63.1649 7.66593 66.9061 8.81833 66.9061 10.2547C66.9061 11.691 63.1649 12.8434 58.5386 12.8434C53.9123 12.8434 50.1712 11.691 50.1712 10.2547C50.1712 8.81833 53.9123 7.66593 58.5386 7.66593ZM12.1587 4.55946C18.8727 4.55946 24.3173 5.27762 24.3173 6.1628C24.3173 6.96447 19.858 7.61583 14.0459 7.73274V15.6993H10.2547V7.73274C4.44259 7.61583 0 6.96447 0 6.1628C0 5.27762 5.44468 4.55946 12.1587 4.55946Z" fill="white"/>
</svg>
