<svg width="24" height="25" viewBox="0 0 24 25" fill="none" xmlns="http://www.w3.org/2000/svg">
<path d="M22 4.19898C21 4.68898 20.02 4.88798 19 5.18898C17.879 3.92398 16.217 3.85398 14.62 4.45198C13.023 5.04998 11.977 6.51198 12 8.18898V9.18898C8.755 9.27198 5.865 7.79398 4 5.18898C4 5.18898 -0.182 12.622 8 16.189C6.128 17.436 4.261 18.277 2 18.189C5.308 19.992 8.913 20.612 12.034 19.706C15.614 18.666 18.556 15.983 19.685 11.964C20.0218 10.7416 20.189 9.47884 20.182 8.21098C20.182 7.96198 21.692 5.43898 22 4.19798V4.19898Z" stroke="white" stroke-width="2" stroke-linecap="round" stroke-linejoin="round"/>
</svg>
