<svg width="24" height="25" viewBox="0 0 24 25" fill="none" xmlns="http://www.w3.org/2000/svg">
<path d="M2 8.18896C2 7.1281 2.42143 6.11068 3.17157 5.36054C3.92172 4.61039 4.93913 4.18896 6 4.18896H18C19.0609 4.18896 20.0783 4.61039 20.8284 5.36054C21.5786 6.11068 22 7.1281 22 8.18896V16.189C22 17.2498 21.5786 18.2672 20.8284 19.0174C20.0783 19.7675 19.0609 20.189 18 20.189H6C4.93913 20.189 3.92172 19.7675 3.17157 19.0174C2.42143 18.2672 2 17.2498 2 16.189V8.18896Z" stroke="white" stroke-width="2" stroke-linecap="round" stroke-linejoin="round"/>
<path d="M10 9.18896L15 12.189L10 15.189V9.18896Z" stroke="white" stroke-width="2" stroke-linecap="round" stroke-linejoin="round"/>
</svg>
