<svg width="56" height="56" viewBox="0 0 56 56" fill="none" xmlns="http://www.w3.org/2000/svg">
<path d="M51 24.466C51 30.2718 49 36.0777 45 40.3689L33.75 51.7282C32.5 52.9903 30.5 53.7476 28.75 54C26.75 54 25 53.4951 23.5 52.233L12.5 41.1262C8.5 36.5825 6 30.7767 6 24.7184C6 18.6602 8.5 12.8544 12.5 8.56311C16.75 4.52427 22.5 2 28.5 2C34.5 2 40.25 4.52427 44.5 8.56311C48.5 12.8544 51 18.4078 51 24.466Z" fill="#CE2C0D"/>
<path d="M19 33H37M19 19V20C19 20.7956 19.3161 21.5587 19.8787 22.1213C20.4413 22.6839 21.2044 23 22 23C22.7956 23 23.5587 22.6839 24.1213 22.1213C24.6839 21.5587 25 20.7956 25 20M19 19H37M19 19L21 15H35L37 19M25 20V19M25 20C25 20.7956 25.3161 21.5587 25.8787 22.1213C26.4413 22.6839 27.2044 23 28 23C28.7956 23 29.5587 22.6839 30.1213 22.1213C30.6839 21.5587 31 20.7956 31 20M31 20V19M31 20C31 20.7956 31.3161 21.5587 31.8787 22.1213C32.4413 22.6839 33.2044 23 34 23C34.7956 23 35.5587 22.6839 36.1213 22.1213C36.6839 21.5587 37 20.7956 37 20V19M21 33V22.85M35 33V22.85M25 33V29C25 28.4696 25.2107 27.9609 25.5858 27.5858C25.9609 27.2107 26.4696 27 27 27H29C29.5304 27 30.0391 27.2107 30.4142 27.5858C30.7893 27.9609 31 28.4696 31 29V33" stroke="white" stroke-width="2" stroke-linecap="round" stroke-linejoin="round"/>
</svg>
