<svg width="45" height="52" viewBox="0 0 45 52" fill="none" xmlns="http://www.w3.org/2000/svg">
<path d="M45 22.466C45 28.2718 43 34.0777 39 38.3689L27.75 49.7282C26.5 50.9903 24.5 51.7476 22.75 52C20.75 52 19 51.4951 17.5 50.233L6.5 39.1262C2.5 34.5825 0 28.7767 0 22.7184C0 16.6602 2.5 10.8544 6.5 6.56311C10.75 2.52427 16.5 0 22.5 0C28.5 0 34.25 2.52427 38.5 6.56311C42.5 10.8544 45 16.4078 45 22.466Z" fill="#DD562C"/>
<path d="M16.9999 20H19.9999V17L16.4999 13.5C17.6195 12.9652 18.8774 12.7908 20.1003 13.0006C21.3232 13.2104 22.4509 13.7942 23.3283 14.6715C24.2056 15.5489 24.7894 16.6767 24.9992 17.8996C25.209 19.1225 25.0346 20.3803 24.4999 21.5L30.4999 27.5C30.8977 27.8978 31.1212 28.4374 31.1212 29C31.1212 29.5626 30.8977 30.1022 30.4999 30.5C30.102 30.8978 29.5625 31.1213 28.9999 31.1213C28.4372 31.1213 27.8977 30.8978 27.4999 30.5L21.4999 24.5C20.3802 25.0347 19.1224 25.2092 17.8995 24.9994C16.6766 24.7895 15.5488 24.2058 14.6714 23.3284C13.7941 22.451 13.2103 21.3233 13.0005 20.1004C12.7907 18.8775 12.9651 17.6196 13.4999 16.5L16.9999 20Z" stroke="white" stroke-width="2" stroke-linecap="round" stroke-linejoin="round"/>
</svg>
