<svg width="56" height="56" viewBox="0 0 56 56" fill="none" xmlns="http://www.w3.org/2000/svg">
<path d="M51 24.466C51 30.2718 49 36.0777 45 40.3689L33.75 51.7282C32.5 52.9903 30.5 53.7476 28.75 54C26.75 54 25 53.4951 23.5 52.233L12.5 41.1262C8.5 36.5825 6 30.7767 6 24.7184C6 18.6602 8.5 12.8544 12.5 8.56311C16.75 4.52427 22.5 2 28.5 2C34.5 2 40.25 4.52427 44.5 8.56311C48.5 12.8544 51 18.4078 51 24.466Z" fill="#CE2C0D"/>
<path d="M22.9999 21.9999H25.9999V18.9999L22.4999 15.4999C23.6195 14.9651 24.8774 14.7907 26.1003 15.0005C27.3232 15.2103 28.4509 15.7941 29.3283 16.6714C30.2056 17.5488 30.7894 18.6766 30.9992 19.8995C31.209 21.1224 31.0346 22.3802 30.4999 23.4999L36.4999 29.4999C36.8977 29.8977 37.1212 30.4372 37.1212 30.9999C37.1212 31.5625 36.8977 32.102 36.4999 32.4999C36.102 32.8977 35.5625 33.1212 34.9999 33.1212C34.4372 33.1212 33.8977 32.8977 33.4999 32.4999L27.4999 26.4999C26.3802 27.0346 25.1224 27.209 23.8995 26.9992C22.6766 26.7894 21.5488 26.2056 20.6714 25.3283C19.7941 24.4509 19.2103 23.3232 19.0005 22.1003C18.7907 20.8774 18.9651 19.6195 19.4999 18.4999L22.9999 21.9999Z" stroke="white" stroke-width="2" stroke-linecap="round" stroke-linejoin="round"/>
</svg>
