<svg width="160" height="96" viewBox="0 0 160 96" fill="none" xmlns="http://www.w3.org/2000/svg">
<path d="M0.0789002 56.887C-0.398635 59.2034 1.35233 61.4121 3.68694 61.4121H10.9561L7.02969 80.3206H12.8132L16.7396 61.4121H25.7597C28.4126 61.4121 30.6942 59.5266 31.2248 56.887H0.0789002Z" fill="#041A42"/>
<path d="M116.12 0C115.059 5.17156 110.549 8.88862 105.349 8.88862H87.521L87.0435 11.2589L85.2925 19.7166L79.7744 46.1131H68.4196L73.9378 19.7166L75.6888 11.2589L76.1663 8.88862H52.2365C47.6203 8.88862 44.1715 4.57899 45.1265 0L116.12 0Z" fill="#CE2C0D"/>
<path d="M77.3342 76.0117C77.0689 77.2507 76.3791 78.3281 75.4771 79.0823C74.5221 79.8365 73.3548 80.2674 72.1344 80.2674H67.9427C66.8815 80.2674 66.1387 79.2978 66.3509 78.2742L66.8284 76.0117L68.6325 67.3924H66.1387L67.0407 64.5911C67.359 63.6753 68.1549 63.0828 69.11 63.0828H75.318L72.6119 76.0117H77.3342Z" fill="#041A42"/>
<path d="M104.712 76.0117C104.447 77.2507 103.757 78.3281 102.855 79.0823C101.9 79.8365 100.732 80.2674 99.512 80.2674H95.3203C94.2591 80.2674 93.5163 79.2978 93.7285 78.2742L94.206 76.0117L96.0101 67.3924H93.4102L94.3122 64.5911C94.6305 63.6753 95.4264 63.0828 96.3815 63.0828H102.589L99.8834 76.0117H104.712Z" fill="#041A42"/>
<path d="M92.8793 76.011C92.3487 78.489 90.1732 80.3206 87.6264 80.3206H79.6144C78.5532 80.3206 77.8104 79.3509 78.0226 78.3274L78.5002 76.0648L78.8185 74.5564L80.3042 67.5533H78.0226L78.9777 63.1359H81.2593C82.6388 63.1359 83.5408 62.274 84.1245 61.1427C84.7081 60.0653 84.9734 58.7724 85.1326 57.9644H88.1039L87.7856 59.5266L87.0427 63.1359H91.1814L90.0141 67.5533H86.1407L84.7612 74.1794L84.3898 76.0648H92.8793V76.011Z" fill="#041A42"/>
<path d="M72.2938 11.259L70.5428 19.7167H63.6982C61.2044 19.7167 58.8697 18.8548 57.0657 17.3464C55.2617 15.838 53.8822 13.7371 53.3516 11.259H72.2938Z" fill="#DD562C"/>
<path d="M107.897 11.259C107.366 13.7371 106.04 15.838 104.182 17.3464C102.378 18.8548 100.044 19.7167 97.5501 19.7167H88.1055L89.8564 11.259H107.897Z" fill="#DD562C"/>
<path d="M60.0891 76.0112L64.3339 55.8098H58.5504L57.1178 62.7052H52.4485C52.3955 62.7052 52.3424 62.7052 52.2363 62.7052H31.1186C27.6698 62.7052 25.0699 63.4594 23.2659 65.0217C21.4618 66.5839 20.2945 68.7926 19.7109 71.6477C19.1272 74.5567 19.4986 76.7654 20.8251 78.3277C22.1516 79.8899 24.327 80.6441 27.4045 80.6441C30.9064 80.6441 33.5063 79.8899 35.3103 78.3277C37.1144 76.7654 38.2817 74.5567 38.8653 71.6477C39.2367 69.8161 39.2367 68.2539 38.8653 66.961H44.3835C43.5346 68.2539 42.9509 69.87 42.5264 71.8093C42.102 73.8564 42.102 75.5264 42.5264 76.8193C42.9509 78.1122 43.6937 79.0818 44.7549 79.6744C45.8161 80.267 47.0365 80.5902 48.4691 80.5902C49.6364 80.5902 50.6445 80.4286 51.5996 80.1593C52.5547 79.836 53.4036 79.4051 54.1995 78.8125C54.1995 79.6205 54.8893 80.267 55.6852 80.267H60.6728C63.2196 80.267 65.3951 78.4893 65.9256 75.9574H60.0891V76.0112ZM32.0737 72.9406C31.7023 74.7183 30.1636 76.0651 28.3596 76.0651H28.3065C26.98 76.0651 26.1311 75.7419 25.7066 75.0416C25.2821 74.3412 25.229 73.21 25.5474 71.6477C25.8658 70.0855 27.1392 66.961 27.1392 66.961H33.3471L32.0737 72.9406ZM54.8893 72.9406C54.5179 74.7183 52.9791 76.0651 51.1751 76.0651H51.1221C49.7956 76.0651 48.9466 75.7419 48.5221 75.0416C48.0977 74.3412 48.0446 73.21 48.363 71.6477C48.6813 70.0855 49.9548 66.961 49.9548 66.961H56.1627L54.8893 72.9406Z" fill="#041A42"/>
<path d="M75.7421 58.3416C75.7421 60.1193 74.3095 61.5738 72.5586 61.5738C70.8076 61.5738 69.375 60.1193 69.375 58.3416C69.375 56.5639 70.8076 55.1094 72.5586 55.1094C74.3095 55.1094 75.7421 56.5639 75.7421 58.3416Z" fill="#041A42"/>
<path d="M16.2617 95.1889L18.0127 86.8929H18.8616L18.8086 87.4855C19.1269 87.2161 19.4453 87.0545 19.7636 86.9468C20.082 86.839 20.4534 86.7852 20.8779 86.7852C21.6207 86.7852 22.2044 87.0006 22.5758 87.4855C22.9472 87.9703 23.0003 88.7245 22.788 89.748C22.5758 90.7716 22.2044 91.5258 21.6738 92.0106C21.1432 92.4954 20.4534 92.7109 19.6045 92.7109C18.8616 92.7109 18.278 92.5493 17.8535 92.1722L17.2168 95.1889H16.2617ZM19.4983 91.9028C20.1351 91.9028 20.6126 91.7412 20.984 91.418C21.3554 91.0948 21.6207 90.5561 21.7799 89.748C21.9391 88.9938 21.9391 88.4551 21.7268 88.078C21.5677 87.701 21.0901 87.5393 20.4004 87.5393C19.7636 87.5393 19.1269 87.7548 18.6494 88.2397L18.0127 91.3641C18.1719 91.5258 18.3841 91.6874 18.5963 91.7951C18.8616 91.849 19.18 91.9028 19.4983 91.9028Z" fill="#041A42"/>
<path d="M26.2901 92.7111C25.4942 92.7111 24.9106 92.4956 24.5922 92.0646C24.2208 91.6337 24.1678 90.9333 24.38 89.9098C24.5392 89.2095 24.7514 88.6708 25.0698 88.1859C25.3881 87.7011 25.7595 87.3779 26.2371 87.1085C26.6616 86.8931 27.1391 86.7314 27.6697 86.7314C28.0411 86.7314 28.3595 86.7853 28.6248 86.8392C28.89 86.9469 29.1553 87.0547 29.3676 87.2701L29.4737 86.8392H30.4288L29.2615 92.5495H28.4125L28.4656 91.9569C28.1472 92.2262 27.8289 92.3878 27.5105 92.4956C27.086 92.6572 26.6616 92.7111 26.2901 92.7111ZM26.6616 91.903C26.9799 91.903 27.2983 91.8491 27.6166 91.7414C27.935 91.6337 28.2003 91.472 28.4656 91.2027L29.1023 88.0782C28.9431 87.9166 28.7839 87.755 28.5717 87.6472C28.3595 87.5395 28.0942 87.4856 27.7227 87.4856C27.086 87.4856 26.5554 87.7011 26.131 88.0782C25.7065 88.4553 25.4412 89.0479 25.282 89.8559C25.1228 90.6101 25.1759 91.0949 25.3351 91.4182C25.5473 91.7953 25.9718 91.903 26.6616 91.903Z" fill="#041A42"/>
<path d="M31.3301 92.6032L32.4974 86.8929H33.3463L33.2402 87.5932C33.5586 87.4316 33.93 87.2161 34.3014 87.1084C34.7259 86.9468 35.0973 86.839 35.4687 86.7852L35.3095 87.5393C35.0973 87.5932 34.832 87.6471 34.5667 87.7548C34.3014 87.8626 34.0361 87.9164 33.7708 88.0242C33.5055 88.1319 33.2933 88.2397 33.1341 88.3474L32.2321 92.6032H31.3301Z" fill="#041A42"/>
<path d="M38.0166 92.7109C37.486 92.7109 37.1146 92.5493 36.9023 92.2799C36.6901 91.9567 36.637 91.5796 36.7432 91.0409L37.4329 87.7009H36.584L36.7432 86.9468H37.5921L37.9105 85.5461L38.9186 85.2229L38.5472 86.9468H40.0859L39.8737 87.7009H38.388L37.6982 90.987C37.6452 91.3103 37.6452 91.5796 37.7513 91.7412C37.8574 91.9028 38.0696 91.9567 38.4411 91.9567C38.5472 91.9567 38.6533 91.9567 38.8125 91.9028C38.9717 91.9028 39.0778 91.849 39.237 91.7951L39.0778 92.5493C38.7594 92.657 38.388 92.7109 38.0166 92.7109Z" fill="#041A42"/>
<path d="M43.5348 92.7111C42.5797 92.7111 41.89 92.4417 41.4655 91.9569C41.041 91.472 40.9349 90.7179 41.1471 89.6943C41.3594 88.7785 41.7308 88.0782 42.2083 87.5395C42.7389 87.0008 43.4817 86.7314 44.4368 86.7314C44.9674 86.7314 45.4449 86.8392 45.7633 87.0547C46.0817 87.2702 46.2939 87.5395 46.4 87.9166C46.5061 88.2937 46.5061 88.6708 46.4 89.1017L46.1878 90.1791H42.0491C41.9961 90.6101 41.9961 90.9333 42.1022 91.2027C42.2083 91.472 42.3675 91.6337 42.6328 91.7414C42.8981 91.8491 43.3226 91.903 43.9062 91.903C44.4899 91.903 45.0205 91.7953 45.5511 91.5798L45.3919 92.334C45.1266 92.4417 44.8082 92.4956 44.5429 92.5495C44.1715 92.6572 43.8532 92.7111 43.5348 92.7111ZM42.1553 89.4788H45.4449L45.5511 88.994C45.6572 88.5092 45.6041 88.1859 45.4449 87.9166C45.2858 87.6472 44.9144 87.5395 44.2776 87.5395C43.6409 87.5395 43.1634 87.7011 42.845 88.0243C42.5267 88.3476 42.3144 88.8324 42.1553 89.4788Z" fill="#041A42"/>
<path d="M49.3704 92.7109C49.0521 92.7109 48.7337 92.7109 48.3623 92.657C48.0439 92.6032 47.7786 92.5493 47.5664 92.4954L47.7256 91.6335C48.2562 91.849 48.7868 91.9028 49.3704 91.9028C49.848 91.9028 50.2194 91.849 50.4847 91.7412C50.6969 91.6335 50.8561 91.418 50.9092 91.1487C50.9622 90.9332 50.9092 90.7716 50.8561 90.6638C50.75 90.5561 50.5908 90.4483 50.3786 90.3406C50.1663 90.2329 49.901 90.1251 49.5296 90.0174C49.2113 89.9096 48.946 89.8019 48.7337 89.6403C48.5215 89.5325 48.3623 89.3171 48.2562 89.1555C48.1501 88.94 48.1501 88.6706 48.2031 88.3474C48.3092 87.8626 48.5745 87.4316 48.8929 87.1622C49.2643 86.8929 49.848 86.7852 50.6969 86.7852C51.0153 86.7852 51.2806 86.7852 51.5459 86.839C51.8112 86.8929 52.0234 86.9468 52.2356 87.0006L52.0765 87.8626C51.5989 87.701 51.1745 87.5932 50.6969 87.5932C50.2194 87.5932 49.901 87.6471 49.6357 87.7548C49.3704 87.8626 49.2112 88.0242 49.1582 88.2935C49.1051 88.4551 49.1582 88.6167 49.2112 88.7245C49.2643 88.8322 49.4235 88.94 49.6357 88.9938C49.848 89.0477 50.0602 89.1554 50.3786 89.2632C50.9622 89.4787 51.3867 89.6942 51.652 89.9096C51.8642 90.179 51.9703 90.5022 51.8642 90.987C51.7581 91.5257 51.4928 91.9567 51.1214 92.2261C50.803 92.6032 50.1663 92.7109 49.3704 92.7109Z" fill="#041A42"/>
<path d="M58.6558 94.7043C58.5497 94.7043 58.3905 94.7043 58.1783 94.7043C58.0191 94.7043 57.8069 94.7043 57.6477 94.6504C57.4885 94.6504 57.3293 94.5965 57.2232 94.5965L57.3824 93.7346C57.5416 93.7885 57.7538 93.8423 57.9661 93.8423C58.2314 93.8423 58.4436 93.8962 58.5497 93.8962C59.1864 93.8962 59.7701 93.7885 60.1946 93.6269C60.619 93.4653 60.9374 93.0882 60.9904 92.6033L61.1496 91.9569C60.8313 92.1724 60.4599 92.3878 60.0884 92.4956C59.664 92.6572 59.2395 92.7111 58.815 92.7111C58.1783 92.7111 57.7538 92.4956 57.4355 92.1185C57.1702 91.7414 57.064 91.2027 57.2232 90.5024L57.9661 86.8931H58.9211L58.1783 90.5563C58.0722 91.095 58.1252 91.4182 58.2844 91.6337C58.4436 91.8491 58.815 91.9569 59.3456 91.9569C59.717 91.9569 60.0354 91.903 60.3537 91.7414C60.6721 91.6337 60.9904 91.4182 61.2557 91.2027L62.1578 86.8931H63.1128L61.9455 92.4956C61.7863 93.2498 61.4149 93.8424 60.8313 94.1656C60.4599 94.5427 59.664 94.7043 58.6558 94.7043Z" fill="#041A42"/>
<path d="M67.1992 95.1889L68.9502 86.8929H69.7991L69.7461 87.4855C70.0644 87.2161 70.3828 87.0545 70.7011 86.9468C71.0195 86.839 71.3909 86.7852 71.8154 86.7852C72.5582 86.7852 73.1419 87.0006 73.5133 87.4855C73.8847 87.9703 73.9378 88.7245 73.7255 89.748C73.5133 90.7716 73.1419 91.5258 72.6113 92.0106C72.0807 92.4954 71.3909 92.7109 70.542 92.7109C69.7991 92.7109 69.2155 92.5493 68.791 92.1722L68.1543 95.1889H67.1992ZM70.4889 91.9028C71.1256 91.9028 71.6032 91.7412 71.9746 91.418C72.346 91.0948 72.6113 90.5561 72.7705 89.748C72.9296 88.9938 72.9296 88.4551 72.7174 88.078C72.5582 87.701 72.0807 87.5393 71.3909 87.5393C70.7542 87.5393 70.1175 87.7548 69.64 88.2397L69.0032 91.3641C69.1624 91.5258 69.3747 91.6874 69.5869 91.7951C69.8522 91.849 70.1175 91.9028 70.4889 91.9028Z" fill="#041A42"/>
<path d="M75.5293 92.6033L76.5905 87.7011H75.6885L75.9538 86.8931H77.7047L76.5374 92.6033H75.5293Z" fill="#041A42"/>
<path d="M81.525 92.7111C80.57 92.7111 79.8802 92.4417 79.4557 91.9569C79.0312 91.472 78.9251 90.7179 79.1374 89.6943C79.3496 88.7785 79.721 88.0782 80.1986 87.5395C80.7292 87.0008 81.472 86.7314 82.4271 86.7314C82.9576 86.7314 83.4352 86.8392 83.7535 87.0547C84.0719 87.2702 84.2841 87.5395 84.3903 87.9166C84.4964 88.2937 84.4964 88.6708 84.3903 89.1017L84.178 90.1791H80.0394C79.9863 90.6101 79.9863 90.9333 80.0924 91.2027C80.1986 91.472 80.3577 91.6337 80.623 91.7414C80.8883 91.8491 81.3128 91.903 81.8965 91.903C82.4801 91.903 83.0107 91.7953 83.5413 91.5798L83.3821 92.334C83.1168 92.4417 82.7985 92.4956 82.5332 92.5495C82.1618 92.6572 81.8434 92.7111 81.525 92.7111ZM80.1455 89.4788H83.4352L83.5413 88.994C83.6474 88.5092 83.5944 88.1859 83.4352 87.9166C83.276 87.6472 82.9046 87.5395 82.2679 87.5395C81.6312 87.5395 81.1536 87.7011 80.8353 88.0243C80.5169 88.3476 80.3047 88.8324 80.1455 89.4788Z" fill="#041A42"/>
<path d="M85.2383 92.6033L85.3444 92.0646L89.5361 87.7011H86.4056L86.5648 86.8931H90.8626L90.7565 87.4856L86.6178 91.8491H89.9075L89.8014 92.6033H85.2383Z" fill="#041A42"/>
<path d="M93.8351 92.7111C93.0392 92.7111 92.4555 92.4956 92.1372 92.0646C91.7657 91.6337 91.7127 90.9333 91.9249 89.9098C92.0841 89.2095 92.2963 88.6708 92.6147 88.1859C92.933 87.7011 93.3045 87.3779 93.782 87.1085C94.2065 86.8931 94.684 86.7314 95.2146 86.7314C95.586 86.7314 95.9044 86.7853 96.1697 86.8392C96.435 86.9469 96.7003 87.0547 96.9125 87.2701L97.0186 86.8392H97.9737L96.8064 92.5495H95.9574L96.0105 91.9569C95.6921 92.2262 95.3738 92.3878 95.0554 92.4956C94.631 92.6572 94.2065 92.7111 93.8351 92.7111ZM94.2065 91.903C94.5248 91.903 94.8432 91.8491 95.1615 91.7414C95.4799 91.6337 95.7452 91.472 96.0105 91.2027L96.6472 88.0782C96.488 87.9166 96.3289 87.755 96.1166 87.6472C95.9044 87.5395 95.6391 87.4856 95.2677 87.4856C94.6309 87.4856 94.1004 87.7011 93.6759 88.0782C93.2514 88.4553 92.9861 89.0479 92.8269 89.8559C92.6677 90.6101 92.7208 91.0949 92.88 91.4182C93.0922 91.7953 93.5167 91.903 94.2065 91.903Z" fill="#041A42"/>
<path d="M100.574 92.7109C100.255 92.7109 99.9368 92.7109 99.5654 92.657C99.2471 92.6032 98.9818 92.5493 98.7695 92.4954L98.9287 91.6335C99.4593 91.849 99.9899 91.9028 100.574 91.9028C101.051 91.9028 101.423 91.849 101.688 91.7412C101.9 91.6335 102.059 91.418 102.112 91.1487C102.165 90.9332 102.112 90.7716 102.059 90.6638C101.953 90.5561 101.794 90.4483 101.582 90.3406C101.369 90.2329 101.104 90.1251 100.733 90.0174C100.414 89.9096 100.149 89.8019 99.9368 89.6403C99.7246 89.5325 99.5654 89.3171 99.4593 89.1555C99.3532 88.94 99.3532 88.6706 99.4062 88.3474C99.5124 87.8626 99.7777 87.4316 100.096 87.1622C100.467 86.8929 101.051 86.7852 101.9 86.7852C102.218 86.7852 102.484 86.7852 102.749 86.839C103.014 86.8929 103.227 86.9468 103.439 87.0006L103.28 87.8626C102.802 87.701 102.378 87.5932 101.9 87.5932C101.423 87.5932 101.104 87.6471 100.839 87.7548C100.574 87.8626 100.414 88.0242 100.361 88.2935C100.308 88.4551 100.361 88.6167 100.414 88.7245C100.467 88.8322 100.627 88.94 100.839 88.9938C101.051 89.0477 101.263 89.1554 101.582 89.2632C102.165 89.4787 102.59 89.6942 102.855 89.9096C103.067 90.179 103.173 90.5022 103.067 90.987C102.961 91.5257 102.696 91.9567 102.325 92.2261C102.006 92.6032 101.423 92.7109 100.574 92.7109Z" fill="#041A42"/>
<path d="M77.97 85.1692C77.97 85.4925 77.7047 85.7618 77.3864 85.7618C77.068 85.7618 76.8027 85.4925 76.8027 85.1692C76.8027 84.846 77.068 84.5767 77.3864 84.5767C77.7047 84.5767 77.97 84.846 77.97 85.1692Z" fill="#041A42"/>
<path d="M102.908 58.3416C102.908 60.1193 101.476 61.5738 99.7246 61.5738C97.9736 61.5738 96.541 60.1193 96.541 58.3416C96.541 56.5639 97.9736 55.1094 99.7246 55.1094C101.476 55.1094 102.908 56.5639 102.908 58.3416Z" fill="#041A42"/>
<path d="M135.009 62.7053C134.956 62.7053 134.903 62.7053 134.85 62.7053H111.822C110.018 62.7053 108.426 63.9982 108.055 65.8298L107.684 67.392L106.463 73.3178L105.986 75.5265C105.455 77.9506 107.312 80.2671 109.753 80.2671H110.761H115.642C116.916 80.2671 118.083 79.8361 118.985 79.0819C119.887 78.3277 120.577 77.2503 120.842 76.0113H113.308C112.459 76.0113 111.769 75.2033 111.981 74.3413L113.308 68.0924C113.467 67.4459 113.998 67.015 114.634 67.015H125.458C124.609 68.3078 123.973 69.8701 123.601 71.7017C123.018 74.6107 123.389 76.8194 124.716 78.3816C126.042 79.9439 128.218 80.698 131.295 80.698C134.797 80.698 137.397 79.9439 139.201 78.3816C141.005 76.8194 142.172 74.6107 142.756 71.7017C143.127 69.8701 143.127 68.3078 142.756 67.015H155.808C156.976 67.015 158.037 66.5301 158.78 65.7759C159.523 65.0217 160 63.9443 160 62.7592H135.009V62.7053ZM136.123 72.9407C135.752 74.7184 134.213 76.0652 132.409 76.0652H132.356C131.03 76.0652 130.181 75.742 129.756 75.0416C129.332 74.3413 129.279 73.2101 129.597 71.6478C129.915 70.0856 131.189 66.9611 131.189 66.9611H137.397L136.123 72.9407Z" fill="#041A42"/>
</svg>
