<svg width="162" height="40" viewBox="0 0 162 40" fill="none" xmlns="http://www.w3.org/2000/svg">
<path d="M0.0798532 1.77411C-0.40345 4.08595 1.36866 6.29026 3.73147 6.29026H11.0884L7.11459 25.1613H12.9679L16.9418 6.29026H26.0708C28.7558 6.29026 31.0649 4.40853 31.6019 1.77411H0.0798532Z" fill="#041A42"/>
<path d="M78.2673 20.8605C77.9988 22.097 77.3007 23.1723 76.3878 23.925C75.4212 24.6777 74.2398 25.1078 73.0047 25.1078H68.7623C67.6883 25.1078 66.9365 24.14 67.1513 23.1185L67.6346 20.8605L69.4604 12.2583H66.9365L67.8494 9.46254C68.1716 8.54856 68.9771 7.95715 69.9437 7.95715H76.2267L73.488 20.8605H78.2673Z" fill="#041A42"/>
<path d="M105.977 20.8605C105.709 22.097 105.011 23.1723 104.098 23.925C103.131 24.6777 101.95 25.1078 100.715 25.1078H96.4723C95.3983 25.1078 94.6465 24.14 94.8613 23.1185L95.3446 20.8605L97.1704 12.2583H94.5391L95.452 9.46254C95.7742 8.54856 96.5797 7.95715 97.5463 7.95715H103.829L101.09 20.8605H105.977Z" fill="#041A42"/>
<path d="M94.0015 20.8602C93.4645 23.3334 91.2628 25.1613 88.6852 25.1613H80.5765C79.5025 25.1613 78.7506 24.1936 78.9654 23.1721L79.4487 20.914L79.771 19.4086L81.2746 12.4193H78.9654L79.9321 8.01068H82.2412C83.6374 8.01068 84.5503 7.15047 85.141 6.02143C85.7317 4.94615 86.0002 3.65582 86.1613 2.84937H89.1685L88.8463 4.40851L88.0945 8.01068H92.2831L91.1017 12.4193H87.1816L85.7854 19.0323L85.4095 20.914H94.0015V20.8602Z" fill="#041A42"/>
<path d="M60.8154 20.8602L65.1114 0.698792H59.2581L57.8082 7.58055H53.0825C53.0288 7.58055 52.9751 7.58055 52.8677 7.58055H31.495C28.0045 7.58055 25.3732 8.33324 23.5474 9.89239C21.7216 11.4515 20.5402 13.6559 19.9494 16.5053C19.3587 19.4086 19.7346 21.6129 21.0772 23.172C22.4197 24.7312 24.6214 25.4839 27.736 25.4839C31.2802 25.4839 33.9115 24.7312 35.7373 23.172C37.5632 21.6129 38.7446 19.4086 39.3353 16.5053C39.7112 14.6774 39.7112 13.1182 39.3353 11.8279H44.9201C44.0609 13.1182 43.4702 14.7311 43.0406 16.6666C42.611 18.7096 42.611 20.3763 43.0406 21.6667C43.4702 22.957 44.222 23.9247 45.296 24.5161C46.37 25.1075 47.6051 25.4301 49.055 25.4301C50.2364 25.4301 51.2567 25.2688 52.2233 25C53.1899 24.6774 54.0491 24.2473 54.8547 23.6559C54.8547 24.4624 55.5528 25.1075 56.3583 25.1075H61.4061C63.9837 25.1075 66.1854 23.3333 66.7224 20.8064H60.8154V20.8602ZM32.4616 17.7957C32.0857 19.5699 30.5284 20.914 28.7026 20.914H28.6489C27.3064 20.914 26.4472 20.5914 26.0176 19.8925C25.588 19.1935 25.5343 18.0645 25.8565 16.5053C26.1787 14.9462 27.4675 11.8279 27.4675 11.8279H33.7504L32.4616 17.7957ZM55.5528 17.7957C55.1769 19.5699 53.6195 20.914 51.7937 20.914H51.74C50.3975 20.914 49.5383 20.5914 49.1087 19.8925C48.6791 19.1935 48.6254 18.0645 48.9476 16.5053C49.2698 14.9462 50.5586 11.8279 50.5586 11.8279H56.8416L55.5528 17.7957Z" fill="#041A42"/>
<path d="M76.6569 3.22582C76.6569 5.00003 75.207 6.45165 73.4349 6.45165C71.6628 6.45165 70.2129 5.00003 70.2129 3.22582C70.2129 1.45162 71.6628 0 73.4349 0C75.207 0 76.6569 1.45162 76.6569 3.22582Z" fill="#041A42"/>
<path d="M16.458 40L18.2301 31.7204H19.0893L19.0356 32.3118C19.3578 32.043 19.68 31.8817 20.0022 31.7741C20.3244 31.6666 20.7003 31.6129 21.1299 31.6129C21.8817 31.6129 22.4724 31.8279 22.8483 32.3118C23.2242 32.7956 23.2779 33.5483 23.0631 34.5699C22.8483 35.5914 22.4724 36.3441 21.9354 36.8279C21.3984 37.3118 20.7003 37.5269 19.8411 37.5269C19.0893 37.5269 18.4986 37.3656 18.069 36.9892L17.4246 40H16.458ZM19.7337 36.7204C20.3781 36.7204 20.8614 36.5591 21.2373 36.2365C21.6132 35.9139 21.8817 35.3763 22.0428 34.5699C22.2039 33.8172 22.2039 33.2795 21.9891 32.9032C21.828 32.5268 21.3447 32.3655 20.6466 32.3655C20.0022 32.3655 19.3578 32.5806 18.8745 33.0645L18.2301 36.1828C18.3912 36.3441 18.606 36.5053 18.8208 36.6129C19.0893 36.6666 19.4115 36.7204 19.7337 36.7204Z" fill="#041A42"/>
<path d="M26.6077 37.527C25.8022 37.527 25.2115 37.3119 24.8893 36.8818C24.5134 36.4517 24.4597 35.7528 24.6745 34.7313C24.8356 34.0323 25.0504 33.4947 25.3726 33.0108C25.6948 32.5269 26.0707 32.2044 26.554 31.9355C26.9836 31.7205 27.4669 31.5592 28.0039 31.5592C28.3798 31.5592 28.702 31.613 28.9705 31.6667C29.239 31.7743 29.5075 31.8818 29.7223 32.0968L29.8297 31.6667H30.7963L29.6149 37.3657H28.7557L28.8094 36.7743C28.4872 37.0431 28.165 37.2044 27.8428 37.3119C27.4132 37.4732 26.9836 37.527 26.6077 37.527ZM26.9836 36.7205C27.3058 36.7205 27.628 36.6668 27.9502 36.5592C28.2724 36.4517 28.5409 36.2904 28.8094 36.0216L29.4538 32.9033C29.2927 32.742 29.1316 32.5807 28.9168 32.4732C28.702 32.3657 28.4335 32.3119 28.0576 32.3119C27.4132 32.3119 26.8762 32.527 26.4466 32.9033C26.017 33.2796 25.7485 33.871 25.5874 34.6775C25.4263 35.4302 25.48 35.9141 25.6411 36.2366C25.8559 36.613 26.2855 36.7205 26.9836 36.7205Z" fill="#041A42"/>
<path d="M31.709 37.4193L32.8904 31.7204H33.7496L33.6422 32.4193C33.9644 32.258 34.3403 32.043 34.7162 31.9354C35.1458 31.7741 35.5217 31.6666 35.8976 31.6129L35.7365 32.3655C35.5217 32.4193 35.2532 32.4731 34.9847 32.5806C34.7162 32.6881 34.4477 32.7419 34.1792 32.8494C33.9107 32.9569 33.6959 33.0645 33.5348 33.172L32.6219 37.4193H31.709Z" fill="#041A42"/>
<path d="M38.4753 37.5269C37.9383 37.5269 37.5624 37.3656 37.3476 37.0968C37.1328 36.7742 37.0791 36.3978 37.1865 35.8602L37.8846 32.5268H37.0254L37.1865 31.7741H38.0457L38.3679 30.3763L39.3882 30.0537L39.0123 31.7741H40.5696L40.3548 32.5268H38.8512L38.1531 35.8064C38.0994 36.129 38.0994 36.3978 38.2068 36.5591C38.3142 36.7204 38.529 36.7742 38.9049 36.7742C39.0123 36.7742 39.1197 36.7742 39.2808 36.7204C39.4419 36.7204 39.5493 36.6666 39.7104 36.6129L39.5493 37.3656C39.2271 37.4731 38.8512 37.5269 38.4753 37.5269Z" fill="#041A42"/>
<path d="M44.06 37.527C43.0934 37.527 42.3953 37.2582 41.9657 36.7743C41.5361 36.2904 41.4287 35.5377 41.6435 34.5162C41.8583 33.6022 42.2342 32.9033 42.7175 32.3657C43.2545 31.828 44.0063 31.5592 44.973 31.5592C45.51 31.5592 45.9933 31.6667 46.3155 31.8818C46.6377 32.0968 46.8525 32.3657 46.9599 32.742C47.0673 33.1184 47.0673 33.4947 46.9599 33.9248L46.7451 35.0001H42.5564C42.5027 35.4302 42.5027 35.7528 42.6101 36.0216C42.7175 36.2904 42.8786 36.4517 43.1471 36.5592C43.4156 36.6668 43.8452 36.7205 44.4359 36.7205C45.0267 36.7205 45.5637 36.613 46.1007 36.3979L45.9396 37.1506C45.6711 37.2582 45.3489 37.3119 45.0804 37.3657C44.7045 37.4732 44.3822 37.527 44.06 37.527ZM42.6638 34.3012H45.9933L46.1007 33.8173C46.2081 33.3334 46.1544 33.0108 45.9933 32.742C45.8322 32.4732 45.4563 32.3657 44.8119 32.3657C44.1674 32.3657 43.6841 32.5269 43.3619 32.8495C43.0397 33.1721 42.8249 33.656 42.6638 34.3012Z" fill="#041A42"/>
<path d="M49.9674 37.5269C49.6452 37.5269 49.323 37.5269 48.9471 37.4731C48.6249 37.4193 48.3564 37.3656 48.1416 37.3118L48.3027 36.4516C48.8397 36.6666 49.3767 36.7204 49.9674 36.7204C50.4507 36.7204 50.8266 36.6666 51.0951 36.5591C51.3099 36.4516 51.471 36.2365 51.5247 35.9677C51.5784 35.7527 51.5247 35.5914 51.471 35.4838C51.3636 35.3763 51.2025 35.2688 50.9877 35.1613C50.7729 35.0537 50.5044 34.9462 50.1285 34.8387C49.8063 34.7312 49.5378 34.6236 49.323 34.4623C49.1082 34.3548 48.9471 34.1397 48.8397 33.9785C48.7323 33.7634 48.7323 33.4946 48.786 33.172C48.8934 32.6881 49.1619 32.258 49.4841 31.9892C49.86 31.7204 50.4507 31.6129 51.3099 31.6129C51.6321 31.6129 51.9006 31.6128 52.1691 31.6666C52.4376 31.7204 52.6524 31.7741 52.8672 31.8279L52.7061 32.6881C52.2228 32.5268 51.7932 32.4193 51.3099 32.4193C50.8266 32.4193 50.5044 32.4731 50.2359 32.5806C49.9674 32.6881 49.8063 32.8494 49.7526 33.1182C49.6989 33.2795 49.7526 33.4408 49.8063 33.5483C49.86 33.6559 50.0211 33.7634 50.2359 33.8172C50.4507 33.8709 50.6655 33.9785 50.9877 34.086C51.5784 34.301 52.008 34.5161 52.2765 34.7311C52.4913 35 52.5987 35.3225 52.4913 35.8064C52.3839 36.3441 52.1154 36.7742 51.7395 37.043C51.4173 37.4193 50.7729 37.5269 49.9674 37.5269Z" fill="#041A42"/>
<path d="M59.3654 39.5162C59.258 39.5162 59.0969 39.5162 58.8821 39.5162C58.721 39.5162 58.5062 39.5162 58.3451 39.4624C58.184 39.4624 58.0229 39.4087 57.9155 39.4087L58.0766 38.5485C58.2377 38.6022 58.4525 38.656 58.6673 38.656C58.9358 38.656 59.1506 38.7097 59.258 38.7097C59.9024 38.7097 60.4932 38.6022 60.9228 38.4409C61.3524 38.2796 61.6746 37.9033 61.7283 37.4194L61.8894 36.7742C61.5672 36.9893 61.1913 37.2044 60.8154 37.3119C60.3857 37.4732 59.9561 37.5269 59.5265 37.5269C58.8821 37.5269 58.4525 37.3119 58.1303 36.9355C57.8618 36.5592 57.7544 36.0216 57.9155 35.3226L58.6673 31.7205H59.6339L58.8821 35.3764C58.7747 35.914 58.8284 36.2366 58.9895 36.4517C59.1506 36.6667 59.5265 36.7742 60.0635 36.7742C60.4395 36.7742 60.7617 36.7205 61.0839 36.5592C61.4061 36.4517 61.7283 36.2366 61.9968 36.0216L62.9097 31.7205H63.8763L62.6949 37.3119C62.5338 38.0646 62.1579 38.656 61.5672 38.9786C61.1913 39.3549 60.3858 39.5162 59.3654 39.5162Z" fill="#041A42"/>
<path d="M68.0107 40L69.7829 31.7204H70.6421L70.5884 32.3118C70.9106 32.043 71.2328 31.8817 71.555 31.7741C71.8772 31.6666 72.2531 31.6129 72.6827 31.6129C73.4345 31.6129 74.0252 31.8279 74.4011 32.3118C74.777 32.7956 74.8307 33.5483 74.6159 34.5699C74.4011 35.5914 74.0252 36.3441 73.4882 36.8279C72.9512 37.3118 72.2531 37.5269 71.3939 37.5269C70.6421 37.5269 70.0514 37.3656 69.6218 36.9892L68.9773 40H68.0107ZM71.3402 36.7204C71.9846 36.7204 72.4679 36.5591 72.8438 36.2365C73.2197 35.9139 73.4882 35.3763 73.6493 34.5699C73.8104 33.8172 73.8104 33.2795 73.5956 32.9032C73.4345 32.5268 72.9512 32.3655 72.2531 32.3655C71.6087 32.3655 70.9643 32.5806 70.481 33.0645L69.8366 36.1828C69.9977 36.3441 70.2125 36.5053 70.4273 36.6129C70.6958 36.6666 70.9643 36.7204 71.3402 36.7204Z" fill="#041A42"/>
<path d="M76.4414 37.4194L77.5154 32.5269H76.6025L76.871 31.7205H78.6431L77.4617 37.4194H76.4414Z" fill="#041A42"/>
<path d="M82.5102 37.527C81.5436 37.527 80.8455 37.2582 80.4159 36.7743C79.9863 36.2904 79.8789 35.5377 80.0937 34.5162C80.3085 33.6022 80.6844 32.9033 81.1677 32.3657C81.7047 31.828 82.4565 31.5592 83.4231 31.5592C83.9602 31.5592 84.4435 31.6667 84.7657 31.8818C85.0879 32.0968 85.3027 32.3657 85.4101 32.742C85.5175 33.1184 85.5175 33.4947 85.4101 33.9248L85.1953 35.0001H81.0066C80.9529 35.4302 80.9529 35.7528 81.0603 36.0216C81.1677 36.2904 81.3288 36.4517 81.5973 36.5592C81.8658 36.6668 82.2954 36.7205 82.8861 36.7205C83.4768 36.7205 84.0138 36.613 84.5508 36.3979L84.3898 37.1506C84.1213 37.2582 83.799 37.3119 83.5305 37.3657C83.1546 37.4732 82.8324 37.527 82.5102 37.527ZM81.114 34.3012H84.4435L84.5508 33.8173C84.6583 33.3334 84.6046 33.0108 84.4435 32.742C84.2824 32.4732 83.9064 32.3657 83.262 32.3657C82.6176 32.3657 82.1343 32.5269 81.8121 32.8495C81.4899 33.1721 81.2751 33.656 81.114 34.3012Z" fill="#041A42"/>
<path d="M86.2686 37.4194L86.376 36.8818L90.6183 32.5269H87.45L87.6111 31.7205H91.9608L91.8534 32.3119L87.6648 36.6667H90.9942L90.8868 37.4194H86.2686Z" fill="#041A42"/>
<path d="M94.968 37.527C94.1625 37.527 93.5718 37.3119 93.2496 36.8818C92.8737 36.4517 92.82 35.7528 93.0348 34.7313C93.1959 34.0323 93.4107 33.4947 93.7329 33.0108C94.0551 32.5269 94.431 32.2044 94.9143 31.9355C95.3439 31.7205 95.8272 31.5592 96.3642 31.5592C96.7401 31.5592 97.0623 31.613 97.3308 31.6667C97.5993 31.7743 97.8678 31.8818 98.0826 32.0968L98.19 31.6667H99.1567L97.9752 37.3657H97.116L97.1697 36.7743C96.8475 37.0431 96.5253 37.2044 96.2031 37.3119C95.7735 37.4732 95.3439 37.527 94.968 37.527ZM95.3439 36.7205C95.6661 36.7205 95.9883 36.6668 96.3105 36.5592C96.6327 36.4517 96.9012 36.2904 97.1697 36.0216L97.8141 32.9033C97.653 32.742 97.4919 32.5807 97.2771 32.4732C97.0623 32.3657 96.7938 32.3119 96.4179 32.3119C95.7735 32.3119 95.2365 32.527 94.8069 32.9033C94.3773 33.2796 94.1088 33.871 93.9477 34.6775C93.7866 35.4302 93.8403 35.9141 94.0014 36.2366C94.2162 36.613 94.6458 36.7205 95.3439 36.7205Z" fill="#041A42"/>
<path d="M101.789 37.5269C101.466 37.5269 101.144 37.5269 100.768 37.4731C100.446 37.4193 100.178 37.3656 99.9629 37.3118L100.124 36.4516C100.661 36.6666 101.198 36.7204 101.789 36.7204C102.272 36.7204 102.648 36.6666 102.916 36.5591C103.131 36.4516 103.292 36.2365 103.346 35.9677C103.4 35.7527 103.346 35.5914 103.292 35.4838C103.185 35.3763 103.024 35.2688 102.809 35.1613C102.594 35.0537 102.326 34.9462 101.95 34.8387C101.628 34.7312 101.359 34.6236 101.144 34.4623C100.929 34.3548 100.768 34.1397 100.661 33.9785C100.554 33.7634 100.554 33.4946 100.607 33.172C100.715 32.6881 100.983 32.258 101.305 31.9892C101.681 31.7204 102.272 31.6129 103.131 31.6129C103.453 31.6129 103.722 31.6128 103.99 31.6666C104.259 31.7204 104.474 31.7741 104.689 31.8279L104.527 32.6881C104.044 32.5268 103.615 32.4193 103.131 32.4193C102.648 32.4193 102.326 32.4731 102.057 32.5806C101.789 32.6881 101.628 32.8494 101.574 33.1182C101.52 33.2795 101.574 33.4408 101.628 33.5483C101.681 33.6559 101.842 33.7634 102.057 33.8172C102.272 33.8709 102.487 33.9785 102.809 34.086C103.4 34.301 103.829 34.5161 104.098 34.7311C104.313 35 104.42 35.3225 104.313 35.8064C104.205 36.3441 103.937 36.7742 103.561 37.043C103.239 37.4193 102.648 37.5269 101.789 37.5269Z" fill="#041A42"/>
<path d="M78.9119 30C78.9119 30.3226 78.6434 30.5914 78.3212 30.5914C77.999 30.5914 77.7305 30.3226 77.7305 30C77.7305 29.6774 77.999 29.4086 78.3212 29.4086C78.6434 29.4086 78.9119 29.6774 78.9119 30Z" fill="#041A42"/>
<path d="M104.151 3.22582C104.151 5.00003 102.701 6.45165 100.929 6.45165C99.1569 6.45165 97.707 5.00003 97.707 3.22582C97.707 1.45162 99.1569 0 100.929 0C102.701 0 104.151 1.45162 104.151 3.22582Z" fill="#041A42"/>
<path d="M136.64 7.58069C136.586 7.58069 136.533 7.58069 136.479 7.58069H113.173C111.347 7.58069 109.736 8.87102 109.36 10.699L108.984 12.2581L107.749 18.1721L107.266 20.3765C106.729 22.7958 108.609 25.1077 111.079 25.1077H112.099H117.039C118.328 25.1077 119.51 24.6776 120.423 23.9249C121.335 23.1722 122.034 22.0969 122.302 20.8603H114.677C113.817 20.8603 113.119 20.0539 113.334 19.1937L114.677 12.9571C114.838 12.3119 115.375 11.8818 116.019 11.8818H126.974C126.115 13.1721 125.47 14.7313 125.095 16.5592C124.504 19.4625 124.88 21.6668 126.222 23.2259C127.565 24.7851 129.766 25.5378 132.881 25.5378C136.425 25.5378 139.057 24.7851 140.882 23.2259C142.708 21.6668 143.89 19.4625 144.48 16.5592C144.856 14.7313 144.856 13.1721 144.48 11.8818H157.691C158.872 11.8818 159.946 11.3979 160.698 10.6452C161.45 9.89253 161.933 8.81725 161.933 7.63445H136.64V7.58069ZM137.768 17.7958C137.392 19.57 135.835 20.9141 134.009 20.9141H133.955C132.613 20.9141 131.753 20.5915 131.324 19.8926C130.894 19.1937 130.84 18.0646 131.163 16.5055C131.485 14.9463 132.774 11.828 132.774 11.828H139.057L137.768 17.7958Z" fill="#041A42"/>
</svg>
