<svg width="176" height="104" viewBox="0 0 176 104" fill="none" xmlns="http://www.w3.org/2000/svg">
<path d="M0.0867902 61.7065C-0.438498 64.2192 1.48756 66.615 4.05564 66.615H12.0517L7.73265 87.1255H14.0945L18.4135 66.615H28.3356C31.2539 66.615 33.7636 64.5698 34.3473 61.7065H0.0867902Z" fill="#041A42"/>
<path d="M127.732 0C126.564 5.60969 121.603 9.64166 115.884 9.64166H96.2729L95.7476 12.2128L93.8215 21.387L87.7515 50.0198H75.2613L81.3313 21.387L83.2574 12.2128L83.7827 9.64166H57.4599C52.3821 9.64166 48.5884 4.96692 49.6389 0L127.732 0Z" fill="#CE2C0D"/>
<path d="M85.0667 82.4509C84.7749 83.7949 84.0162 84.9636 83.024 85.7817C81.9734 86.5997 80.6893 87.0672 79.3469 87.0672H74.7361C73.5688 87.0672 72.7516 86.0154 72.9851 84.9051L73.5104 82.4509L75.4948 73.1014H72.7516L73.7439 70.0628C74.0941 69.0694 74.9695 68.4267 76.0201 68.4267H82.8489L79.8722 82.4509H85.0667Z" fill="#041A42"/>
<path d="M115.183 82.4509C114.891 83.7949 114.133 84.9636 113.14 85.7817C112.09 86.5997 110.806 87.0672 109.463 87.0672H104.853C103.685 87.0672 102.868 86.0154 103.102 84.9051L103.627 82.4509L105.611 73.1014H102.751L103.744 70.0628C104.094 69.0694 104.969 68.4267 106.02 68.4267H112.849L109.872 82.4509H115.183Z" fill="#041A42"/>
<path d="M102.168 82.4507C101.584 85.1387 99.1912 87.1255 96.3897 87.1255H87.5765C86.4092 87.1255 85.5921 86.0736 85.8256 84.9634L86.3509 82.5092L86.7011 80.873L88.3353 73.2765H85.8256L86.8762 68.4849H89.3859C90.9034 68.4849 91.8956 67.55 92.5376 66.3229C93.1796 65.1542 93.4714 63.7517 93.6465 62.8752H96.915L96.5648 64.5698L95.7477 68.4849H100.3L99.0161 73.2765H94.7555L93.238 80.464L92.8294 82.5092H102.168V82.4507Z" fill="#041A42"/>
<path d="M79.5221 12.2127L77.596 21.3869H70.0669C67.3237 21.3869 64.7556 20.452 62.7712 18.8158C60.7868 17.1797 59.2693 14.9007 58.6856 12.2127H79.5221Z" fill="#DD562C"/>
<path d="M118.685 12.2127C118.102 14.9007 116.642 17.1797 114.6 18.8158C112.615 20.452 110.047 21.3869 107.304 21.3869H96.9149L98.841 12.2127H118.685Z" fill="#DD562C"/>
<path d="M118.685 12.2127C118.102 14.9007 116.642 17.1797 114.6 18.8158C112.615 20.452 110.047 21.3869 107.304 21.3869H96.9149L98.841 12.2127H118.685Z" fill="#DD562C"/>
<path d="M66.0981 82.4507L70.7673 60.5379H64.4055L62.8296 68.0174H57.6935C57.6351 68.0174 57.5767 68.0174 57.46 68.0174H34.2306C30.4368 68.0174 27.5769 68.8355 25.5925 70.5301C23.6081 72.2247 22.324 74.6205 21.682 77.7175C21.04 80.873 21.4486 83.2688 22.9077 84.9634C24.3668 86.658 26.7598 87.4761 30.145 87.4761C33.9971 87.4761 36.857 86.658 38.8414 84.9634C40.8259 83.2688 42.1099 80.873 42.7519 77.7175C43.1605 75.7308 43.1605 74.0362 42.7519 72.6338H48.8219C47.8881 74.0362 47.2461 75.7892 46.7791 77.8928C46.3122 80.1133 46.3122 81.9248 46.7791 83.3272C47.2461 84.7297 48.0632 85.7815 49.2305 86.4242C50.3978 87.067 51.7402 87.4176 53.3161 87.4176C54.6001 87.4176 55.709 87.2423 56.7596 86.9502C57.8102 86.5996 58.744 86.1321 59.6195 85.4893C59.6195 86.3658 60.3783 87.067 61.2537 87.067H66.7401C69.5416 87.067 71.9346 85.1387 72.5183 82.3923H66.0981V82.4507ZM35.2812 79.12C34.8726 81.0483 33.18 82.5091 31.1956 82.5091H31.1372C29.6781 82.5091 28.7442 82.1585 28.2773 81.3989C27.8104 80.6393 27.752 79.4121 28.1022 77.7175C28.4524 76.0229 29.8532 72.6338 29.8532 72.6338H36.6819L35.2812 79.12ZM60.3783 79.12C59.9697 81.0483 58.2771 82.5091 56.2927 82.5091H56.2343C54.7752 82.5091 53.8413 82.1585 53.3744 81.3989C52.9075 80.6393 52.8491 79.4121 53.1993 77.7175C53.5495 76.0229 54.9503 72.6338 54.9503 72.6338H61.779L60.3783 79.12Z" fill="#041A42"/>
<path d="M83.3158 63.2844C83.3158 65.2127 81.74 66.7905 79.8139 66.7905C77.8878 66.7905 76.312 65.2127 76.312 63.2844C76.312 61.3561 77.8878 59.7783 79.8139 59.7783C81.74 59.7783 83.3158 61.3561 83.3158 63.2844Z" fill="#041A42"/>
<path d="M17.8882 103.253L19.8143 94.2544H20.7481L20.6898 94.8972C21.04 94.605 21.3902 94.4297 21.7404 94.3128C22.0905 94.196 22.4991 94.1376 22.966 94.1376C23.7831 94.1376 24.4252 94.3713 24.8337 94.8972C25.2423 95.4231 25.3006 96.2412 25.0672 97.3514C24.8337 98.4617 24.4252 99.2798 23.8415 99.8057C23.2579 100.332 22.4991 100.565 21.5653 100.565C20.7481 100.565 20.1061 100.39 19.6392 99.981L18.9388 103.253H17.8882ZM21.4485 99.6888C22.1489 99.6888 22.6742 99.5135 23.0828 99.1629C23.4913 98.8123 23.7831 98.228 23.9582 97.3514C24.1333 96.5334 24.1333 95.949 23.8999 95.54C23.7248 95.1309 23.1995 94.9556 22.4407 94.9556C21.7404 94.9556 21.04 95.1894 20.5147 95.7153L19.8143 99.1045C19.9894 99.2798 20.2229 99.4551 20.4563 99.5719C20.7481 99.6304 21.0983 99.6888 21.4485 99.6888Z" fill="#041A42"/>
<path d="M28.9193 100.565C28.0439 100.565 27.4018 100.332 27.0516 99.8642C26.6431 99.3967 26.5847 98.6371 26.8182 97.5268C26.9933 96.7672 27.2267 96.1828 27.5769 95.6569C27.9271 95.131 28.3357 94.7804 28.861 94.4882C29.3279 94.2545 29.8532 94.0792 30.4368 94.0792C30.8454 94.0792 31.1956 94.1376 31.4874 94.1961C31.7792 94.3129 32.0711 94.4298 32.3045 94.6635L32.4213 94.1961H33.4718L32.1878 100.39H31.254L31.3123 99.7473C30.9621 100.039 30.6119 100.215 30.2617 100.332C29.7948 100.507 29.3279 100.565 28.9193 100.565ZM29.3279 99.6889C29.6781 99.6889 30.0283 99.6305 30.3785 99.5136C30.7287 99.3967 31.0205 99.2214 31.3123 98.9292L32.0127 95.5401C31.8376 95.3648 31.6625 95.1895 31.429 95.0726C31.1956 94.9557 30.9038 94.8973 30.4952 94.8973C29.7948 94.8973 29.2112 95.131 28.7442 95.5401C28.2773 95.9491 27.9855 96.5919 27.8104 97.4684C27.6353 98.2865 27.6937 98.8124 27.8688 99.163C28.1022 99.572 28.5691 99.6889 29.3279 99.6889Z" fill="#041A42"/>
<path d="M34.464 100.448L35.7481 94.2544H36.6819L36.5652 95.0141C36.9154 94.8388 37.3239 94.605 37.7325 94.4882C38.1994 94.3128 38.608 94.196 39.0165 94.1376L38.8414 94.9556C38.608 95.0141 38.3161 95.0725 38.0243 95.1894C37.7325 95.3062 37.4406 95.3647 37.1488 95.4815C36.857 95.5984 36.6235 95.7153 36.4484 95.8321L35.4562 100.448H34.464Z" fill="#041A42"/>
<path d="M41.8181 100.565C41.2344 100.565 40.8259 100.39 40.5924 100.098C40.3589 99.7473 40.3006 99.3382 40.4173 98.7539L41.1761 95.131H40.2422L40.4173 94.3129H41.3512L41.7013 92.7936L42.8103 92.443L42.4017 94.3129H44.0943L43.8609 95.131H42.2266L41.4679 98.6955C41.4095 99.0461 41.4095 99.3382 41.5263 99.5135C41.643 99.6888 41.8764 99.7473 42.285 99.7473C42.4017 99.7473 42.5185 99.7473 42.6936 99.6888C42.8687 99.6888 42.9854 99.6304 43.1605 99.572L42.9854 100.39C42.6352 100.507 42.2266 100.565 41.8181 100.565Z" fill="#041A42"/>
<path d="M47.8881 100.565C46.8375 100.565 46.0787 100.273 45.6118 99.7473C45.1449 99.2214 45.0282 98.4033 45.2616 97.2931C45.4951 96.2997 45.9036 95.5401 46.4289 94.9557C47.0126 94.3714 47.8297 94.0792 48.8803 94.0792C49.4639 94.0792 49.9892 94.1961 50.3394 94.4298C50.6896 94.6635 50.9231 94.9557 51.0398 95.3648C51.1565 95.7738 51.1565 96.1828 51.0398 96.6503L50.8063 97.819H46.2538C46.1955 98.2865 46.1955 98.6371 46.3122 98.9292C46.4289 99.2214 46.604 99.3967 46.8958 99.5136C47.1877 99.6305 47.6546 99.6889 48.2966 99.6889C48.9386 99.6889 49.5223 99.572 50.1059 99.3383L49.9308 100.156C49.639 100.273 49.2888 100.332 48.997 100.39C48.5884 100.507 48.2383 100.565 47.8881 100.565ZM46.3706 97.0594H49.9892L50.1059 96.5334C50.2227 96.0075 50.1643 95.6569 49.9892 95.3648C49.8141 95.0726 49.4056 94.9557 48.7052 94.9557C48.0048 94.9557 47.4795 95.131 47.1293 95.4816C46.7791 95.8322 46.5457 96.3581 46.3706 97.0594Z" fill="#041A42"/>
<path d="M54.3082 100.565C53.958 100.565 53.6078 100.565 53.1993 100.507C52.8491 100.448 52.5572 100.39 52.3238 100.332L52.4989 99.3966C53.0825 99.6304 53.6662 99.6888 54.3082 99.6888C54.8335 99.6888 55.242 99.6304 55.5339 99.5135C55.7673 99.3966 55.9424 99.1629 56.0008 98.8707C56.0592 98.637 56.0008 98.4617 55.9424 98.3448C55.8257 98.2279 55.6506 98.1111 55.4171 97.9942C55.1837 97.8773 54.8919 97.7605 54.4833 97.6436C54.1331 97.5267 53.8413 97.4099 53.6078 97.2346C53.3744 97.1177 53.1993 96.884 53.0825 96.7087C52.9658 96.4749 52.9658 96.1827 53.0242 95.8321C53.1409 95.3062 53.4327 94.8388 53.7829 94.5466C54.1915 94.2544 54.8335 94.1376 55.7673 94.1376C56.1175 94.1376 56.4094 94.1375 56.7012 94.196C56.993 94.2544 57.2265 94.3128 57.4599 94.3713L57.2848 95.3062C56.7595 95.1309 56.2926 95.0141 55.7673 95.0141C55.242 95.0141 54.8919 95.0725 54.6 95.1894C54.3082 95.3062 54.1331 95.4815 54.0747 95.7737C54.0164 95.949 54.0747 96.1243 54.1331 96.2412C54.1915 96.358 54.3666 96.4749 54.6 96.5334C54.8335 96.5918 55.067 96.7087 55.4171 96.8255C56.0592 97.0593 56.5261 97.293 56.8179 97.5267C57.0514 97.8189 57.1681 98.1695 57.0514 98.6954C56.9346 99.2798 56.6428 99.7472 56.2343 100.039C55.8841 100.448 55.1837 100.565 54.3082 100.565Z" fill="#041A42"/>
<path d="M64.5222 102.727C64.4054 102.727 64.2303 102.727 63.9969 102.727C63.8218 102.727 63.5883 102.727 63.4132 102.669C63.2381 102.669 63.063 102.611 62.9463 102.611L63.1214 101.676C63.2965 101.734 63.5299 101.793 63.7634 101.793C64.0552 101.793 64.2887 101.851 64.4054 101.851C65.1058 101.851 65.7478 101.734 66.2147 101.559C66.6817 101.383 67.0319 100.974 67.0902 100.449L67.2653 99.7473C66.9151 99.981 66.5066 100.215 66.098 100.332C65.6311 100.507 65.1642 100.565 64.6973 100.565C63.9969 100.565 63.5299 100.332 63.1797 99.9226C62.8879 99.5136 62.7712 98.9292 62.9463 98.1696L63.7634 94.2545H64.814L63.9969 98.228C63.8801 98.8124 63.9385 99.163 64.1136 99.3967C64.2887 99.6304 64.6973 99.7473 65.2809 99.7473C65.6895 99.7473 66.0397 99.6889 66.3898 99.5136C66.74 99.3967 67.0902 99.163 67.3821 98.9292L68.3743 94.2545H69.4248L68.1408 100.332C67.9657 101.15 67.5572 101.793 66.9151 102.143C66.5066 102.552 65.6311 102.727 64.5222 102.727Z" fill="#041A42"/>
<path d="M73.9189 103.253L75.845 94.2544H76.7788L76.7205 94.8972C77.0707 94.605 77.4209 94.4297 77.7711 94.3128C78.1212 94.196 78.5298 94.1376 78.9967 94.1376C79.8138 94.1376 80.4559 94.3713 80.8644 94.8972C81.273 95.4231 81.3313 96.2412 81.0979 97.3514C80.8644 98.4617 80.4559 99.2798 79.8722 99.8057C79.2886 100.332 78.5298 100.565 77.596 100.565C76.7788 100.565 76.1368 100.39 75.6699 99.981L74.9695 103.253H73.9189ZM77.5376 99.6888C78.238 99.6888 78.7633 99.5135 79.1718 99.1629C79.5804 98.8123 79.8722 98.228 80.0473 97.3514C80.2224 96.5334 80.2224 95.949 79.9889 95.54C79.8138 95.1309 79.2886 94.9556 78.5298 94.9556C77.8294 94.9556 77.129 95.1894 76.6037 95.7153L75.9034 99.1045C76.0785 99.2798 76.3119 99.4551 76.5454 99.5719C76.8372 99.6304 77.129 99.6888 77.5376 99.6888Z" fill="#041A42"/>
<path d="M83.0823 100.449L84.2496 95.131H83.2574L83.5492 94.2545H85.4753L84.1912 100.449H83.0823Z" fill="#041A42"/>
<path d="M89.6777 100.565C88.6271 100.565 87.8683 100.273 87.4014 99.7473C86.9345 99.2214 86.8178 98.4033 87.0512 97.2931C87.2847 96.2997 87.6932 95.5401 88.2185 94.9557C88.8022 94.3714 89.6193 94.0792 90.6699 94.0792C91.2535 94.0792 91.7788 94.1961 92.129 94.4298C92.4792 94.6635 92.7127 94.9557 92.8294 95.3648C92.9461 95.7738 92.9461 96.1828 92.8294 96.6503L92.5959 97.819H88.0434C87.9851 98.2865 87.9851 98.6371 88.1018 98.9292C88.2185 99.2214 88.3936 99.3967 88.6854 99.5136C88.9773 99.6305 89.4442 99.6889 90.0862 99.6889C90.7282 99.6889 91.3119 99.572 91.8955 99.3383L91.7205 100.156C91.4286 100.273 91.0784 100.332 90.7866 100.39C90.378 100.507 90.0279 100.565 89.6777 100.565ZM88.1602 97.0594H91.7788L91.8955 96.5334C92.0123 96.0075 91.9539 95.6569 91.7788 95.3648C91.6037 95.0726 91.1952 94.9557 90.4948 94.9557C89.7944 94.9557 89.2691 95.131 88.9189 95.4816C88.5687 95.8322 88.3353 96.3581 88.1602 97.0594Z" fill="#041A42"/>
<path d="M93.7632 100.449L93.8799 99.8642L98.4907 95.131H95.0472L95.2223 94.2545H99.9499L99.8331 94.8973L95.2806 99.6304H98.8993L98.7826 100.449H93.7632Z" fill="#041A42"/>
<path d="M103.218 100.565C102.343 100.565 101.701 100.332 101.351 99.8642C100.942 99.3967 100.884 98.6371 101.117 97.5268C101.292 96.7672 101.526 96.1828 101.876 95.6569C102.226 95.131 102.635 94.7804 103.16 94.4882C103.627 94.2545 104.152 94.0792 104.736 94.0792C105.144 94.0792 105.495 94.1376 105.786 94.1961C106.078 94.3129 106.37 94.4298 106.604 94.6635L106.72 94.1961H107.771L106.487 100.39H105.553L105.611 99.7473C105.261 100.039 104.911 100.215 104.561 100.332C104.094 100.507 103.627 100.565 103.218 100.565ZM103.627 99.6889C103.977 99.6889 104.327 99.6305 104.678 99.5136C105.028 99.3967 105.32 99.2214 105.611 98.9292L106.312 95.5401C106.137 95.3648 105.962 95.1895 105.728 95.0726C105.495 94.9557 105.203 94.8973 104.794 94.8973C104.094 94.8973 103.51 95.131 103.043 95.5401C102.576 95.9491 102.285 96.5919 102.109 97.4684C101.934 98.2865 101.993 98.8124 102.168 99.163C102.401 99.572 102.868 99.6889 103.627 99.6889Z" fill="#041A42"/>
<path d="M110.631 100.565C110.281 100.565 109.93 100.565 109.522 100.507C109.172 100.448 108.88 100.39 108.646 100.332L108.821 99.3966C109.405 99.6304 109.989 99.6888 110.631 99.6888C111.156 99.6888 111.565 99.6304 111.856 99.5135C112.09 99.3966 112.265 99.1629 112.323 98.8707C112.382 98.637 112.323 98.4617 112.265 98.3448C112.148 98.2279 111.973 98.1111 111.74 97.9942C111.506 97.8773 111.214 97.7605 110.806 97.6436C110.456 97.5267 110.164 97.4099 109.93 97.2346C109.697 97.1177 109.522 96.884 109.405 96.7087C109.288 96.4749 109.288 96.1827 109.347 95.8321C109.463 95.3062 109.755 94.8388 110.105 94.5466C110.514 94.2544 111.156 94.1376 112.09 94.1376C112.44 94.1376 112.732 94.1375 113.024 94.196C113.316 94.2544 113.549 94.3128 113.782 94.3713L113.607 95.3062C113.082 95.1309 112.615 95.0141 112.09 95.0141C111.565 95.0141 111.214 95.0725 110.923 95.1894C110.631 95.3062 110.456 95.4815 110.397 95.7737C110.339 95.949 110.397 96.1243 110.456 96.2412C110.514 96.358 110.689 96.4749 110.923 96.5334C111.156 96.5918 111.39 96.7087 111.74 96.8255C112.382 97.0593 112.849 97.293 113.14 97.5267C113.374 97.8189 113.491 98.1695 113.374 98.6954C113.257 99.2798 112.965 99.7472 112.557 100.039C112.207 100.448 111.565 100.565 110.631 100.565Z" fill="#041A42"/>
<path d="M85.7671 92.3846C85.7671 92.7352 85.4753 93.0274 85.1251 93.0274C84.7749 93.0274 84.4831 92.7352 84.4831 92.3846C84.4831 92.034 84.7749 91.7418 85.1251 91.7418C85.4753 91.7418 85.7671 92.034 85.7671 92.3846Z" fill="#041A42"/>
<path d="M113.199 63.2844C113.199 65.2127 111.623 66.7905 109.697 66.7905C107.771 66.7905 106.195 65.2127 106.195 63.2844C106.195 61.3561 107.771 59.7783 109.697 59.7783C111.623 59.7783 113.199 61.3561 113.199 63.2844Z" fill="#041A42"/>
<path d="M171.7 74.2195C171.378 75.3915 170.826 76.7866 169.7 77.5C168.952 78.4015 166.712 79 165.2 79H159.7L160.035 78L160.235 76.5L160.035 75L159.7 74.2195H171.7Z" fill="#041A42"/>
<path d="M148.51 68.0175C148.451 68.0175 148.393 68.0175 148.335 68.0175H123.004C121.02 68.0175 119.269 69.4199 118.86 71.4067L118.452 73.1013L117.109 79.5291L116.584 81.9249C116 84.5544 118.043 87.0671 120.728 87.0671H121.837H127.206C128.607 87.0671 129.891 86.5996 130.884 85.7815C131.876 84.9634 132.634 83.7948 132.926 82.4508H124.638C123.705 82.4508 122.946 81.5742 123.179 80.6393L124.638 73.8609C124.814 73.1597 125.397 72.6922 126.098 72.6922H138.004C137.07 74.0947 136.37 75.7893 135.961 77.776C135.319 80.9315 135.728 83.3273 137.187 85.0219C138.646 86.7165 141.039 87.5345 144.424 87.5345C148.276 87.5345 151.136 86.7165 153.121 85.0219C155.105 83.3273 156.389 80.9315 157.031 77.776C157.44 75.7893 157.44 74.0947 157.031 72.6922H171.389C172.673 72.6922 173.84 72.1663 174.658 71.3482C175.475 70.5302 176 69.3615 176 68.0759H148.51V68.0175ZM149.736 79.12C149.327 81.0483 147.634 82.5092 145.65 82.5092H145.592C144.132 82.5092 143.199 82.1586 142.732 81.3989C142.265 80.6393 142.206 79.4122 142.557 77.7176C142.907 76.023 144.308 72.6338 144.308 72.6338H151.136L149.736 79.12Z" fill="#041A42"/>
</svg>
