<svg width="176" height="44" viewBox="0 0 176 44" fill="none" xmlns="http://www.w3.org/2000/svg">
<path d="M0.0867902 1.92821C-0.438498 4.44088 1.48756 6.83669 4.05564 6.83669H12.0517L7.73265 27.3471H14.0945L18.4135 6.83669H28.3356C31.2539 6.83669 33.7636 4.79149 34.3473 1.92821H0.0867902Z" fill="#041A42"/>
<path d="M85.0667 22.6726C84.7749 24.0166 84.0162 25.1852 83.024 26.0033C81.9734 26.8214 80.6893 27.2889 79.3469 27.2889H74.7361C73.5688 27.2889 72.7516 26.2371 72.9851 25.1268L73.5104 22.6726L75.4948 13.3231H72.7516L73.7439 10.2845C74.0941 9.29111 74.9695 8.64833 76.0201 8.64833H82.8489L79.8722 22.6726H85.0667Z" fill="#041A42"/>
<path d="M115.183 22.6726C114.891 24.0166 114.133 25.1852 113.14 26.0033C112.09 26.8214 110.806 27.2889 109.463 27.2889H104.853C103.685 27.2889 102.868 26.2371 103.102 25.1268L103.627 22.6726L105.611 13.3231H102.751L103.744 10.2845C104.094 9.29111 104.969 8.64833 106.02 8.64833H112.849L109.872 22.6726H115.183Z" fill="#041A42"/>
<path d="M102.168 22.6724C101.584 25.3604 99.1912 27.3471 96.3897 27.3471H87.5765C86.4092 27.3471 85.5921 26.2953 85.8256 25.1851L86.3509 22.7308L86.7011 21.0947L88.3353 13.4982H85.8256L86.8762 8.70659H89.3859C90.9034 8.70659 91.8956 7.77164 92.5376 6.54452C93.1796 5.37583 93.4714 3.97341 93.6465 3.09689H96.915L96.5648 4.79149L95.7477 8.70659H100.3L99.0161 13.4982H94.7555L93.238 20.6856L92.8294 22.7308H102.168V22.6724Z" fill="#041A42"/>
<path d="M66.0981 22.6724L70.7673 0.759521H64.4055L62.8296 8.23911H57.6935C57.6351 8.23911 57.5767 8.23911 57.46 8.23911H34.2306C30.4368 8.23911 27.5769 9.05719 25.5925 10.7518C23.6081 12.4464 22.324 14.8422 21.682 17.9392C21.04 21.0947 21.4486 23.4905 22.9077 25.1851C24.3668 26.8797 26.7598 27.6977 30.145 27.6977C33.9971 27.6977 36.857 26.8797 38.8414 25.1851C40.8259 23.4905 42.1099 21.0947 42.7519 17.9392C43.1605 15.9524 43.1605 14.2578 42.7519 12.8554H48.8219C47.8881 14.2578 47.2461 16.0109 46.7791 18.1145C46.3122 20.335 46.3122 22.1465 46.7791 23.5489C47.2461 24.9513 48.0632 26.0031 49.2305 26.6459C50.3978 27.2887 51.7402 27.6393 53.3161 27.6393C54.6001 27.6393 55.709 27.464 56.7596 27.1718C57.8102 26.8212 58.744 26.3537 59.6195 25.711C59.6195 26.5875 60.3783 27.2887 61.2537 27.2887H66.7401C69.5416 27.2887 71.9346 25.3604 72.5183 22.614H66.0981V22.6724ZM35.2812 19.3416C34.8726 21.27 33.18 22.7308 31.1956 22.7308H31.1372C29.6781 22.7308 28.7442 22.3802 28.2773 21.6206C27.8104 20.8609 27.752 19.6338 28.1022 17.9392C28.4524 16.2446 29.8532 12.8554 29.8532 12.8554H36.6819L35.2812 19.3416ZM60.3783 19.3416C59.9697 21.27 58.2771 22.7308 56.2927 22.7308H56.2343C54.7752 22.7308 53.8413 22.3802 53.3744 21.6206C52.9075 20.8609 52.8491 19.6338 53.1993 17.9392C53.5495 16.2446 54.9503 12.8554 54.9503 12.8554H61.779L60.3783 19.3416Z" fill="#041A42"/>
<path d="M83.3158 3.50606C83.3158 5.43439 81.74 7.01212 79.8139 7.01212C77.8878 7.01212 76.312 5.43439 76.312 3.50606C76.312 1.57773 77.8878 0 79.8139 0C81.74 0 83.3158 1.57773 83.3158 3.50606Z" fill="#041A42"/>
<path d="M17.8882 43.475L19.8143 34.4761H20.7481L20.6898 35.1189C21.04 34.8267 21.3902 34.6514 21.7404 34.5345C22.0906 34.4176 22.4991 34.3592 22.966 34.3592C23.7831 34.3592 24.4252 34.5929 24.8337 35.1189C25.2423 35.6448 25.3006 36.4628 25.0672 37.5731C24.8337 38.6834 24.4252 39.5014 23.8415 40.0273C23.2579 40.5532 22.4991 40.787 21.5653 40.787C20.7481 40.787 20.1061 40.6117 19.6392 40.2026L18.9388 43.475H17.8882ZM21.4485 39.9105C22.1489 39.9105 22.6742 39.7352 23.0828 39.3846C23.4913 39.034 23.7831 38.4496 23.9582 37.5731C24.1333 36.755 24.1333 36.1707 23.8999 35.7616C23.7248 35.3526 23.1995 35.1773 22.4407 35.1773C21.7404 35.1773 21.04 35.411 20.5147 35.9369L19.8143 39.3261C19.9894 39.5014 20.2229 39.6767 20.4563 39.7936C20.7481 39.852 21.0983 39.9105 21.4485 39.9105Z" fill="#041A42"/>
<path d="M28.9193 40.7871C28.0439 40.7871 27.4018 40.5533 27.0517 40.0859C26.6431 39.6184 26.5847 38.8587 26.8182 37.7485C26.9933 36.9888 27.2267 36.4045 27.5769 35.8786C27.9271 35.3527 28.3357 35.0021 28.861 34.7099C29.3279 34.4762 29.8532 34.3009 30.4368 34.3009C30.8454 34.3009 31.1956 34.3593 31.4874 34.4177C31.7792 34.5346 32.0711 34.6515 32.3045 34.8852L32.4213 34.4177H33.4718L32.1878 40.6118H31.254L31.3123 39.969C30.9621 40.2612 30.6119 40.4365 30.2617 40.5533C29.7948 40.7286 29.3279 40.7871 28.9193 40.7871ZM29.3279 39.9106C29.6781 39.9106 30.0283 39.8521 30.3785 39.7353C30.7287 39.6184 31.0205 39.4431 31.3123 39.1509L32.0127 35.7617C31.8376 35.5864 31.6625 35.4111 31.4291 35.2942C31.1956 35.1774 30.9038 35.1189 30.4952 35.1189C29.7948 35.1189 29.2112 35.3527 28.7442 35.7617C28.2773 36.1708 27.9855 36.8135 27.8104 37.6901C27.6353 38.5081 27.6937 39.034 27.8688 39.3846C28.1022 39.7937 28.5692 39.9106 29.3279 39.9106Z" fill="#041A42"/>
<path d="M34.464 40.6701L35.7481 34.4761H36.6819L36.5652 35.2357C36.9154 35.0604 37.3239 34.8267 37.7325 34.7098C38.1994 34.5345 38.608 34.4176 39.0165 34.3592L38.8414 35.1773C38.608 35.2357 38.3161 35.2942 38.0243 35.411C37.7325 35.5279 37.4407 35.5863 37.1488 35.7032C36.857 35.8201 36.6235 35.9369 36.4484 36.0538L35.4562 40.6701H34.464Z" fill="#041A42"/>
<path d="M41.8181 40.787C41.2344 40.787 40.8259 40.6117 40.5924 40.3195C40.3589 39.9689 40.3006 39.5599 40.4173 38.9756L41.1761 35.3526H40.2422L40.4173 34.5345H41.3512L41.7014 33.0153L42.8103 32.6646L42.4017 34.5345H44.0943L43.8609 35.3526H42.2266L41.4679 38.9171C41.4095 39.2677 41.4095 39.5599 41.5263 39.7352C41.643 39.9105 41.8764 39.9689 42.285 39.9689C42.4017 39.9689 42.5185 39.9689 42.6936 39.9105C42.8687 39.9105 42.9854 39.8521 43.1605 39.7936L42.9854 40.6117C42.6352 40.7286 42.2266 40.787 41.8181 40.787Z" fill="#041A42"/>
<path d="M47.8881 40.7871C46.8375 40.7871 46.0787 40.4949 45.6118 39.969C45.1449 39.4431 45.0282 38.625 45.2616 37.5148C45.4951 36.5214 45.9036 35.7617 46.4289 35.1774C47.0126 34.593 47.8297 34.3009 48.8803 34.3009C49.4639 34.3009 49.9892 34.4177 50.3394 34.6515C50.6896 34.8852 50.9231 35.1774 51.0398 35.5864C51.1565 35.9955 51.1565 36.4045 51.0398 36.872L50.8063 38.0407H46.2538C46.1955 38.5081 46.1955 38.8587 46.3122 39.1509C46.4289 39.4431 46.604 39.6184 46.8958 39.7353C47.1877 39.8521 47.6546 39.9106 48.2966 39.9106C48.9386 39.9106 49.5223 39.7937 50.1059 39.56L49.9308 40.378C49.639 40.4949 49.2888 40.5533 48.997 40.6118C48.5884 40.7286 48.2382 40.7871 47.8881 40.7871ZM46.3706 37.281H49.9892L50.1059 36.7551C50.2227 36.2292 50.1643 35.8786 49.9892 35.5864C49.8141 35.2942 49.4056 35.1774 48.7052 35.1774C48.0048 35.1774 47.4795 35.3527 47.1293 35.7033C46.7791 36.0539 46.5457 36.5798 46.3706 37.281Z" fill="#041A42"/>
<path d="M54.3082 40.787C53.958 40.787 53.6078 40.787 53.1993 40.7286C52.8491 40.6701 52.5572 40.6117 52.3238 40.5532L52.4989 39.6183C53.0825 39.852 53.6662 39.9105 54.3082 39.9105C54.8335 39.9105 55.242 39.852 55.5339 39.7352C55.7673 39.6183 55.9424 39.3846 56.0008 39.0924C56.0592 38.8587 56.0008 38.6834 55.9424 38.5665C55.8257 38.4496 55.6506 38.3327 55.4171 38.2159C55.1837 38.099 54.8919 37.9821 54.4833 37.8653C54.1331 37.7484 53.8413 37.6315 53.6078 37.4562C53.3744 37.3394 53.1993 37.1056 53.0825 36.9303C52.9658 36.6966 52.9658 36.4044 53.0242 36.0538C53.1409 35.5279 53.4327 35.0604 53.7829 34.7683C54.1915 34.4761 54.8335 34.3592 55.7673 34.3592C56.1175 34.3592 56.4094 34.3592 56.7012 34.4176C56.993 34.4761 57.2265 34.5345 57.4599 34.5929L57.2848 35.5279C56.7595 35.3526 56.2926 35.2357 55.7673 35.2357C55.242 35.2357 54.8919 35.2942 54.6 35.411C54.3082 35.5279 54.1331 35.7032 54.0747 35.9954C54.0164 36.1707 54.0747 36.346 54.1331 36.4628C54.1915 36.5797 54.3666 36.6966 54.6 36.755C54.8335 36.8135 55.067 36.9303 55.4171 37.0472C56.0592 37.2809 56.5261 37.5147 56.8179 37.7484C57.0514 38.0406 57.1681 38.3912 57.0514 38.9171C56.9346 39.5014 56.6428 39.9689 56.2343 40.2611C55.8841 40.6701 55.1837 40.787 54.3082 40.787Z" fill="#041A42"/>
<path d="M64.5221 42.9491C64.4054 42.9491 64.2303 42.9491 63.9969 42.9491C63.8218 42.9491 63.5883 42.9491 63.4132 42.8907C63.2381 42.8907 63.063 42.8323 62.9463 42.8323L63.1214 41.8973C63.2965 41.9557 63.5299 42.0142 63.7634 42.0142C64.0552 42.0142 64.2887 42.0726 64.4054 42.0726C65.1058 42.0726 65.7478 41.9557 66.2147 41.7804C66.6817 41.6051 67.0319 41.1961 67.0902 40.6702L67.2653 39.969C66.9151 40.2027 66.5066 40.4364 66.098 40.5533C65.6311 40.7286 65.1642 40.7871 64.6972 40.7871C63.9969 40.7871 63.5299 40.5533 63.1797 40.1443C62.8879 39.7352 62.7712 39.1509 62.9463 38.3912L63.7634 34.4762H64.814L63.9969 38.4497C63.8801 39.034 63.9385 39.3846 64.1136 39.6184C64.2887 39.8521 64.6972 39.969 65.2809 39.969C65.6895 39.969 66.0396 39.9105 66.3898 39.7352C66.74 39.6184 67.0902 39.3846 67.382 39.1509L68.3743 34.4762H69.4248L68.1408 40.5533C67.9657 41.3714 67.5571 42.0142 66.9151 42.3648C66.5066 42.7738 65.6311 42.9491 64.5221 42.9491Z" fill="#041A42"/>
<path d="M73.9189 43.475L75.845 34.4761H76.7788L76.7205 35.1189C77.0707 34.8267 77.4209 34.6514 77.7711 34.5345C78.1213 34.4176 78.5298 34.3592 78.9967 34.3592C79.8138 34.3592 80.4559 34.5929 80.8644 35.1189C81.273 35.6448 81.3313 36.4628 81.0979 37.5731C80.8644 38.6834 80.4559 39.5014 79.8722 40.0273C79.2886 40.5532 78.5298 40.787 77.596 40.787C76.7788 40.787 76.1368 40.6117 75.6699 40.2026L74.9695 43.475H73.9189ZM77.5376 39.9105C78.238 39.9105 78.7633 39.7352 79.1718 39.3846C79.5804 39.034 79.8722 38.4496 80.0473 37.5731C80.2224 36.755 80.2224 36.1707 79.9889 35.7616C79.8138 35.3526 79.2886 35.1773 78.5298 35.1773C77.8294 35.1773 77.129 35.411 76.6038 35.9369L75.9034 39.3261C76.0785 39.5014 76.3119 39.6767 76.5454 39.7936C76.8372 39.852 77.129 39.9105 77.5376 39.9105Z" fill="#041A42"/>
<path d="M83.0823 40.6702L84.2496 35.3527H83.2574L83.5492 34.4762H85.4752L84.1912 40.6702H83.0823Z" fill="#041A42"/>
<path d="M89.6777 40.7871C88.6271 40.7871 87.8683 40.4949 87.4014 39.969C86.9345 39.4431 86.8178 38.625 87.0512 37.5148C87.2847 36.5214 87.6932 35.7617 88.2185 35.1774C88.8022 34.593 89.6193 34.3009 90.6699 34.3009C91.2535 34.3009 91.7788 34.4177 92.129 34.6515C92.4792 34.8852 92.7127 35.1774 92.8294 35.5864C92.9461 35.9955 92.9461 36.4045 92.8294 36.872L92.5959 38.0407H88.0434C87.9851 38.5081 87.9851 38.8587 88.1018 39.1509C88.2185 39.4431 88.3936 39.6184 88.6854 39.7353C88.9773 39.8521 89.4442 39.9106 90.0862 39.9106C90.7282 39.9106 91.3119 39.7937 91.8955 39.56L91.7205 40.378C91.4286 40.4949 91.0784 40.5533 90.7866 40.6118C90.378 40.7286 90.0279 40.7871 89.6777 40.7871ZM88.1602 37.281H91.7788L91.8955 36.7551C92.0123 36.2292 91.9539 35.8786 91.7788 35.5864C91.6037 35.2942 91.1952 35.1774 90.4948 35.1774C89.7944 35.1774 89.2691 35.3527 88.9189 35.7033C88.5687 36.0539 88.3353 36.5798 88.1602 37.281Z" fill="#041A42"/>
<path d="M93.7632 40.6702L93.8799 40.0858L98.4907 35.3527H95.0472L95.2223 34.4762H99.9499L99.8331 35.1189L95.2806 39.8521H98.8993L98.7826 40.6702H93.7632Z" fill="#041A42"/>
<path d="M103.218 40.7871C102.343 40.7871 101.701 40.5533 101.351 40.0859C100.942 39.6184 100.884 38.8587 101.117 37.7485C101.292 36.9888 101.526 36.4045 101.876 35.8786C102.226 35.3527 102.635 35.0021 103.16 34.7099C103.627 34.4762 104.152 34.3009 104.736 34.3009C105.144 34.3009 105.495 34.3593 105.786 34.4177C106.078 34.5346 106.37 34.6515 106.604 34.8852L106.72 34.4177H107.771L106.487 40.6118H105.553L105.611 39.969C105.261 40.2612 104.911 40.4365 104.561 40.5533C104.094 40.7286 103.627 40.7871 103.218 40.7871ZM103.627 39.9106C103.977 39.9106 104.327 39.8521 104.678 39.7353C105.028 39.6184 105.32 39.4431 105.611 39.1509L106.312 35.7617C106.137 35.5864 105.962 35.4111 105.728 35.2942C105.495 35.1774 105.203 35.1189 104.794 35.1189C104.094 35.1189 103.51 35.3527 103.043 35.7617C102.576 36.1708 102.285 36.8135 102.109 37.6901C101.934 38.5081 101.993 39.034 102.168 39.3846C102.401 39.7937 102.868 39.9106 103.627 39.9106Z" fill="#041A42"/>
<path d="M110.631 40.787C110.281 40.787 109.93 40.787 109.522 40.7286C109.172 40.6701 108.88 40.6117 108.646 40.5532L108.821 39.6183C109.405 39.852 109.989 39.9105 110.631 39.9105C111.156 39.9105 111.565 39.852 111.856 39.7352C112.09 39.6183 112.265 39.3846 112.323 39.0924C112.382 38.8587 112.323 38.6834 112.265 38.5665C112.148 38.4496 111.973 38.3327 111.74 38.2159C111.506 38.099 111.214 37.9821 110.806 37.8653C110.456 37.7484 110.164 37.6315 109.93 37.4562C109.697 37.3394 109.522 37.1056 109.405 36.9303C109.288 36.6966 109.288 36.4044 109.347 36.0538C109.463 35.5279 109.755 35.0604 110.105 34.7683C110.514 34.4761 111.156 34.3592 112.09 34.3592C112.44 34.3592 112.732 34.3592 113.024 34.4176C113.316 34.4761 113.549 34.5345 113.782 34.5929L113.607 35.5279C113.082 35.3526 112.615 35.2357 112.09 35.2357C111.565 35.2357 111.214 35.2942 110.923 35.411C110.631 35.5279 110.456 35.7032 110.397 35.9954C110.339 36.1707 110.397 36.346 110.456 36.4628C110.514 36.5797 110.689 36.6966 110.923 36.755C111.156 36.8135 111.39 36.9303 111.74 37.0472C112.382 37.2809 112.849 37.5147 113.14 37.7484C113.374 38.0406 113.491 38.3912 113.374 38.9171C113.257 39.5014 112.965 39.9689 112.557 40.2611C112.207 40.6701 111.565 40.787 110.631 40.787Z" fill="#041A42"/>
<path d="M85.7671 32.6063C85.7671 32.9569 85.4753 33.249 85.1251 33.249C84.7749 33.249 84.4831 32.9569 84.4831 32.6063C84.4831 32.2557 84.7749 31.9635 85.1251 31.9635C85.4753 31.9635 85.7671 32.2557 85.7671 32.6063Z" fill="#041A42"/>
<path d="M113.199 3.50606C113.199 5.43439 111.623 7.01212 109.697 7.01212C107.771 7.01212 106.195 5.43439 106.195 3.50606C106.195 1.57773 107.771 0 109.697 0C111.623 0 113.199 1.57773 113.199 3.50606Z" fill="#041A42"/>
<path d="M171.7 14.4412C171.378 15.6132 170.826 17.0083 169.7 17.7217C168.952 18.6231 166.712 19.2217 165.2 19.2217H159.7L160.035 18.2217L160.235 16.7217L160.035 15.2217L159.7 14.4412H171.7Z" fill="#041A42"/>
<path d="M148.51 8.23916C148.451 8.23916 148.393 8.23916 148.335 8.23916H123.004C121.02 8.23916 119.269 9.64158 118.86 11.6283L118.452 13.3229L117.109 19.7507L116.584 22.1465C116 24.7761 118.043 27.2887 120.728 27.2887H121.837H127.206C128.607 27.2887 129.891 26.8213 130.884 26.0032C131.876 25.1851 132.634 24.0164 132.926 22.6724H124.638C123.705 22.6724 122.946 21.7959 123.179 20.861L124.638 14.0826C124.814 13.3814 125.397 12.9139 126.098 12.9139H138.004C137.07 14.3163 136.37 16.0109 135.961 17.9977C135.319 21.1531 135.728 23.5489 137.187 25.2435C138.646 26.9381 141.039 27.7562 144.424 27.7562C148.276 27.7562 151.136 26.9381 153.121 25.2435C155.105 23.5489 156.389 21.1531 157.031 17.9977C157.44 16.0109 157.44 14.3163 157.031 12.9139H171.389C172.673 12.9139 173.84 12.388 174.658 11.5699C175.475 10.7518 176 9.58315 176 8.29759H148.51V8.23916ZM149.736 19.3417C149.327 21.27 147.634 22.7309 145.65 22.7309H145.592C144.132 22.7309 143.199 22.3803 142.732 21.6206C142.265 20.861 142.206 19.6338 142.557 17.9393C142.907 16.2447 144.308 12.8555 144.308 12.8555H151.136L149.736 19.3417Z" fill="#041A42"/>
</svg>
